<svg height="900" viewBox="0 0 1440 900" width="1440" xmlns="http://www.w3.org/2000/svg">
    <g stroke-linejoin="bevel">
        <path d="m706.6 445 97.6-68-110.8 31z" fill="#ef6c00" stroke="#ef6c00"/>
        <path d="m917.2 424-83-58-30 11z" fill="#fc9c1d" stroke="#fc9c1d"/>
        <path d="m804.2 377-102.6-121-8.2 152z" fill="#f37804" stroke="#f37804"/>
        <path d="m834.2 366-16.8-53-13.2 64z" fill="#fb9619" stroke="#fb9619"/>
        <path d="m701.6 256-85 124 76.8 28z" fill="#f6840c" stroke="#f6840c"/>
        <path d="m693.4 408-76.8-28 90 65z" fill="#ffa726" stroke="#ffa726"/>
        <path d="m817.4 313-115.8-57 102.6 121z" fill="#fea121" stroke="#fea121"/>
        <path d="m724.4 571 2-3-19.8-123z" fill="#ef6c00" stroke="#ef6c00"/>
        <path d="m706.6 445 143.6 100-46-168z" fill="#fc9c1d" stroke="#fc9c1d"/>
        <path d="m917.9 426-.7-2-113-47z" fill="#f37804" stroke="#f37804"/>
        <path d="m957.9 253-40-34-100.5 94z" fill="#f88a10" stroke="#f88a10"/>
        <path d="m545.8 434 178.6 137-17.8-126z" fill="#fb9619" stroke="#fb9619"/>
        <path d="m850.2 545 67.7-119-113.7-49z" fill="#ef6c00" stroke="#ef6c00"/>
        <path d="m850.2 545-143.6-100 19.8 123z" fill="#fb9619" stroke="#fb9619"/>
        <path d="m868.2 641-18-96-123.8 23z" fill="#ef6c00" stroke="#ef6c00"/>
        <path d="m701.6 256-131.8 90 46.8 34z" fill="#f6840c" stroke="#f6840c"/>
        <path d="m616.6 380-70.8 54 160.8 11z" fill="#fea121" stroke="#fea121"/>
        <path d="m569.8 346-24 88 70.8-54z" fill="#f6840c" stroke="#f6840c"/>
        <path d="m684.4 119-34.8 80 52 57z" fill="#f57e08" stroke="#f57e08"/>
        <path d="m701.6 256-52-57-79.8 147z" fill="#ffa726" stroke="#ffa726"/>
        <path d="m957.9 253-140.5 60 16.8 53z" fill="#f6840c" stroke="#f6840c"/>
        <path d="m817.4 313-30.2-227-85.6 170z" fill="#ef6c00" stroke="#ef6c00"/>
        <path d="m957.9 253-123.7 113 83 58z" fill="#f57e08" stroke="#f57e08"/>
        <path d="m1065.9 391-108-138-40.7 171z" fill="#ffa726" stroke="#ffa726"/>
        <path d="m724.4 571 143.8 70-141.8-73z" fill="#f99014" stroke="#f99014"/>
        <path d="m850.2 545 197.7-30-130-89z" fill="#f99014" stroke="#f99014"/>
        <path d="m957.9 253-14.7-24-25.3-10z" fill="#f57e08" stroke="#f57e08"/>
        <path d="m569.8 346-81.7 100 57.7-12z" fill="#ffa726" stroke="#ffa726"/>
        <path d="m545.8 434 19.8 194 158.8-57z" fill="#fea121" stroke="#fea121"/>
        <path d="m458.1 456 30-10-14-152z" fill="#f37804" stroke="#f37804"/>
        <path d="m497.8 607 67.8 21-19.8-194z" fill="#ffa726" stroke="#ffa726"/>
        <path d="m814.4 722 18.8-5 35-76z" fill="#f88a10" stroke="#f88a10"/>
        <path d="m787.2 86-102.8 33 17.2 137z" fill="#f99014" stroke="#f99014"/>
        <path d="m474.1 294 14 152 81.7-100z" fill="#ffa726" stroke="#ffa726"/>
        <path d="m787.2 86 30.2 227 100.5-94z" fill="#f88a10" stroke="#f88a10"/>
        <path d="m474.1 294 95.7 52-89-112z" fill="#f57e08" stroke="#f57e08"/>
        <path d="m488.1 446-31.3 39 89-51z" fill="#fb9619" stroke="#fb9619"/>
        <path d="m480.8 234 89 112 79.8-147z" fill="#fc9c1d" stroke="#fc9c1d"/>
        <path d="m565.6 628 55 52 103.8-109z" fill="#f17202" stroke="#f17202"/>
        <path d="m458.1 456-1.3 29 31.3-39z" fill="#f17202" stroke="#f17202"/>
        <path d="m1047.9 515 18-124-148 35z" fill="#ef6c00" stroke="#ef6c00"/>
        <path d="m917.9 426 148-35-148.7 33z" fill="#fea121" stroke="#fea121"/>
        <path d="m957.9 253 64.8-138-79.5 114z" fill="#fea121" stroke="#fea121"/>
        <path d="m868.2 641 179.7-126-197.7 30z" fill="#f57e08" stroke="#f57e08"/>
        <path d="m814.4 722 53.8-81-143.8-70z" fill="#ffa726" stroke="#ffa726"/>
        <path d="m868.2 641 204.5-59-24.8-67z" fill="#fea121" stroke="#fea121"/>
        <path d="m620.6 680 193.8 42-90-151z" fill="#fb9619" stroke="#fb9619"/>
        <path d="m488.1 203-7.3 31 168.8-35z" fill="#f88a10" stroke="#f88a10"/>
        <path d="m800.4 26 50.8-26h-27.8z" fill="#f57e08" stroke="#f57e08"/>
        <path d="m456.8 485 41 122 48-173z" fill="#f6840c" stroke="#f6840c"/>
        <path d="m565.6 628-51.5 101 106.5-49z" fill="#f17202" stroke="#f17202"/>
        <path d="m684.4 119-106.6 8 71.8 72z" fill="#f57e08" stroke="#f57e08"/>
        <path d="m698.6 0-120.8 127 106.6-8z" fill="#f37804" stroke="#f37804"/>
        <path d="m577.8 127-89.7 76 161.5-4z" fill="#ffa726" stroke="#ffa726"/>
        <path d="m423.3 542 78.5 95-4-30z" fill="#ef6c00" stroke="#ef6c00"/>
        <path d="m497.8 607 4 30 63.8-9z" fill="#f57e08" stroke="#f57e08"/>
        <path d="m403.3 457 17.8 46 35.7-18z" fill="#f88a10" stroke="#f88a10"/>
        <path d="m456.8 485-33.5 57 74.5 65z" fill="#fea121" stroke="#fea121"/>
        <path d="m403.3 457 53.5 28 1.3-29z" fill="#f57e08" stroke="#f57e08"/>
        <path d="m405.3 447 52.8 9 16-162z" fill="#f88a10" stroke="#f88a10"/>
        <path d="m319.5 234 85.8 213 68.8-153z" fill="#f17202" stroke="#f17202"/>
        <path d="m426.3 227 47.8 67 6.7-60z" fill="#f99014" stroke="#f99014"/>
        <path d="m514.1 729 125.7 12-19.2-61z" fill="#f37804" stroke="#f37804"/>
        <path d="m620.6 680 19.2 61 174.6-19z" fill="#f37804" stroke="#f37804"/>
        <path d="m405.3 447-2 10 54.8-1z" fill="#f57e08" stroke="#f57e08"/>
        <path d="m187.5 589 235.8-47-2.2-39z" fill="#ffa726" stroke="#ffa726"/>
        <path d="m421.1 503 2.2 39 33.5-57z" fill="#f88a10" stroke="#f88a10"/>
        <path d="m1006.9 691 65.8-109-204.5 59z" fill="#f6840c" stroke="#f6840c"/>
        <path d="m1047.9 515 106.8-90-88.8-34z" fill="#f6840c" stroke="#f6840c"/>
        <path d="m800.4 26-36.8 13 23.6 47z" fill="#f99014" stroke="#f99014"/>
        <path d="m787.2 86-23.6-47-79.2 80z" fill="#f99014" stroke="#f99014"/>
        <path d="m386.3 30 40 197 61.8-24z" fill="#f17202" stroke="#f17202"/>
        <path d="m488.1 203-61.8 24 54.5 7z" fill="#f99014" stroke="#f99014"/>
        <path d="m405.3 447-168-113 166 123z" fill="#fea121" stroke="#fea121"/>
        <path d="m922.9 784 84-93-138.7-50z" fill="#ef6c00" stroke="#ef6c00"/>
        <path d="m922.9 784-54.7-143-35 76z" fill="#f6840c" stroke="#f6840c"/>
        <path d="m851.2 0-64 86 112.7-86z" fill="#fb9619" stroke="#fb9619"/>
        <path d="m1022.7 115-104.8 104 25.3 10z" fill="#ffa726" stroke="#ffa726"/>
        <path d="m1137.5 191-114.8-76-64.8 138z" fill="#f57e08" stroke="#f57e08"/>
        <path d="m323.3 734 190.8-5-12.3-92z" fill="#fb9619" stroke="#fb9619"/>
        <path d="m501.8 637 12.3 92 51.5-101z" fill="#f6840c" stroke="#f6840c"/>
        <path d="m1168.5 431-13.8-6-7 150z" fill="#f99014" stroke="#f99014"/>
        <path d="m1173.5 256-36-65-179.6 62z" fill="#fc9c1d" stroke="#fc9c1d"/>
        <path d="m800.4 26-101.8-26 65 39z" fill="#f6840c" stroke="#f6840c"/>
        <path d="m763.6 39-65-39-14.2 119z" fill="#f17202" stroke="#f17202"/>
        <path d="m577.8 127-120.7-105 31 181z" fill="#fb9619" stroke="#fb9619"/>
        <path d="m833.4 900 89.5-116-108.5-62z" fill="#f88a10" stroke="#f88a10"/>
        <path d="m814.4 722 108.5 62-89.7-67z" fill="#f99014" stroke="#f99014"/>
        <path d="m715.4 840 99-118-174.6 19z" fill="#ffa726" stroke="#ffa726"/>
        <path d="m851.2 0-50.8 26-13.2 60z" fill="#fc9c1d" stroke="#fc9c1d"/>
        <path d="m800.4 26 23-26h-124.8z" fill="#f57e08" stroke="#f57e08"/>
        <path d="m1147.7 575 7-150-106.8 90z" fill="#f6840c" stroke="#f6840c"/>
        <path d="m1154.7 425 19-83-107.8 49z" fill="#fb9619" stroke="#fb9619"/>
        <path d="m1147.7 575-99.8-60 24.8 67z" fill="#fea121" stroke="#fea121"/>
        <path d="m899.9 0-112.7 86 130.7 133z" fill="#ef6c00" stroke="#ef6c00"/>
        <path d="m1168.5 431 5.2-89-19 83z" fill="#ef6c00" stroke="#ef6c00"/>
        <path d="m1006.9 691 140.8-116-75 7z" fill="#ffa726" stroke="#ffa726"/>
        <path d="m1188.5 562-40.8 13 116.5 23z" fill="#fc9c1d" stroke="#fc9c1d"/>
        <path d="m1162.7 141-142.8-70 2.8 44z" fill="#f6840c" stroke="#f6840c"/>
        <path d="m1022.7 115-122.8-115 18 219z" fill="#fea121" stroke="#fea121"/>
        <path d="m1019.9 71-120-71 122.8 115z" fill="#fc9c1d" stroke="#fc9c1d"/>
        <path d="m690.6 853 24.8-13-75.6-99z" fill="#fea121" stroke="#fea121"/>
        <path d="m1173.5 256-215.6-3 108 138z" fill="#f37804" stroke="#f37804"/>
        <path d="m1173.7 342-.2-86-107.6 135z" fill="#fea121" stroke="#fea121"/>
        <path d="m623.8 900 66.8-47-50.8-112z" fill="#f99014" stroke="#f99014"/>
        <path d="m988.9 900 47.8-110-113.8-6z" fill="#fb9619" stroke="#fb9619"/>
        <path d="m698.6 0h-148.8l28 127z" fill="#f99014" stroke="#f99014"/>
        <path d="m1203.5 791-55.8-216-140.8 116z" fill="#f88a10" stroke="#f88a10"/>
        <path d="m1147.7 575 40.8-13-20-131z" fill="#ffa726" stroke="#ffa726"/>
        <path d="m1168.5 431 100.7-58-95.5-31z" fill="#f99014" stroke="#f99014"/>
        <path d="m1173.7 342 95.5 31-95.7-117z" fill="#fea121" stroke="#fea121"/>
        <path d="m386.3 30-66.8 204 106.8-7z" fill="#f88a10" stroke="#f88a10"/>
        <path d="m426.3 227-106.8 7 154.6 60z" fill="#f57e08" stroke="#f57e08"/>
        <path d="m187.5 589 85.8 97 150-144z" fill="#fea121" stroke="#fea121"/>
        <path d="m323.3 734 181.8 78 9-83z" fill="#fb9619" stroke="#fb9619"/>
        <path d="m514.1 729-9 83 134.7-71z" fill="#f37804" stroke="#f37804"/>
        <path d="m323.3 734 178.5-97-78.5-95z" fill="#f99014" stroke="#f99014"/>
        <path d="m549.8 0h-42.7l70.7 127z" fill="#fc9c1d" stroke="#fc9c1d"/>
        <path d="m833.4 900-19-178-99 118z" fill="#f6840c" stroke="#f6840c"/>
        <path d="m922.9 784 113.8 6-29.8-99z" fill="#ef6c00" stroke="#ef6c00"/>
        <path d="m507.1 0-50 22 120.7 105z" fill="#ffa726" stroke="#ffa726"/>
        <path d="m1173.5 256-10.8-115-25.2 50z" fill="#f37804" stroke="#f37804"/>
        <path d="m1137.5 191 25.2-50-140-26z" fill="#fea121" stroke="#fea121"/>
        <path d="m1019.9 71 105.8-71h-225.8z" fill="#f57e08" stroke="#f57e08"/>
        <path d="m623.8 900h120.8l-54-47z" fill="#f99014" stroke="#f99014"/>
        <path d="m690.6 853 54 47-29.2-60z" fill="#f17202" stroke="#f17202"/>
        <path d="m744.6 900h88.8l-118-60z" fill="#f57e08" stroke="#f57e08"/>
        <path d="m505.1 812 118.7 88 16-159z" fill="#f37804" stroke="#f37804"/>
        <path d="m1284.5 506-15.3-133-100.7 58z" fill="#ffa726" stroke="#ffa726"/>
        <path d="m1173.5 256 111-62-121.8-53z" fill="#fea121" stroke="#fea121"/>
        <path d="m833.4 900h79.8l9.7-116z" fill="#fc9c1d" stroke="#fc9c1d"/>
        <path d="m198.8 292 38.5 42-27.8-90z" fill="#ef6c00" stroke="#ef6c00"/>
        <path d="m319.5 234-82.2 100 168 113z" fill="#ffa726" stroke="#ffa726"/>
        <path d="m392.3 0-6 30 70.8-8z" fill="#ef6c00" stroke="#ef6c00"/>
        <path d="m457.1 22-70.8 8 101.8 173z" fill="#f57e08" stroke="#f57e08"/>
        <path d="m1264.2 598v-59l-75.7 23z" fill="#f57e08" stroke="#f57e08"/>
        <path d="m1188.5 562 75.7-23-95.7-108z" fill="#f99014" stroke="#f99014"/>
        <path d="m273.3 686 50 48 100-192z" fill="#fea121" stroke="#fea121"/>
        <path d="m505.1 812-21 88h139.7z" fill="#f88a10" stroke="#f88a10"/>
        <path d="m1264.2 539 20.3-33-116-75z" fill="#f17202" stroke="#f17202"/>
        <path d="m507.1 0h-114.8l64.8 22z" fill="#fb9619" stroke="#fb9619"/>
        <path d="m209.5 244 27.8 90 82.2-100z" fill="#fb9619" stroke="#fb9619"/>
        <path d="m1203.5 791 60.7-193-116.5-23z" fill="#ef6c00" stroke="#ef6c00"/>
        <path d="m1264.2 539v59l20.3-92z" fill="#ffa726" stroke="#ffa726"/>
        <path d="m1203.5 791-196.6-100 29.8 99z" fill="#fea121" stroke="#fea121"/>
        <path d="m913.2 900h75.7l-66-116z" fill="#f99014" stroke="#f99014"/>
        <path d="m1167.5 0h-41.8l37 141z" fill="#fc9c1d" stroke="#fc9c1d"/>
        <path d="m1162.7 141-37-141-105.8 71z" fill="#fea121" stroke="#fea121"/>
        <path d="m184.5 466 236.6 37-17.8-46z" fill="#ffa726" stroke="#ffa726"/>
        <path d="m292.3 900h191.8l-160.8-166z" fill="#f37804" stroke="#f37804"/>
        <path d="m323.3 734 160.8 166 21-88z" fill="#f17202" stroke="#f17202"/>
        <path d="m209.5 244 110-10-157.7-87z" fill="#ef6c00" stroke="#ef6c00"/>
        <path d="m237.3 334-52.8 132 218.8-9z" fill="#f17202" stroke="#f17202"/>
        <path d="m298.5 0 21 234 66.8-204z" fill="#f6840c" stroke="#f6840c"/>
        <path d="m177.8 459 6.7 7 52.8-132z" fill="#fea121" stroke="#fea121"/>
        <path d="m1290.2 195-5.7-1-15.3 179z" fill="#fea121" stroke="#fea121"/>
        <path d="m1269.2 373 15.3-179-111 62z" fill="#fb9619" stroke="#fb9619"/>
        <path d="m138.8 444 39 15 59.5-125z" fill="#ef6c00" stroke="#ef6c00"/>
        <path d="m184.5 466 3 123 233.6-86z" fill="#f37804" stroke="#f37804"/>
        <path d="m1405.2 312-115-117-21 178z" fill="#f99014" stroke="#f99014"/>
        <path d="m1284.5 194-117-194-4.8 141z" fill="#f99014" stroke="#f99014"/>
        <path d="m988.9 900 87.8-10-40-100z" fill="#fea121" stroke="#fea121"/>
        <path d="m1377.2 0h-209.7l117 194z" fill="#ef6c00" stroke="#ef6c00"/>
        <path d="m1173.5 867 30-76-166.8-1z" fill="#fc9c1d" stroke="#fc9c1d"/>
        <path d="m149.5 566 38 23-3-123z" fill="#fc9c1d" stroke="#fc9c1d"/>
        <path d="m988.9 900h102.8l-15-10z" fill="#f6840c" stroke="#f6840c"/>
        <path d="m1076.7 890 96.8-23-136.8-77z" fill="#ffa726" stroke="#ffa726"/>
        <path d="m392.3 0h-93.8l87.8 30z" fill="#ef6c00" stroke="#ef6c00"/>
        <path d="m198.8 292-60 152 98.5-110z" fill="#fea121" stroke="#fea121"/>
        <path d="m177.8 459-39-15 45.7 22z" fill="#f99014" stroke="#f99014"/>
        <path d="m133.8 281 5 163 60-152z" fill="#f6840c" stroke="#f6840c"/>
        <path d="m187.5 589 33 128 52.8-31z" fill="#f6840c" stroke="#f6840c"/>
        <path d="m273.3 686-52.8 31 102.8 17z" fill="#fea121" stroke="#fea121"/>
        <path d="m60.8 602 159.7 115-33-128z" fill="#f57e08" stroke="#f57e08"/>
        <path d="m1091.7 900 81.8-33-96.8 23z" fill="#f17202" stroke="#f17202"/>
        <path d="m138.8 444 10.7 122 35-100z" fill="#fc9c1d" stroke="#fc9c1d"/>
        <path d="m161.8 147-28 134 75.7-37z" fill="#f17202" stroke="#f17202"/>
        <path d="m209.5 244-75.7 37 65 11z" fill="#f88a10" stroke="#f88a10"/>
        <path d="m298.5 0-136.7 147 157.7 87z" fill="#ef6c00" stroke="#ef6c00"/>
        <path d="m1440 416-34.8-104-136 61z" fill="#fc9c1d" stroke="#fc9c1d"/>
        <path d="m1290.2 195 87-195-92.7 194z" fill="#f99014" stroke="#f99014"/>
        <path d="m1440 416-170.8-43 170.8 73z" fill="#f88a10" stroke="#f88a10"/>
        <path d="m1269.2 373 15.3 133 155.5-60z" fill="#f6840c" stroke="#f6840c"/>
        <path d="m1284.5 506 155.5 12v-72z" fill="#f99014" stroke="#f99014"/>
        <path d="m240.5 900 82.8-166-150.8 113z" fill="#fb9619" stroke="#fb9619"/>
        <path d="m240.5 900h51.8l31-166z" fill="#fea121" stroke="#fea121"/>
        <path d="m1284.5 506-20.3 92 175.8-80z" fill="#f57e08" stroke="#f57e08"/>
        <path d="m1440 518-175.8 80 175.8 52z" fill="#f37804" stroke="#f37804"/>
        <path d="m1440 264-36.8-91 2 139z" fill="#fc9c1d" stroke="#fc9c1d"/>
        <path d="m1405.2 312-2-139-113 22z" fill="#ef6c00" stroke="#ef6c00"/>
        <path d="m1091.7 900h147.8l-66-33z" fill="#fb9619" stroke="#fb9619"/>
        <path d="m1173.5 867 66 33-36-109z" fill="#f17202" stroke="#f17202"/>
        <path d="m1403.2 697-139-99-60.7 193z" fill="#f6840c" stroke="#f6840c"/>
        <path d="m1440 416v-152l-34.8 48z" fill="#fea121" stroke="#fea121"/>
        <path d="m172.5 847 150.8-113-102.8-17z" fill="#ffa726" stroke="#ffa726"/>
        <path d="m1337.2 900 66-203-199.7 94z" fill="#ffa726" stroke="#ffa726"/>
        <path d="m1440 264v-51l-36.8-40z" fill="#fc9c1d" stroke="#fc9c1d"/>
        <path d="m138.8 444-78 158 88.7-36z" fill="#f88a10" stroke="#f88a10"/>
        <path d="m149.5 566-88.7 36 126.7-13z" fill="#fb9619" stroke="#fb9619"/>
        <path d="m0 437 60.8 165 78-158z" fill="#fc9c1d" stroke="#fc9c1d"/>
        <path d="m34.8 632 26-30-60.8 39z" fill="#f99014" stroke="#f99014"/>
        <path d="m1440 213v-18l-36.8-22z" fill="#fea121" stroke="#fea121"/>
        <path d="m1403.2 173-26-173-87 195z" fill="#f37804" stroke="#f37804"/>
        <path d="m298.5 0-175 46 38.3 101z" fill="#fb9619" stroke="#fb9619"/>
        <path d="m0 320v25l133.8-64z" fill="#fb9619" stroke="#fb9619"/>
        <path d="m89.8 782 82.7 65 48-130z" fill="#f99014" stroke="#f99014"/>
        <path d="m1403.2 697 36.8-47-175.8-52z" fill="#fc9c1d" stroke="#fc9c1d"/>
        <path d="m1440 0h-62.8l26 173z" fill="#f6840c" stroke="#f6840c"/>
        <path d="m0 437 138.8 7-138.8-99z" fill="#f99014" stroke="#f99014"/>
        <path d="m60.8 602-26 30 185.7 85z" fill="#f57e08" stroke="#f57e08"/>
        <path d="m0 345 138.8 99-5-163z" fill="#f88a10" stroke="#f88a10"/>
        <path d="m0 320 133.8-39-133.8-3z" fill="#fea121" stroke="#fea121"/>
        <path d="m0 278 133.8 3 28-134z" fill="#f37804" stroke="#f37804"/>
        <path d="m34.8 632 55 150 130.7-65z" fill="#ffa726" stroke="#ffa726"/>
        <path d="m0 34v244l161.8-131z" fill="#f37804" stroke="#f37804"/>
        <path d="m1239.5 900h97.7l-133.7-109z" fill="#f37804" stroke="#f37804"/>
        <path d="m1403.2 697 36.8 50v-97z" fill="#fb9619" stroke="#fb9619"/>
        <path d="m1337.2 900 102.8-153-36.8-50z" fill="#fb9619" stroke="#fb9619"/>
        <path d="m0 437v204l60.8-39z" fill="#fc9c1d" stroke="#fc9c1d"/>
        <path d="m34.8 632-34.8 28 89.8 122z" fill="#f37804" stroke="#f37804"/>
        <path d="m0 641v19l34.8-28z" fill="#ffa726" stroke="#ffa726"/>
        <path d="m1440 195v-195l-36.8 173z" fill="#fea121" stroke="#fea121"/>
        <path d="m1337.2 900 80-22 22.8-131z" fill="#fb9619" stroke="#fb9619"/>
        <path d="m123.5 46-123.5-12 161.8 113z" fill="#f6840c" stroke="#f6840c"/>
        <path d="m14.8 0-14.8 34 123.5 12z" fill="#ef6c00" stroke="#ef6c00"/>
        <path d="m298.5 0h-283.7l108.7 46z" fill="#f88a10" stroke="#f88a10"/>
        <path d="m1337.2 900h102.8l-22.8-22z" fill="#f17202" stroke="#f17202"/>
        <path d="m1417.2 878 22.8 22v-153z" fill="#ef6c00" stroke="#ef6c00"/>
        <path d="m14.8 0h-14.8v34z" fill="#fb9619" stroke="#fb9619"/>
        <path d="m0 871 43.8 29 46-118z" fill="#fb9619" stroke="#fb9619"/>
        <path d="m89.8 782-46 118 128.7-53z" fill="#f88a10" stroke="#f88a10"/>
        <path d="m172.5 847-128.7 53h196.7z" fill="#f6840c" stroke="#f6840c"/>
        <path d="m0 660v211l89.8-89z" fill="#fea121" stroke="#fea121"/>
        <path d="m0 871v29h43.8z" fill="#fc9c1d" stroke="#fc9c1d"/>
    </g>
</svg>