<svg height="1080" viewBox="0 0 1920 1080" width="1920" xmlns="http://www.w3.org/2000/svg">
    <g stroke-linejoin="bevel">
        <path d="m905.2 604 33 66 8.6-46z" fill="#ef6c00" stroke="#ef6c00" />
        <path d="m938.2 670 32.6 10-24-56z" fill="#ef6c00" stroke="#ef6c00" />
        <path d="m905.2 604-95.7 135 128.7-69z" fill="#f6840c" stroke="#f6840c" />
        <path d="m826.5 582-17 157 95.7-135z" fill="#f57e08" stroke="#f57e08" />
        <path d="m938.2 670-36 239 68.6-229z" fill="#f99014" stroke="#f99014" />
        <path d="m946.8 624-57.6-136 16 116z" fill="#fc9c1d" stroke="#fc9c1d" />
        <path d="m905.2 604-16-116-62.7 94z" fill="#f17202" stroke="#f17202" />
        <path d="m1094.5 605-205.3-117 57.6 136z" fill="#f6840c" stroke="#f6840c" />
        <path d="m970.8 680 123.7-75-147.7 19z" fill="#fea121" stroke="#fea121" />
        <path d="m902.2 909 125.6-60-57-169z" fill="#fb9619" stroke="#fb9619" />
        <path d="m970.8 680 120.7 144 3-219z" fill="#fc9c1d" stroke="#fc9c1d" />
        <path d="m1027.8 849 63.7-25-120.7-144z" fill="#f6840c" stroke="#f6840c" />
        <path d="m889.2 488-164.7-27 102 121z" fill="#f99014" stroke="#f99014" />
        <path d="m579.8 596 52 212 177.7-69z" fill="#f6840c" stroke="#f6840c" />
        <path d="m809.5 739 92.7 170 36-239z" fill="#f57e08" stroke="#f57e08" />
        <path d="m1027.8 849 59 9 4.7-34z" fill="#f57e08" stroke="#f57e08" />
        <path d="m1040.8 1080 46-222-59-9z" fill="#fea121" stroke="#fea121" />
        <path d="m681.8 846 74.7 33 53-140z" fill="#ffa726" stroke="#ffa726" />
        <path d="m809.5 739-53 140 145.7 30z" fill="#fc9c1d" stroke="#fc9c1d" />
        <path d="m1094.5 605-70.7-238-134.6 121z" fill="#f37804" stroke="#f37804" />
        <path d="m889.2 488-75.7-191-89 164z" fill="#ef6c00" stroke="#ef6c00" />
        <path d="m631.8 808 50 38 127.7-107z" fill="#f37804" stroke="#f37804" />
        <path d="m579.8 596 229.7 143 17-157z" fill="#f99014" stroke="#f99014" />
        <path d="m1023.8 367-70.6-62-64 183z" fill="#f6840c" stroke="#f6840c" />
        <path d="m724.5 461-144.7 135 246.7-14z" fill="#f37804" stroke="#f37804" />
        <path d="m1236.2 938-61.7-84-87.7 4z" fill="#f17202" stroke="#f17202" />
        <path d="m1086.8 858 87.7-4-83-30z" fill="#fc9c1d" stroke="#fc9c1d" />
        <path d="m1091.5 824 83 30-80-249z" fill="#f57e08" stroke="#f57e08" />
        <path d="m1094.5 605 171.7-98-242.4-140z" fill="#ef6c00" stroke="#ef6c00" />
        <path d="m982.8 316-29.6-11 70.6 62z" fill="#f37804" stroke="#f37804" />
        <path d="m953.2 305-139.7-8 75.7 191z" fill="#f37804" stroke="#f37804" />
        <path d="m437.1 363 94 260 48.7-27z" fill="#f37804" stroke="#f37804" />
        <path d="m1174.5 854 93-269-173 20z" fill="#fea121" stroke="#fea121" />
        <path d="m1023.8 367 146.7-55-187.7 4z" fill="#ef6c00" stroke="#ef6c00" />
        <path d="m1267.5 585-1.3-78-171.7 98z" fill="#f37804" stroke="#f37804" />
        <path d="m437.1 363 142.7 233 144.7-135z" fill="#f6840c" stroke="#f6840c" />
        <path d="m579.8 596-32 174 84 38z" fill="#fea121" stroke="#fea121" />
        <path d="m1174.5 854 122.7-255-29.7-14z" fill="#f17202" stroke="#f17202" />
        <path d="m1267.5 585 29.7 14-31-92z" fill="#f57e08" stroke="#f57e08" />
        <path d="m531.1 623 16.7 147 32-174z" fill="#f37804" stroke="#f37804" />
        <path d="m672.8 1080 83.7-201-74.7-33z" fill="#f88a10" stroke="#f88a10" />
        <path d="m817.5 1026 44.7 5 40-122z" fill="#f88a10" stroke="#f88a10" />
        <path d="m902.2 909 138.6 171-13-231z" fill="#f57e08" stroke="#f57e08" />
        <path d="m817.5 1026 84.7-117-145.7-30z" fill="#ffa726" stroke="#ffa726" />
        <path d="m817.5 1026-61-147 5 201z" fill="#f37804" stroke="#f37804" />
        <path d="m761.5 1080-5-201-83.7 201z" fill="#f6840c" stroke="#f6840c" />
        <path d="m813.5 297-124.7 11 35.7 153z" fill="#fc9c1d" stroke="#fc9c1d" />
        <path d="m1266.2 507-95.7-195-146.7 55z" fill="#f6840c" stroke="#f6840c" />
        <path d="m982.8 316 84-216-113.6 205z" fill="#fb9619" stroke="#fb9619" />
        <path d="m953.2 305-30-241-109.7 233z" fill="#f17202" stroke="#f17202" />
        <path d="m531.1 623-45 87 61.7 60z" fill="#f99014" stroke="#f99014" />
        <path d="m372.1 744 114-34-150.7-65z" fill="#ffa726" stroke="#ffa726" />
        <path d="m1097.5 1080 138.7-142-149.4-80z" fill="#fb9619" stroke="#fb9619" />
        <path d="m1435.9 778-41-144-97.7-35z" fill="#f6840c" stroke="#f6840c" />
        <path d="m817.5 1026 52.7 54-8-49z" fill="#f57e08" stroke="#f57e08" />
        <path d="m862.2 1031 178.6 49-138.6-171z" fill="#fc9c1d" stroke="#fc9c1d" />
        <path d="m761.5 1080h108.7l-52.7-54z" fill="#fea121" stroke="#fea121" />
        <path d="m1269.2 362-71.7-65-27 15z" fill="#f57e08" stroke="#f57e08" />
        <path d="m1170.5 312-103.7-212-84 216z" fill="#f99014" stroke="#f99014" />
        <path d="m1269.2 362-98.7-50 95.7 195z" fill="#f57e08" stroke="#f57e08" />
        <path d="m1404.9 364-135.7-2-3 145z" fill="#ef6c00" stroke="#ef6c00" />
        <path d="m870.2 1080h170.6l-178.6-49z" fill="#ef6c00" stroke="#ef6c00" />
        <path d="m672.8 1080 9-234-233.7 152z" fill="#f88a10" stroke="#f88a10" />
        <path d="m681.8 846-50-38-183.7 190z" fill="#ffa726" stroke="#ffa726" />
        <path d="m1040.8 1080h56.7l-10.7-222z" fill="#fb9619" stroke="#fb9619" />
        <path d="m1435.9 778-138.7-179-122.7 255z" fill="#f99014" stroke="#f99014" />
        <path d="m1297.2 599 156.7-133-187.7 41z" fill="#fea121" stroke="#fea121" />
        <path d="m448.1 998 183.7-190-84-38z" fill="#ffa726" stroke="#ffa726" />
        <path d="m1355.2 1080 5-188-124 46z" fill="#f88a10" stroke="#f88a10" />
        <path d="m1236.2 938 124-46-185.7-38z" fill="#f37804" stroke="#f37804" />
        <path d="m1360.2 892 75.7-114-261.4 76z" fill="#fb9619" stroke="#fb9619" />
        <path d="m335.4 645 150.7 65 45-87z" fill="#f88a10" stroke="#f88a10" />
        <path d="m486.1 710-114 34 175.7 26z" fill="#f6840c" stroke="#f6840c" />
        <path d="m688.8 308-251.7 55 287.4 98z" fill="#f6840c" stroke="#f6840c" />
        <path d="m1574.6 716-109.7-149-70 67z" fill="#ef6c00" stroke="#ef6c00" />
        <path d="m1394.9 634 70-67-167.7 32z" fill="#f6840c" stroke="#f6840c" />
        <path d="m1259.2 85-61.7 212 78-213z" fill="#f57e08" stroke="#f57e08" />
        <path d="m1259.2 85-192.4 15 130.7 197z" fill="#f37804" stroke="#f37804" />
        <path d="m1197.5 297-130.7-197 103.7 212z" fill="#f37804" stroke="#f37804" />
        <path d="m813.5 297-164.7-164 40 175z" fill="#fea121" stroke="#fea121" />
        <path d="m688.8 308-161-111-90.7 166z" fill="#fb9619" stroke="#fb9619" />
        <path d="m1453.9 466-49-102-138.7 143z" fill="#fb9619" stroke="#fb9619" />
        <path d="m1464.9 567-11-101-156.7 133z" fill="#f17202" stroke="#f17202" />
        <path d="m665.5 103-16.7 30 164.7 164z" fill="#f88a10" stroke="#f88a10" />
        <path d="m347.4 514-12 131 195.7-22z" fill="#f57e08" stroke="#f57e08" />
        <path d="m1066.8 100-143.6-36 30 241z" fill="#f88a10" stroke="#f88a10" />
        <path d="m437.1 363-89.7 151 183.7 109z" fill="#ffa726" stroke="#ffa726" />
        <path d="m344.4 875 103.7 123 99.7-228z" fill="#fb9619" stroke="#fb9619" />
        <path d="m344.4 875 203.4-105-175.7-26z" fill="#fb9619" stroke="#fb9619" />
        <path d="m648.8 133-121 64 161 111z" fill="#ef6c00" stroke="#ef6c00" />
        <path d="m437.1 363-121.7-4 32 155z" fill="#fb9619" stroke="#fb9619" />
        <path d="m1453.9 466-28.7-121-20.3 19z" fill="#f57e08" stroke="#f57e08" />
        <path d="m1404.9 364 20.3-19-156 17z" fill="#ef6c00" stroke="#ef6c00" />
        <path d="m923.2 64-257.7 39 148 194z" fill="#ef6c00" stroke="#ef6c00" />
        <path d="m648.8 133-203.7-133 82.7 197z" fill="#fc9c1d" stroke="#fc9c1d" />
        <path d="m216.7 748 127.7 127 27.7-131z" fill="#f17202" stroke="#f17202" />
        <path d="m527.8 197-140.7 117 50 49z" fill="#f17202" stroke="#f17202" />
        <g fill="#ffa726" stroke="#ffa726">
            <path d="m1097.5 1080h257.7l-119-142z" />
            <path d="m1360.2 892 121.7 5-46-119z" />
            <path d="m1355.2 1080 126.7-183-121.7-5z" />
        </g>
        <path d="m1435.9 778 138.7-62-179.7-82z" fill="#f17202" stroke="#f17202" />
        <path d="m923.2 64-103.7-64-154 103z" fill="#fb9619" stroke="#fb9619" />
        <path d="m1042.8 0h-203.6l84 64z" fill="#f6840c" stroke="#f6840c" />
        <path d="m839.2 0h-19.7l103.7 64z" fill="#ffa726" stroke="#ffa726" />
        <path d="m1132.5 0h-89.7l24 100z" fill="#ffa726" stroke="#ffa726" />
        <path d="m1066.8 100-24-100-119.6 64z" fill="#ffa726" stroke="#ffa726" />
        <path d="m1275.5 84-78 213 71.7 65z" fill="#f17202" stroke="#f17202" />
        <path d="m387.1 314-71.7 45 121.7 4z" fill="#f88a10" stroke="#f88a10" />
        <path d="m185.7 608 31 140 118.7-103z" fill="#f6840c" stroke="#f6840c" />
        <path d="m216.7 748 93.7 208 34-81z" fill="#f57e08" stroke="#f57e08" />
        <path d="m342.4 281-27 78 71.7-45z" fill="#fc9c1d" stroke="#fc9c1d" />
        <path d="m1425.2 345-149.7-261-6.3 278z" fill="#ffa726" stroke="#ffa726" />
        <path d="m1259.2 85-126.7-85-65.7 100z" fill="#f99014" stroke="#f99014" />
        <path d="m1481.9 897 92.7-181-138.7 62z" fill="#f99014" stroke="#f99014" />
        <path d="m1464.9 567 155.7-27-166.7-74z" fill="#fb9619" stroke="#fb9619" />
        <path d="m1666.6 386-119.7-183-121.7 142z" fill="#ffa726" stroke="#ffa726" />
        <path d="m390.1 208-3 106 140.7-117z" fill="#fea121" stroke="#fea121" />
        <path d="m390.1 208-47.7 73 44.7 33z" fill="#ffa726" stroke="#ffa726" />
        <path d="m390.1 208 137.7-11-151.4-76z" fill="#fb9619" stroke="#fb9619" />
        <path d="m1321.2 0h-188.7l126.7 85z" fill="#fc9c1d" stroke="#fc9c1d" />
        <path d="m643.8 0 5 133 16.7-30z" fill="#f57e08" stroke="#f57e08" />
        <path d="m344.4 875-34 81 137.7 42z" fill="#fb9619" stroke="#fb9619" />
        <path d="m448.1 998-104 82h328.7z" fill="#ef6c00" stroke="#ef6c00" />
        <path d="m216.7 748 155.4-4-36.7-99z" fill="#f57e08" stroke="#f57e08" />
        <path d="m819.5 0h-175.7l21.7 103z" fill="#f99014" stroke="#f99014" />
        <path d="m185.7 608 149.7 37 12-131z" fill="#f57e08" stroke="#f57e08" />
        <path d="m1574.6 716 46-176-155.7 27z" fill="#f17202" stroke="#f17202" />
        <path d="m1570.6 156-249.4-156-45.7 84z" fill="#f17202" stroke="#f17202" />
        <path d="m284.4 1080h59.7l-33.7-124z" fill="#f57e08" stroke="#f57e08" />
        <path d="m310.4 956 33.7 124 104-82z" fill="#f37804" stroke="#f37804" />
        <path d="m130.7 400 216.7 114-32-155z" fill="#f88a10" stroke="#f88a10" />
        <path d="m130.7 400 55 208 161.7-94z" fill="#f37804" stroke="#f37804" />
        <path d="m1355.2 1080h160.7l-34-183z" fill="#f6840c" stroke="#f6840c" />
        <path d="m1481.9 897 194.7-32-102-149z" fill="#ef6c00" stroke="#ef6c00" />
        <path d="m1574.6 716 190.7-90-144.7-86z" fill="#ffa726" stroke="#ffa726" />
        <path d="m390.1 208-207.4-8 159.7 81z" fill="#f57e08" stroke="#f57e08" />
        <path d="m182.7 200-52 200 184.7-41z" fill="#f37804" stroke="#f37804" />
        <path d="m445.1 0-68.7 121 151.4 76z" fill="#f6840c" stroke="#f6840c" />
        <path d="m1546.9 203-271.4-119 149.7 261z" fill="#f37804" stroke="#f37804" />
        <path d="m1275.5 84 45.7-84-62 85z" fill="#f99014" stroke="#f99014" />
        <path d="m1515.9 1080h19.7l-53.7-183z" fill="#fc9c1d" stroke="#fc9c1d" />
        <path d="m81.7 950 202.7 130 26-124z" fill="#ffa726" stroke="#ffa726" />
        <path d="m81.7 950 228.7 6-93.7-208z" fill="#f57e08" stroke="#f57e08" />
        <path d="m1666.6 386-241.4-41 28.7 121z" fill="#f57e08" stroke="#f57e08" />
        <path d="m643.8 0h-198.7l203.7 133z" fill="#f37804" stroke="#f37804" />
        <path d="m1689.3 892-12.7-27-194.7 32z" fill="#fc9c1d" stroke="#fc9c1d" />
        <path d="m1840.3 544-173.7-158-46 154z" fill="#f6840c" stroke="#f6840c" />
        <path d="m1620.6 540 46-154-212.7 80z" fill="#f17202" stroke="#f17202" />
        <path d="m1535.6 1080 153.7-188-207.4 5z" fill="#f6840c" stroke="#f6840c" />
        <path d="m1676.6 865 88.7-239-190.7 90z" fill="#fea121" stroke="#fea121" />
        <path d="m1672.6 261-102-105-23.7 47z" fill="#ef6c00" stroke="#ef6c00" />
        <path d="m1546.9 203 23.7-47-295.1-72z" fill="#f37804" stroke="#f37804" />
        <path d="m182.7 200 132.7 159 27-78z" fill="#ffa726" stroke="#ffa726" />
        <path d="m56.7 882 25 68 135-202z" fill="#f37804" stroke="#f37804" />
        <path d="m182.7 200 207.4 8-13.7-87z" fill="#f99014" stroke="#f99014" />
        <path d="m1723.3 1080-2.7-189-31.3 1z" fill="#fb9619" stroke="#fb9619" />
        <path d="m1689.3 892 31.3-1-44-26z" fill="#fc9c1d" stroke="#fc9c1d" />
        <path d="m1666.6 386 6-125-125.7-58z" fill="#fea121" stroke="#fea121" />
        <path d="m1725.3 330-52.7-69-6 125z" fill="#fb9619" stroke="#fb9619" />
        <path d="m1720.6 891 44.7-265-88.7 239z" fill="#f17202" stroke="#f17202" />
        <path d="m176.7 72 6 128 193.7-79z" fill="#f37804" stroke="#f37804" />
        <path d="m1840.3 544-115-214-58.7 56z" fill="#fb9619" stroke="#fb9619" />
        <path d="m56.7 882 160-134-216.7 38z" fill="#fc9c1d" stroke="#fc9c1d" />
        <path d="m0 736 216.7 12-31-140z" fill="#ffa726" stroke="#ffa726" />
        <path d="m1920 310-180.7-35-14 55z" fill="#fea121" stroke="#fea121" />
        <path d="m1725.3 330 14-55-66.7-14z" fill="#ef6c00" stroke="#ef6c00" />
        <path d="m1672.6 261 24.7-157-126.7 52z" fill="#f17202" stroke="#f17202" />
        <path d="m445.1 0h-178.7l110 121z" fill="#f88a10" stroke="#f88a10" />
        <path d="m0 534v202l185.7-128z" fill="#fb9619" stroke="#fb9619" />
        <path d="m56.7 882-56.7 16 81.7 52z" fill="#f88a10" stroke="#f88a10" />
        <path d="m0 534 185.7 74-55-208z" fill="#f88a10" stroke="#f88a10" />
        <path d="m0 406 130.7-6-130.7-194z" fill="#f57e08" stroke="#f57e08" />
        <path d="m0 406v128l130.7-134z" fill="#f6840c" stroke="#f6840c" />
        <path d="m1697.3 104-125.4-104-1.3 156z" fill="#f6840c" stroke="#f6840c" />
        <path d="m1570.6 156 1.3-156h-250.7z" fill="#f99014" stroke="#f99014" />
        <path d="m1535.6 1080h187.7l-34-188z" fill="#f17202" stroke="#f17202" />
        <path d="m1920 620-79.7-76-75 82z" fill="#f88a10" stroke="#f88a10" />
        <path d="m0 736v50l216.7-38z" fill="#f6840c" stroke="#f6840c" />
        <path d="m266.4 0-89.7 72 199.7 49z" fill="#f88a10" stroke="#f88a10" />
        <path d="m1765.3 626 75-82-219.7-4z" fill="#f57e08" stroke="#f57e08" />
        <path d="m1920 720-154.7-94-44.7 265z" fill="#f99014" stroke="#f99014" />
        <path d="m0 206 130.7 194 52-200z" fill="#f37804" stroke="#f37804" />
        <path d="m0 786v112l56.7-16z" fill="#ef6c00" stroke="#ef6c00" />
        <path d="m81.7 950-34 130h236.7z" fill="#f6840c" stroke="#f6840c" />
        <path d="m1739.3 275-42-171-24.7 157z" fill="#fc9c1d" stroke="#fc9c1d" />
        <path d="m1804.3 0-107 104 222.7-48z" fill="#fea121" stroke="#fea121" />
        <path d="m1723.3 1080 102-152-104.7-37z" fill="#ffa726" stroke="#ffa726" />
        <path d="m0 1080h47.7l34-130z" fill="#f57e08" stroke="#f57e08" />
        <path d="m266.4 0h-102.7l13 72z" fill="#f57e08" stroke="#f57e08" />
        <path d="m0 136v70l182.7-6z" fill="#f99014" stroke="#f99014" />
        <path d="m1804.3 0h-127.7l20.7 104z" fill="#fc9c1d" stroke="#fc9c1d" />
        <path d="m1697.3 104-20.7-104h-104.7z" fill="#fc9c1d" stroke="#fc9c1d" />
        <path d="m1920 720v-100l-154.7 6z" fill="#f17202" stroke="#f17202" />
        <path d="m1840.3 544 79.7-61-194.7-153z" fill="#ffa726" stroke="#ffa726" />
        <path d="m1920 836v-116l-199.4 171z" fill="#fc9c1d" stroke="#fc9c1d" />
        <path d="m0 136 182.7 64-6-128z" fill="#ef6c00" stroke="#ef6c00" />
        <path d="m0 898v182l81.7-130z" fill="#f88a10" stroke="#f88a10" />
        <path d="m1920 620v-137l-79.7 61z" fill="#f37804" stroke="#f37804" />
        <path d="m1920 931v-95l-94.7 92z" fill="#fc9c1d" stroke="#fc9c1d" />
        <path d="m1825.3 928 94.7-92-199.4 55z" fill="#fea121" stroke="#fea121" />
        <path d="m0 0v136l176.7-64z" fill="#fea121" stroke="#fea121" />
        <path d="m1920 1080v-149l-94.7-3z" fill="#f88a10" stroke="#f88a10" />
        <path d="m1920 483v-173l-194.7 20z" fill="#fc9c1d" stroke="#fc9c1d" />
        <path d="m1920 56-222.7 48 42 171z" fill="#f37804" stroke="#f37804" />
        <path d="m1723.3 1080h196.7l-94.7-152z" fill="#f37804" stroke="#f37804" />
        <path d="m163.7 0h-163.7l176.7 72z" fill="#ffa726" stroke="#ffa726" />
        <path d="m1920 310v-254l-180.7 219z" fill="#f88a10" stroke="#f88a10" />
        <path d="m1920 56v-56h-115.7z" fill="#f99014" stroke="#f99014" />
    </g>
</svg>