<svg height="900" viewBox="0 0 1600 900" width="1600" xmlns="http://www.w3.org/2000/svg">
    <g stroke-linejoin="bevel">
        <path d="m785.5 485 136-55-104-44.5z" fill="#fc9c1d" stroke="#fc9c1d" />
        <g fill="#ffa726" stroke="#ffa726">
            <path d="m785.5 485 145-15.5-9-39.5z" />
            <path d="m1039.7 454-79.2-90.5-39 66.5z" />
            <path d="m921.5 430 39-66.5-143 22z" />
        </g>
        <path d="m960.5 363.5 4.1-29-147.1 51z" fill="#f88a10" stroke="#f88a10" />
        <path d="m930.5 469.5 109.2-15.5-118.2-24z" fill="#f37804" stroke="#f37804" />
        <path d="m960.5 363.5 142.2-64.5-138.1 35.5z" fill="#f17202" stroke="#f17202" />
        <path d="m700.5 318-26.1 215 111.1-48z" fill="#fc9c1d" stroke="#fc9c1d" />
        <path d="m785.5 485 51 185 94-200.5z" fill="#ef6c00" stroke="#ef6c00" />
        <path d="m930.5 469.5 83.1 134.5 26.1-150z" fill="#f6840c" stroke="#f6840c" />
        <path d="m837.5 126-137 192 117 67.5z" fill="#fea121" stroke="#fea121" />
        <path d="m817.5 385.5-117-67.5 85 167z" fill="#f17202" stroke="#f17202" />
        <path d="m1058.7 580.5 8.9-132.5-27.9 6z" fill="#fea121" stroke="#fea121" />
        <path d="m1039.7 454 27.9-6-107.1-84.5z" fill="#fc9c1d" stroke="#fc9c1d" />
        <path d="m781.5 664 55 6-51-185z" fill="#f37804" stroke="#f37804" />
        <path d="m836.5 670 177.1-66-83.1-134.5z" fill="#f6840c" stroke="#f6840c" />
        <path d="m674.4 533 107.1 131 4-179z" fill="#ef6c00" stroke="#ef6c00" />
        <path d="m1013.6 604 45.1-23.5-19-126.5z" fill="#fea121" stroke="#fea121" />
        <path d="m1102.7 299-135.1-65-3 100.5z" fill="#f6840c" stroke="#f6840c" />
        <path d="m964.6 334.5 3-100.5-150.1 151.5z" fill="#fb9619" stroke="#fb9619" />
        <path d="m700.5 318-114.1 73.5 88 141.5z" fill="#f6840c" stroke="#f6840c" />
        <path d="m592.4 578.5 56.1 66 25.9-111.5z" fill="#f99014" stroke="#f99014" />
        <path d="m674.4 533-25.9 111.5 133 19.5z" fill="#fc9c1d" stroke="#fc9c1d" />
        <path d="m806.5 758.5 30-88.5-55-6z" fill="#fc9c1d" stroke="#fc9c1d" />
        <path d="m806.5 758.5 63-23-33-65.5z" fill="#fea121" stroke="#fea121" />
        <path d="m836.5 670 33 65.5 144.1-131.5z" fill="#fc9c1d" stroke="#fc9c1d" />
        <path d="m1013.6 604 66 55.5-20.9-79z" fill="#ffa726" stroke="#ffa726" />
        <path d="m547.3 546.5 45.1 32 82-45.5z" fill="#fb9619" stroke="#fb9619" />
        <path d="m1067.6 448 35.1-149-142.2 64.5z" fill="#f6840c" stroke="#f6840c" />
        <path d="m1126.7 315.5-24-16.5-35.1 149z" fill="#fea121" stroke="#fea121" />
        <path d="m586.4 391.5-31.1 20.5 119.1 121z" fill="#ef6c00" stroke="#ef6c00" />
        <path d="m1152.8 343.5-26.1-28-59.1 132.5z" fill="#f17202" stroke="#f17202" />
        <path d="m949.6 759.5 130-100-66-55.5z" fill="#f17202" stroke="#f17202" />
        <path d="m1254.8 528.5-102-185-85.2 104.5z" fill="#ffa726" stroke="#ffa726" />
        <path d="m648.5 644.5 158 114-25-94.5z" fill="#f6840c" stroke="#f6840c" />
        <path d="m869.5 735.5 80.1 24 64-155.5z" fill="#f37804" stroke="#f37804" />
        <path d="m555.3 412-8 134.5 127.1-13.5z" fill="#f17202" stroke="#f17202" />
        <path d="m592.4 578.5-58.1 146 114.2-80z" fill="#f57e08" stroke="#f57e08" />
        <path d="m1254.8 528.5-187.2-80.5-8.9 132.5z" fill="#f57e08" stroke="#f57e08" />
        <path d="m930.5 900 19.1-140.5-80.1-24z" fill="#f37804" stroke="#f37804" />
        <path d="m827.5 96.5 10 29.5 59.1-126z" fill="#f37804" stroke="#f37804" />
        <path d="m967.6 234-130.1-108-20 259.5z" fill="#f88a10" stroke="#f88a10" />
        <path d="m700.5 318-91.1-137-23 210.5z" fill="#ef6c00" stroke="#ef6c00" />
        <path d="m447.2 374 33.1 41.5 75-3.5z" fill="#ffa726" stroke="#ffa726" />
        <path d="m837.5 126-94 3.5-43 188.5z" fill="#ef6c00" stroke="#ef6c00" />
        <path d="m743.5 129.5-60.1 23 17.1 165.5z" fill="#ef6c00" stroke="#ef6c00" />
        <path d="m837.5 126-10-29.5-84 33z" fill="#f37804" stroke="#f37804" />
        <path d="m606.4 0 3 181 74-28.5z" fill="#fb9619" stroke="#fb9619" />
        <path d="m998.6 87.5-161.1 38.5 130.1 108z" fill="#f17202" stroke="#f17202" />
        <path d="m998.6 87.5-31 146.5 191.2-59z" fill="#ffa726" stroke="#ffa726" />
        <path d="m539.3 179 70.1 2-3-181z" fill="#f6840c" stroke="#f6840c" />
        <path d="m683.4 152.5-74 28.5 91.1 137z" fill="#ef6c00" stroke="#ef6c00" />
        <path d="m447.2 374 108.1 38 31.1-20.5z" fill="#f99014" stroke="#f99014" />
        <path d="m555.3 412-75 3.5 67 131z" fill="#ef6c00" stroke="#ef6c00" />
        <path d="m949.6 759.5 180.1-46.5-50.1-53.5z" fill="#f6840c" stroke="#f6840c" />
        <path d="m1079.6 659.5 175.2-131-196.1 52z" fill="#f6840c" stroke="#f6840c" />
        <path d="m1158.8 175-56.1 124 84-91.5z" fill="#ffa726" stroke="#ffa726" />
        <path d="m1158.8 175-191.2 59 135.1 65z" fill="#f17202" stroke="#f17202" />
        <path d="m539.3 179-92.1 195 139.2 17.5z" fill="#f6840c" stroke="#f6840c" />
        <path d="m520.4 730 13.9-5.5-116-89.5z" fill="#fb9619" stroke="#fb9619" />
        <path d="m1129.7 713 125.1-184.5-175.2 131z" fill="#f37804" stroke="#f37804" />
        <path d="m1186.7 207.5-60 108 26.1 28z" fill="#fea121" stroke="#fea121" />
        <path d="m1186.7 207.5-84 91.5 24 16.5z" fill="#f17202" stroke="#f17202" />
        <path d="m745.5 0-62.1 152.5 60.1-23z" fill="#fc9c1d" stroke="#fc9c1d" />
        <path d="m609.4 181-70.1-2 47.1 212.5z" fill="#ffa726" stroke="#ffa726" />
        <path d="m1317.8 423.5-131.1-216-33.9 136z" fill="#f6840c" stroke="#f6840c" />
        <path d="m547.3 546.5-13 178 58.1-146z" fill="#ef6c00" stroke="#ef6c00" />
        <path d="m648.5 644.5 40.9 255.5 117.1-141.5z" fill="#f99014" stroke="#f99014" />
        <path d="m534.3 724.5 13-178-129 88.5z" fill="#f88a10" stroke="#f88a10" />
        <path d="m1093.7 836.5 46.1-72.5-10.1-51z" fill="#fb9619" stroke="#fb9619" />
        <path d="m1129.7 713 181.1-81-56-103.5z" fill="#f99014" stroke="#f99014" />
        <path d="m1093.7 836.5 36-123.5-180.1 46.5z" fill="#fc9c1d" stroke="#fc9c1d" />
        <path d="m393.2 427.5 154.1 119-67-131z" fill="#f6840c" stroke="#f6840c" />
        <path d="m689.4 900h148.1l-31-141.5z" fill="#fb9619" stroke="#fb9619" />
        <path d="m1310.8 632-18-136-38 32.5z" fill="#fc9c1d" stroke="#fc9c1d" />
        <path d="m1254.8 528.5 38-32.5-140-152.5z" fill="#fb9619" stroke="#fb9619" />
        <path d="m689.4 900-40.9-255.5-114.1 180z" fill="#f17202" stroke="#f17202" />
        <path d="m806.5 758.5 31 141.5 32-164.5z" fill="#f99014" stroke="#f99014" />
        <path d="m896.6 0h-79.1l10 96.5z" fill="#f88a10" stroke="#f88a10" />
        <path d="m827.5 96.5-82-96.5-2 129.5z" fill="#f88a10" stroke="#f88a10" />
        <path d="m1146.8 32.5-250.2-32.5 102 87.5z" fill="#f99014" stroke="#f99014" />
        <path d="m998.6 87.5-102-87.5-59.1 126z" fill="#fc9c1d" stroke="#fc9c1d" />
        <path d="m1007.6 900 86.1-63.5-144.1-77z" fill="#f99014" stroke="#f99014" />
        <path d="m837.5 900h93l-61-164.5z" fill="#ef6c00" stroke="#ef6c00" />
        <path d="m314.2 296 79 131.5 54-53.5z" fill="#f17202" stroke="#f17202" />
        <path d="m447.2 374-54 53.5 87.1-12z" fill="#ef6c00" stroke="#ef6c00" />
        <path d="m817.5 0h-72l82 96.5z" fill="#f57e08" stroke="#f57e08" />
        <path d="m1292.8 496 25-72.5-165-80z" fill="#f88a10" stroke="#f88a10" />
        <path d="m393.2 427.5 25.1 207.5 129-88.5z" fill="#ffa726" stroke="#ffa726" />
        <path d="m930.5 900h77.1l-58-140.5z" fill="#f88a10" stroke="#f88a10" />
        <path d="m534.4 824.5 114.1-180-114.2 80z" fill="#f37804" stroke="#f37804" />
        <path d="m534.4 824.5-.1-100-13.9 5.5z" fill="#f6840c" stroke="#f6840c" />
        <path d="m418.3 635 34.9 91.5 67.2 3.5z" fill="#f99014" stroke="#f99014" />
        <path d="m453.2 726.5 81.2 98-14-94.5z" fill="#f17202" stroke="#f17202" />
        <path d="m1309.8 750.5 1-118.5-181.1 81z" fill="#f37804" stroke="#f37804" />
        <path d="m1292.8 496 85 31.5-60-104z" fill="#fea121" stroke="#fea121" />
        <path d="m1309.8 750.5-180.1-37.5 10.1 51z" fill="#f6840c" stroke="#f6840c" />
        <path d="m1007.6 900h64.1l22-63.5z" fill="#fea121" stroke="#fea121" />
        <path d="m1217.8 900 92-149.5-170 13.5z" fill="#f17202" stroke="#f17202" />
        <path d="m1168.7 0-21.9 32.5 100-32.5z" fill="#f37804" stroke="#f37804" />
        <path d="m1158.8 175-12-142.5-148.2 55z" fill="#fea121" stroke="#fea121" />
        <path d="m1146.8 32.5 12 142.5 88-175z" fill="#f99014" stroke="#f99014" />
        <path d="m745.5 0h-139.1l77 152.5z" fill="#f57e08" stroke="#f57e08" />
        <path d="m539.3 179-225.1 117 133 78z" fill="#f37804" stroke="#f37804" />
        <path d="m1310.8 632 67-104.5-85-31.5z" fill="#f99014" stroke="#f99014" />
        <path d="m1329.8 139-171 36 27.9 32.5z" fill="#f57e08" stroke="#f57e08" />
        <path d="m393.2 427.5-73 91 98.1 116.5z" fill="#fc9c1d" stroke="#fc9c1d" />
        <path d="m418.3 635-104.1 116 139-24.5z" fill="#f37804" stroke="#f37804" />
        <path d="m272.2 486.5 48 32 73-91z" fill="#fc9c1d" stroke="#fc9c1d" />
        <path d="m326.2 900 208.2-75.5-81.2-98z" fill="#f57e08" stroke="#f57e08" />
        <path d="m326.2 900h218.1l-9.9-75.5z" fill="#f88a10" stroke="#f88a10" />
        <path d="m534.4 824.5 9.9 75.5h145.1z" fill="#ffa726" stroke="#ffa726" />
        <path d="m1217.8 900-78-136-46.1 72.5z" fill="#f99014" stroke="#f99014" />
        <path d="m1310.8 632 212.1 15.5-145.1-120z" fill="#f6840c" stroke="#f6840c" />
        <path d="m1329.8 139-143.1 68.5 131.1 216z" fill="#fea121" stroke="#fea121" />
        <path d="m1146.8 32.5 21.9-32.5h-272.1z" fill="#ef6c00" stroke="#ef6c00" />
        <path d="m606.4 0-161.1 76.5 94 102.5z" fill="#f88a10" stroke="#f88a10" />
        <path d="m345.2 135.5-31 160.5 225.1-117z" fill="#f88a10" stroke="#f88a10" />
        <path d="m1505.9 286-176.1-147-12 284.5z" fill="#fb9619" stroke="#fb9619" />
        <path d="m1071.7 900h146.1l-124.1-63.5z" fill="#ffa726" stroke="#ffa726" />
        <path d="m272.2 486.5 36 168.5 12-136.5z" fill="#fc9c1d" stroke="#fc9c1d" />
        <path d="m320.2 518.5-12 136.5 110.1-20z" fill="#f17202" stroke="#f17202" />
        <path d="m250.2 396 22 90.5 121-59z" fill="#f17202" stroke="#f17202" />
        <path d="m1522.9 647.5-82.1-185.5-63 65.5z" fill="#fea121" stroke="#fea121" />
        <path d="m1377.8 527.5 63-65.5-123-38.5z" fill="#f37804" stroke="#f37804" />
        <path d="m445.3 76.5-100.1 59 194.1 43.5z" fill="#f37804" stroke="#f37804" />
        <path d="m314.2 296-64 100 143 31.5z" fill="#fb9619" stroke="#fb9619" />
        <path d="m1329.8 139-83-139-88 175z" fill="#f17202" stroke="#f17202" />
        <path d="m168.1 188.5 82.1 207.5 64-100z" fill="#f99014" stroke="#f99014" />
        <path d="m272.2 841.5-237.1-42 112.1 100.5z" fill="#f6840c" stroke="#f6840c" />
        <path d="m1217.8 900h47l45-149.5z" fill="#fc9c1d" stroke="#fc9c1d" />
        <path d="m1555.9 350.5-38 1.5 82.1 47.5z" fill="#f88a10" stroke="#f88a10" />
        <path d="m308.2 655 6 96 104.1-116z" fill="#fb9619" stroke="#fb9619" />
        <path d="m161.1 494.5 147.1 160.5-36-168.5z" fill="#ef6c00" stroke="#ef6c00" />
        <path d="m445.3 76.5-140.1-8 40 67z" fill="#fea121" stroke="#fea121" />
        <path d="m606.4 0h-179.1l18 76.5z" fill="#f57e08" stroke="#f57e08" />
        <path d="m345.2 135.5-73 49.5 42 111z" fill="#f57e08" stroke="#f57e08" />
        <path d="m305.2 68.5-33 116.5 73-49.5z" fill="#f6840c" stroke="#f6840c" />
        <path d="m1505.9 286-125.1-189.5-51 42.5z" fill="#ef6c00" stroke="#ef6c00" />
        <path d="m1329.8 139 4-139h-87z" fill="#ffa726" stroke="#ffa726" />
        <path d="m1380.8 96.5-47-96.5-4 139z" fill="#fb9619" stroke="#fb9619" />
        <path d="m427.3 0-122.1 68.5 140.1 8z" fill="#ffa726" stroke="#ffa726" />
        <path d="m168.1 188.5 146.1 107.5-42-111z" fill="#fc9c1d" stroke="#fc9c1d" />
        <path d="m87.1 280.5 93.1 149 70-33.5z" fill="#fea121" stroke="#fea121" />
        <path d="m250.2 396-70 33.5 92 57z" fill="#f6840c" stroke="#f6840c" />
        <path d="m1522.9 647.5-212.1-15.5-1 118.5z" fill="#f17202" stroke="#f17202" />
        <path d="m1440.8 462 77.1-110-200.1 71.5z" fill="#ef6c00" stroke="#ef6c00" />
        <path d="m1380.8 96.5 49.1-40-96.1-56.5z" fill="#ef6c00" stroke="#ef6c00" />
        <path d="m1517.9 352-12-66-188.1 137.5z" fill="#f99014" stroke="#f99014" />
        <path d="m272.2 841.5 54 58.5-12-149z" fill="#f17202" stroke="#f17202" />
        <path d="m314.2 751 12 149 127-173.5z" fill="#fb9619" stroke="#fb9619" />
        <path d="m180.2 429.5-19.1 65 111.1-8z" fill="#fc9c1d" stroke="#fc9c1d" />
        <path d="m272.2 841.5 42-90.5-279.1 48.5z" fill="#fb9619" stroke="#fb9619" />
        <path d="m1436.8 867.5 86.1-220-213.1 103z" fill="#f17202" stroke="#f17202" />
        <path d="m1505.9 286-76-229.5-49.1 40z" fill="#f88a10" stroke="#f88a10" />
        <path d="m1517.9 352 38-1.5-50-64.5z" fill="#fc9c1d" stroke="#fc9c1d" />
        <path d="m1505.9 286 94.1-138.5-170.1-91z" fill="#ffa726" stroke="#ffa726" />
        <path d="m1600 472.5-82.1-120.5-77.1 110z" fill="#f6840c" stroke="#f6840c" />
        <path d="m427.3 0h-135.1l13 68.5z" fill="#fc9c1d" stroke="#fc9c1d" />
        <path d="m142.1 147 26 41.5 104.1-3.5z" fill="#ef6c00" stroke="#ef6c00" />
        <path d="m180.2 429.5-132.1 4.5 113 60.5z" fill="#f99014" stroke="#f99014" />
        <path d="m1264.8 900 172-32.5-127-117z" fill="#f99014" stroke="#f99014" />
        <path d="m142.1 147 130.1 38 33-116.5z" fill="#fc9c1d" stroke="#fc9c1d" />
        <path d="m1436.8 867.5 120.1-179.5-34-40.5z" fill="#fb9619" stroke="#fb9619" />
        <path d="m1600 484v-11.5l-159.2-10.5z" fill="#f99014" stroke="#f99014" />
        <path d="m1600 484-159.2-22 82.1 185.5z" fill="#f6840c" stroke="#f6840c" />
        <path d="m1600 668v-184l-77.1 163.5z" fill="#f57e08" stroke="#f57e08" />
        <path d="m1600 472.5v-73l-82.1-47.5z" fill="#f37804" stroke="#f37804" />
        <path d="m1555.9 350.5 44.1-76.5-94.1 12z" fill="#f88a10" stroke="#f88a10" />
        <path d="m1600 399.5v-125.5l-44.1 76.5z" fill="#ef6c00" stroke="#ef6c00" />
        <path d="m206.1 0-64 147 163.1-78.5z" fill="#fea121" stroke="#fea121" />
        <path d="m168.1 188.5-81 92 163.1 115.5z" fill="#f37804" stroke="#f37804" />
        <path d="m1600 147.5-118.1-147.5-52 56.5z" fill="#f88a10" stroke="#f88a10" />
        <path d="m1429.9 56.5 52-56.5h-148.1z" fill="#fb9619" stroke="#fb9619" />
        <path d="m1600 780.5v-112.5l-43.1 20z" fill="#fea121" stroke="#fea121" />
        <path d="m1556.9 688 43.1-20-77.1-20.5z" fill="#fc9c1d" stroke="#fc9c1d" />
        <path d="m142.1 147-55 133.5 81-92z" fill="#ef6c00" stroke="#ef6c00" />
        <path d="m28.1 679 286.1 72-6-96z" fill="#ffa726" stroke="#ffa726" />
        <path d="m292.2 0h-86.1l99.1 68.5z" fill="#ef6c00" stroke="#ef6c00" />
        <path d="m1548.9 900-13-38.5-99.1 6z" fill="#f6840c" stroke="#f6840c" />
        <path d="m1436.8 867.5 99.1-6 21-173.5z" fill="#f57e08" stroke="#f57e08" />
        <path d="m87.1 280.5-39 153.5 132.1-4.5z" fill="#f17202" stroke="#f17202" />
        <path d="m1600 274v-126.5l-94.1 138.5z" fill="#f6840c" stroke="#f6840c" />
        <path d="m1535.9 861.5 64.1-81-43.1-92.5z" fill="#f37804" stroke="#f37804" />
        <path d="m1264.8 900h284.1l-112.1-32.5z" fill="#f88a10" stroke="#f88a10" />
        <path d="m1535.9 861.5 64.1 38.5v-119.5z" fill="#f99014" stroke="#f99014" />
        <path d="m206.1 0h-53.9l-10.1 147z" fill="#f57e08" stroke="#f57e08" />
        <path d="m0 188.5v120l87.1-28z" fill="#ef6c00" stroke="#ef6c00" />
        <path d="m0 308.5v110.5l48.1 15z" fill="#fea121" stroke="#fea121" />
        <path d="m28.1 679 280.1-24-147.1-160.5z" fill="#fc9c1d" stroke="#fc9c1d" />
        <path d="m272.2 841.5-125 58.5h179z" fill="#f37804" stroke="#f37804" />
        <path d="m0 308.5 48.1 125.5 39-153.5z" fill="#f6840c" stroke="#f6840c" />
        <path d="m48.1 434-48.1 65.5 161.1-5z" fill="#f57e08" stroke="#f57e08" />
        <path d="m0 419v80.5l48.1-65.5z" fill="#f99014" stroke="#f99014" />
        <path d="m0 499.5 28.1 179.5 133-184.5z" fill="#f37804" stroke="#f37804" />
        <path d="m0 188.5 87.1 92 55-133.5z" fill="#f17202" stroke="#f17202" />
        <path d="m1548.9 900h51.1l-64.1-38.5z" fill="#f6840c" stroke="#f6840c" />
        <path d="m1600 147.5v-147.5h-118.1z" fill="#ffa726" stroke="#ffa726" />
        <path d="m0 724 35.1 75.5-7-120.5z" fill="#ffa726" stroke="#ffa726" />
        <path d="m28.1 679 7 120.5 279.1-48.5z" fill="#f37804" stroke="#f37804" />
        <path d="m0 125v63.5l142.1-41.5z" fill="#f17202" stroke="#f17202" />
        <path d="m0 499.5v224.5l28.1-45z" fill="#fc9c1d" stroke="#fc9c1d" />
        <path d="m35.1 799.5 35 100.5h77.1z" fill="#ef6c00" stroke="#ef6c00" />
        <path d="m0 900h70.1l-35-100.5z" fill="#fb9619" stroke="#fb9619" />
        <path d="m0 724v46.5l35.1 29z" fill="#ffa726" stroke="#ffa726" />
        <path d="m152.2 0-152.2 125 142.1 22z" fill="#f88a10" stroke="#f88a10" />
        <path d="m0 770.5v129.5l35.1-100.5z" fill="#fc9c1d" stroke="#fc9c1d" />
        <path d="m152.2 0h-152.2v125z" fill="#f37804" stroke="#f37804" />
    </g>
</svg>