<svg height="720" viewBox="0 0 1280 720" width="1280" xmlns="http://www.w3.org/2000/svg">
    <g stroke-linejoin="bevel">
        <path d="m611.8 353 11.4 71 2.6-5z" fill="#f17202" stroke="#f17202" />
        <path d="m463.3 425 125.9 57 34-58z" fill="#fea121" stroke="#fea121" />
        <path d="m611.8 353-148.5 72 159.9-1z" fill="#fb9619" stroke="#fb9619" />
        <path d="m482.8 324-19.5 101 148.5-72z" fill="#f99014" stroke="#f99014" />
        <path d="m520.3 302-37.5 22 129 29z" fill="#f99014" stroke="#f99014" />
        <path d="m589.2 482 93.6-30-59.6-28z" fill="#f57e08" stroke="#f57e08" />
        <path d="m623.2 424 59.6 28-57-33z" fill="#fc9c1d" stroke="#fc9c1d" />
        <path d="m625.8 419 46.4-118-60.4 52z" fill="#f88a10" stroke="#f88a10" />
        <path d="m682.8 452-10.6-151-46.4 118z" fill="#fc9c1d" stroke="#fc9c1d" />
        <path d="m611.8 353-28.5-96-63 45z" fill="#f88a10" stroke="#f88a10" />
        <path d="m672.2 301-88.9-44 28.5 96z" fill="#f17202" stroke="#f17202" />
        <path d="m340.8 269 37 99 105-44z" fill="#ef6c00" stroke="#ef6c00" />
        <path d="m463.3 425-16 118 141.9-61z" fill="#f88a10" stroke="#f88a10" />
        <path d="m589.2 482 85.6 102 8-132z" fill="#fb9619" stroke="#fb9619" />
        <path d="m340.8 269 142 55-139.4-93z" fill="#f17202" stroke="#f17202" />
        <path d="m482.8 324-105 44 85.5 57z" fill="#fc9c1d" stroke="#fc9c1d" />
        <path d="m463.3 425-29.5 112 13.5 6z" fill="#fb9619" stroke="#fb9619" />
        <path d="m413.8 536 20 1 29.5-112z" fill="#fc9c1d" stroke="#fc9c1d" />
        <path d="m682.8 452 79.4-133-90-18z" fill="#fb9619" stroke="#fb9619" />
        <path d="m672.2 301-56-113-32.9 69z" fill="#fc9c1d" stroke="#fc9c1d" />
        <path d="m644.8 155-28.6 33 56 113z" fill="#ffa726" stroke="#ffa726" />
        <path d="m583.3 257-34-131-29 176z" fill="#fc9c1d" stroke="#fc9c1d" />
        <path d="m370.4 533 43.4 3 49.5-111z" fill="#f6840c" stroke="#f6840c" />
        <path d="m433.8 537-20-1 33.5 7z" fill="#fc9c1d" stroke="#fc9c1d" />
        <path d="m669.8 629 5-45-85.6-102z" fill="#fea121" stroke="#fea121" />
        <path d="m682.8 452 157.4-2-78-131z" fill="#f88a10" stroke="#f88a10" />
        <path d="m674.8 584 46.4-18-38.4-114z" fill="#f6840c" stroke="#f6840c" />
        <path d="m413.8 536-27.4 84 60.9-77z" fill="#f17202" stroke="#f17202" />
        <path d="m447.3 543 222.5 86-80.6-147z" fill="#ef6c00" stroke="#ef6c00" />
        <path d="m313.4 426 57 107 92.9-108z" fill="#f57e08" stroke="#f57e08" />
        <path d="m835.7 256-54 7-19.5 56z" fill="#ffa726" stroke="#ffa726" />
        <path d="m762.2 319 19.5-56-109.5 38z" fill="#f57e08" stroke="#f57e08" />
        <path d="m781.7 263-136.9-108 27.4 146z" fill="#ffa726" stroke="#ffa726" />
        <path d="m343.4 231 139.4 93 37.5-22z" fill="#fb9619" stroke="#fb9619" />
        <path d="m499.3 720 170.5-91-222.5-86z" fill="#ffa726" stroke="#ffa726" />
        <path d="m674.8 584-5 45 51.4-63z" fill="#f37804" stroke="#f37804" />
        <path d="m644.8 155-12.6-9-16 42z" fill="#ef6c00" stroke="#ef6c00" />
        <path d="m729.2 720 63.5-185-71.5 31z" fill="#f37804" stroke="#f37804" />
        <path d="m721.2 566 71.5-31-109.9-83z" fill="#f88a10" stroke="#f88a10" />
        <path d="m377.8 368-64.4 58 149.9-1z" fill="#f57e08" stroke="#f57e08" />
        <path d="m549.3 126 34 131 32.9-69z" fill="#ef6c00" stroke="#ef6c00" />
        <path d="m377.8 368-91.9-58 27.5 116z" fill="#f37804" stroke="#f37804" />
        <path d="m632.2 146-82.9-20 66.9 62z" fill="#f17202" stroke="#f17202" />
        <path d="m792.7 535 47.5-85-157.4 2z" fill="#f57e08" stroke="#f57e08" />
        <path d="m937.6 541-118.9-19 66 198z" fill="#fc9c1d" stroke="#fc9c1d" />
        <path d="m792.7 535 26-13 21.5-72z" fill="#ffa726" stroke="#ffa726" />
        <path d="m368.4 135-25 96 176.9 71z" fill="#fc9c1d" stroke="#fc9c1d" />
        <path d="m340.8 269-54.9 41 91.9 58z" fill="#f57e08" stroke="#f57e08" />
        <path d="m632.2 146-86.4-36 3.5 16z" fill="#ef6c00" stroke="#ef6c00" />
        <path d="m549.3 126-69.5-32 40.5 208z" fill="#f88a10" stroke="#f88a10" />
        <path d="m369.8 644 16.6-24-16-87z" fill="#f88a10" stroke="#f88a10" />
        <path d="m370.4 533 16 87 27.4-84z" fill="#ef6c00" stroke="#ef6c00" />
        <path d="m865.2 328-29.5-72-73.5 63z" fill="#f57e08" stroke="#f57e08" />
        <path d="m781.7 263 57-139-193.9 31z" fill="#f99014" stroke="#f99014" />
        <path d="m644.8 155-1-155-11.6 146z" fill="#fea121" stroke="#fea121" />
        <path d="m876.7 389-11.5-61-103-9z" fill="#fb9619" stroke="#fb9619" />
        <path d="m322.4 216-36.5 94 54.9-41z" fill="#fea121" stroke="#fea121" />
        <path d="m840.2 450 36.5-61-114.5-70z" fill="#f17202" stroke="#f17202" />
        <path d="m891.6 444-14.9-55-36.5 61z" fill="#f99014" stroke="#f99014" />
        <path d="m368.4 135-46 81 21 15z" fill="#f17202" stroke="#f17202" />
        <path d="m343.4 231-21-15 18.4 53z" fill="#fb9619" stroke="#fb9619" />
        <path d="m545.8 110-66-16 69.5 32z" fill="#f37804" stroke="#f37804" />
        <path d="m215.9 599 153.9 45 .6-111z" fill="#f57e08" stroke="#f57e08" />
        <path d="m453.3 710 46 10-52-177z" fill="#fc9c1d" stroke="#fc9c1d" />
        <path d="m885.6 482 6-38-51.4 6z" fill="#fea121" stroke="#fea121" />
        <path d="m876.7 389 17.9-21-29.4-40z" fill="#f37804" stroke="#f37804" />
        <path d="m891.6 444 3-76-17.9 21z" fill="#f99014" stroke="#f99014" />
        <path d="m884.7 170-33.5 15-15.5 71z" fill="#f6840c" stroke="#f6840c" />
        <path d="m818.7 522 66.9-40-45.4-32z" fill="#fc9c1d" stroke="#fc9c1d" />
        <path d="m937.6 541-52-59-66.9 40z" fill="#f37804" stroke="#f37804" />
        <path d="m479.8 94-111.4 41 151.9 167z" fill="#f17202" stroke="#f17202" />
        <path d="m453.3 710-6-167-60.9 77z" fill="#f17202" stroke="#f17202" />
        <path d="m369.8 644 83.5 66-66.9-90z" fill="#f99014" stroke="#f99014" />
        <path d="m499.3 720h181.5l-11-91z" fill="#fb9619" stroke="#fb9619" />
        <path d="m669.8 629 59.4 91-8-154z" fill="#ef6c00" stroke="#ef6c00" />
        <path d="m479.8 94-80.5 6-30.9 35z" fill="#fea121" stroke="#fea121" />
        <path d="m884.7 170-49 86 166.9-49z" fill="#f57e08" stroke="#f57e08" />
        <path d="m835.7 256 15.5-71-69.5 78z" fill="#f37804" stroke="#f37804" />
        <path d="m632.2 146 11.6-146-98 110z" fill="#ef6c00" stroke="#ef6c00" />
        <path d="m680.8 720h48.4l-59.4-91z" fill="#fc9c1d" stroke="#fc9c1d" />
        <path d="m453.3 710-39.5 10h85.5z" fill="#f6840c" stroke="#f6840c" />
        <path d="m369.8 644 44 76 39.5-10z" fill="#f6840c" stroke="#f6840c" />
        <path d="m346.4 0-51.5 159 73.5-24z" fill="#f57e08" stroke="#f57e08" />
        <path d="m368.4 135-73.5 24 27.5 57z" fill="#ef6c00" stroke="#ef6c00" />
        <path d="m322.4 216-137.5-46 101 140z" fill="#fb9619" stroke="#fb9619" />
        <path d="m142.5 410 87.4 116 83.5-100z" fill="#f88a10" stroke="#f88a10" />
        <path d="m313.4 426-83.5 100 140.5 7z" fill="#fea121" stroke="#fea121" />
        <path d="m369.8 644-22.4 76h66.4z" fill="#f57e08" stroke="#f57e08" />
        <path d="m204.4 580 25.5-54-87.4-116z" fill="#fea121" stroke="#fea121" />
        <path d="m204.4 580 22.5-39 3-15z" fill="#ffa726" stroke="#ffa726" />
        <path d="m229.9 526-3 15 143.5-8z" fill="#fea121" stroke="#fea121" />
        <path d="m884.7 170-46-46 12.5 61z" fill="#ef6c00" stroke="#ef6c00" />
        <path d="m851.2 185-12.5-61-57 139z" fill="#f37804" stroke="#f37804" />
        <path d="m545.8 110-106.5-110 40.5 94z" fill="#fea121" stroke="#fea121" />
        <path d="m1002.6 207-166.9 49 29.5 72z" fill="#ffa726" stroke="#ffa726" />
        <path d="m891.6 444 71.6-83-68.6 7z" fill="#f6840c" stroke="#f6840c" />
        <path d="m894.6 368 68.6-7-98-33z" fill="#f57e08" stroke="#f57e08" />
        <path d="m1087.5 438-124.3-77-71.6 83z" fill="#f37804" stroke="#f37804" />
        <path d="m969.2 572-31.6-31 34.6 102z" fill="#fb9619" stroke="#fb9619" />
        <path d="m885.6 482 52 59-46-97z" fill="#f57e08" stroke="#f57e08" />
        <path d="m286.9 720h60.5l22.4-76z" fill="#f6840c" stroke="#f6840c" />
        <path d="m738.7 0h-94.9l1 155z" fill="#f88a10" stroke="#f88a10" />
        <path d="m479.8 94-40.5-94-40 100z" fill="#fea121" stroke="#fea121" />
        <path d="m226.9 541-11 58 154.5-66z" fill="#ef6c00" stroke="#ef6c00" />
        <path d="m204.4 580 11.5 19 11-58z" fill="#fea121" stroke="#fea121" />
        <path d="m142.5 410 170.9 16-27.5-116z" fill="#fc9c1d" stroke="#fc9c1d" />
        <path d="m643.8 0h-204.5l106.5 110z" fill="#f6840c" stroke="#f6840c" />
        <path d="m399.3 100-52.9-100 22 135z" fill="#ffa726" stroke="#ffa726" />
        <path d="m838.7 124-100-124-93.9 155z" fill="#fc9c1d" stroke="#fc9c1d" />
        <path d="m770.2 0h-31.5l100 124z" fill="#fc9c1d" stroke="#fc9c1d" />
        <path d="m1002.6 207-96.4-83-21.5 46z" fill="#ffa726" stroke="#ffa726" />
        <path d="m884.7 170 21.5-46h-67.5z" fill="#fc9c1d" stroke="#fc9c1d" />
        <path d="m184.9 170-42.4 240 143.4-100z" fill="#f6840c" stroke="#f6840c" />
        <path d="m195.5 708 91.4 12-71-121z" fill="#fea121" stroke="#fea121" />
        <path d="m215.9 599 71 121 82.9-76z" fill="#f88a10" stroke="#f88a10" />
        <path d="m884.7 720-66-198-26 13z" fill="#fc9c1d" stroke="#fc9c1d" />
        <path d="m937.6 541 149.9-103-195.9 6z" fill="#f37804" stroke="#f37804" />
        <path d="m439.3 0h-59.5l19.5 100z" fill="#f37804" stroke="#f37804" />
        <path d="m294.9 159-110 11 137.5 46z" fill="#fc9c1d" stroke="#fc9c1d" />
        <path d="m947.6 0h-177.4l68.5 124z" fill="#fc9c1d" stroke="#fc9c1d" />
        <path d="m167.5 0 17.4 170 110-11z" fill="#fb9619" stroke="#fb9619" />
        <path d="m729.2 720h155.5l-92-185z" fill="#ffa726" stroke="#ffa726" />
        <path d="m379.8 0h-33.4l52.9 100z" fill="#ef6c00" stroke="#ef6c00" />
        <path d="m972.2 643 28.9-63-31.9-8z" fill="#f6840c" stroke="#f6840c" />
        <path d="m969.2 572 31.9 8-63.5-39z" fill="#f88a10" stroke="#f88a10" />
        <path d="m1027.1 263-161.9 65 98 33z" fill="#f88a10" stroke="#f88a10" />
        <path d="m1027.1 263-24.5-56-137.4 121z" fill="#fc9c1d" stroke="#fc9c1d" />
        <path d="m906.2 124 41.4-124-108.9 124z" fill="#f17202" stroke="#f17202" />
        <path d="m884.7 720 87.5-77-34.6-102z" fill="#f6840c" stroke="#f6840c" />
        <path d="m1054.6 255-27.5 8 76.4 12z" fill="#ffa726" stroke="#ffa726" />
        <path d="m204.4 580-8.9 128 20.4-109z" fill="#ffa726" stroke="#ffa726" />
        <path d="m26.5 605 169 103 8.9-128z" fill="#fea121" stroke="#fea121" />
        <path d="m1103.5 275-76.4-12-63.9 98z" fill="#f6840c" stroke="#f6840c" />
        <path d="m1027.1 263 27.5-8-52-48z" fill="#ffa726" stroke="#ffa726" />
        <path d="m884.7 720h86.5l1-77z" fill="#fb9619" stroke="#fb9619" />
        <path d="m972.2 643 92.9 77-64-140z" fill="#ef6c00" stroke="#ef6c00" />
        <path d="m1112.1 465-24.6-27-86.4 142z" fill="#fc9c1d" stroke="#fc9c1d" />
        <path d="m1001.1 580 86.4-142-149.9 103z" fill="#ffa726" stroke="#ffa726" />
        <path d="m971.2 720h23.4l-22.4-77z" fill="#f37804" stroke="#f37804" />
        <path d="m1103.5 275-34.4-99-14.5 79z" fill="#f88a10" stroke="#f88a10" />
        <path d="m1054.6 255 14.5-79-66.5 31z" fill="#f37804" stroke="#f37804" />
        <path d="m1002.6 207 66.5-31-162.9-52z" fill="#ef6c00" stroke="#ef6c00" />
        <path d="m1114.1 546-2-81-111 115z" fill="#ffa726" stroke="#ffa726" />
        <path d="m1087.5 438 16-163-140.3 86z" fill="#f88a10" stroke="#f88a10" />
        <path d="m1142.5 304-39-29-16 163z" fill="#fb9619" stroke="#fb9619" />
        <path d="m971.2 0h-23.6l-41.4 124z" fill="#fc9c1d" stroke="#fc9c1d" />
        <path d="m107.9 112-51.4 112 128.4-54z" fill="#f57e08" stroke="#f57e08" />
        <path d="m184.9 170-128.4 54 86 186z" fill="#f6840c" stroke="#f6840c" />
        <path d="m0 520 26.5 85 177.9-25z" fill="#fb9619" stroke="#fb9619" />
        <path d="m167.5 0-59.6 112 77 58z" fill="#f37804" stroke="#f37804" />
        <path d="m0 134 46.5 92 10-2z" fill="#f17202" stroke="#f17202" />
        <path d="m56.5 224-43 88 129 98z" fill="#f17202" stroke="#f17202" />
        <path d="m1158.5 240-77.4-75-12 11z" fill="#fb9619" stroke="#fb9619" />
        <path d="m1009.1 0h-37.9l-65 124z" fill="#fea121" stroke="#fea121" />
        <path d="m1009.1 0-102.9 124 162.9 52z" fill="#fb9619" stroke="#fb9619" />
        <path d="m1083.5 720 30.6-174-113 34z" fill="#fc9c1d" stroke="#fc9c1d" />
        <path d="m46.5 226-33 86 43-88z" fill="#f37804" stroke="#f37804" />
        <path d="m346.4 0h-178.9l127.4 159z" fill="#f37804" stroke="#f37804" />
        <path d="m0 134v151l46.5-59z" fill="#f99014" stroke="#f99014" />
        <path d="m13.5 312-13.5 52 142.5 46z" fill="#f57e08" stroke="#f57e08" />
        <path d="m1114.1 546 26.4-49-28.4-32z" fill="#fb9619" stroke="#fb9619" />
        <path d="m1112.1 465 30.4-161-55 134z" fill="#f57e08" stroke="#f57e08" />
        <path d="m1103.5 275 55-35-89.4-64z" fill="#ef6c00" stroke="#ef6c00" />
        <path d="m1280 423-137.5-119-30.4 161z" fill="#ef6c00" stroke="#ef6c00" />
        <path d="m0 285v47l13.5-20z" fill="#f6840c" stroke="#f6840c" />
        <path d="m13.5 312-13.5 20v32z" fill="#ef6c00" stroke="#ef6c00" />
        <path d="m0 134 56.5 90 51.4-112z" fill="#f6840c" stroke="#f6840c" />
        <path d="m46.5 226-46.5 59 13.5 27z" fill="#fc9c1d" stroke="#fc9c1d" />
        <path d="m0 520 204.4 60-61.9-170z" fill="#f88a10" stroke="#f88a10" />
        <path d="m167.5 0h-26.6l-33 112z" fill="#f37804" stroke="#f37804" />
        <path d="m0 364v156l142.5-110z" fill="#fc9c1d" stroke="#fc9c1d" />
        <path d="m1062.6 17-53.5-17 60 176z" fill="#f99014" stroke="#f99014" />
        <path d="m1062.6 17 6.5 159 12-11z" fill="#f37804" stroke="#f37804" />
        <path d="m994.6 720h70.5l-92.9-77z" fill="#fea121" stroke="#fea121" />
        <path d="m1280 470v-47l-139.5 74z" fill="#f88a10" stroke="#f88a10" />
        <path d="m1065.1 720h18.4l-82.4-140z" fill="#f99014" stroke="#f99014" />
        <path d="m1223.5 178-65 62 121.5-28z" fill="#fc9c1d" stroke="#fc9c1d" />
        <path d="m1142.5 304 16-64-55 35z" fill="#fb9619" stroke="#fb9619" />
        <path d="m1165.1 102-102.5-85 18.5 148z" fill="#ef6c00" stroke="#ef6c00" />
        <path d="m0 520v120l26.5-35z" fill="#f88a10" stroke="#f88a10" />
        <path d="m26.5 605-4 115 173-12z" fill="#f99014" stroke="#f99014" />
        <path d="m6.5 119-6.5 15 107.9-22z" fill="#ffa726" stroke="#ffa726" />
        <path d="m0 93 6.5 26 101.4-7z" fill="#ffa726" stroke="#ffa726" />
        <path d="m0 640 22.5 80 4-115z" fill="#f17202" stroke="#f17202" />
        <path d="m195.5 708-173 12h264.4z" fill="#f99014" stroke="#f99014" />
        <path d="m0 0v93l107.9 19z" fill="#f99014" stroke="#f99014" />
        <path d="m6.5 119-6.5-26v41z" fill="#fb9619" stroke="#fb9619" />
        <path d="m0 640v80h22.5z" fill="#ef6c00" stroke="#ef6c00" />
        <path d="m1158.5 240 6.6-138-84 63z" fill="#fc9c1d" stroke="#fc9c1d" />
        <path d="m1280 212-121.5 28-16 64z" fill="#ffa726" stroke="#ffa726" />
        <path d="m1158.5 240 65-62-58.4-76z" fill="#f17202" stroke="#f17202" />
        <path d="m1280 423-167.9 42 28.4 32z" fill="#fea121" stroke="#fea121" />
        <path d="m140.9 0h-140.9l107.9 112z" fill="#f88a10" stroke="#f88a10" />
        <path d="m1280 470-139.5 27 139.5 34z" fill="#f6840c" stroke="#f6840c" />
        <path d="m1257.5 601-117-104-26.4 49z" fill="#f37804" stroke="#f37804" />
        <path d="m1083.5 720 174-119-143.4-55z" fill="#fb9619" stroke="#fb9619" />
        <path d="m1257.5 601 22.5-70-139.5-34z" fill="#f88a10" stroke="#f88a10" />
        <path d="m1280 423v-211l-137.5 92z" fill="#f17202" stroke="#f17202" />
        <path d="m1280 50-78.5-50-36.4 102z" fill="#f6840c" stroke="#f6840c" />
        <path d="m1165.1 102 36.4-102-138.9 17z" fill="#fc9c1d" stroke="#fc9c1d" />
        <path d="m1062.6 17 138.9-17h-192.4z" fill="#ffa726" stroke="#ffa726" />
        <path d="m1280 134-114.9-32 58.4 76z" fill="#f57e08" stroke="#f57e08" />
        <path d="m1280 212v-78l-56.5 44z" fill="#f17202" stroke="#f17202" />
        <path d="m1083.5 720 196.5-50-22.5-69z" fill="#f17202" stroke="#f17202" />
        <path d="m1257.5 601 22.5 69v-139z" fill="#f57e08" stroke="#f57e08" />
        <path d="m1083.5 720h196.5v-50z" fill="#f88a10" stroke="#f88a10" />
        <path d="m1280 134v-84l-114.9 52z" fill="#fea121" stroke="#fea121" />
        <path d="m1280 50v-50h-78.5z" fill="#f37804" stroke="#f37804" />
    </g>
</svg>