<svg id="visual" viewBox="0 0 1440 900" width="1440" height="900" xmlns="http://www.w3.org/2000/svg" version="1.1">
    <g stroke-width="1" stroke-linejoin="bevel">
        <path d="M706.6 445L804.2 377L693.4 408Z" fill="#ef6c00" stroke="#ef6c00"></path>
        <path d="M917.2 424L834.2 366L804.2 377Z" fill="#fc9c1d" stroke="#fc9c1d"></path>
        <path d="M804.2 377L701.6 256L693.4 408Z" fill="#f37804" stroke="#f37804"></path>
        <path d="M834.2 366L817.4 313L804.2 377Z" fill="#fb9619" stroke="#fb9619"></path>
        <path d="M701.6 256L616.6 380L693.4 408Z" fill="#f6840c" stroke="#f6840c"></path>
        <path d="M693.4 408L616.6 380L706.6 445Z" fill="#ffa726" stroke="#ffa726"></path>
        <path d="M817.4 313L701.6 256L804.2 377Z" fill="#fea121" stroke="#fea121"></path>
        <path d="M724.4 571L726.4 568L706.6 445Z" fill="#ef6c00" stroke="#ef6c00"></path>
        <path d="M706.6 445L850.2 545L804.2 377Z" fill="#fc9c1d" stroke="#fc9c1d"></path>
        <path d="M917.9 426L917.2 424L804.2 377Z" fill="#f37804" stroke="#f37804"></path>
        <path d="M957.9 253L917.9 219L817.4 313Z" fill="#f88a10" stroke="#f88a10"></path>
        <path d="M545.8 434L724.4 571L706.6 445Z" fill="#fb9619" stroke="#fb9619"></path>
        <path d="M850.2 545L917.9 426L804.2 377Z" fill="#ef6c00" stroke="#ef6c00"></path>
        <path d="M850.2 545L706.6 445L726.4 568Z" fill="#fb9619" stroke="#fb9619"></path>
        <path d="M868.2 641L850.2 545L726.4 568Z" fill="#ef6c00" stroke="#ef6c00"></path>
        <path d="M701.6 256L569.8 346L616.6 380Z" fill="#f6840c" stroke="#f6840c"></path>
        <path d="M616.6 380L545.8 434L706.6 445Z" fill="#fea121" stroke="#fea121"></path>
        <path d="M569.8 346L545.8 434L616.6 380Z" fill="#f6840c" stroke="#f6840c"></path>
        <path d="M684.4 119L649.6 199L701.6 256Z" fill="#f57e08" stroke="#f57e08"></path>
        <path d="M701.6 256L649.6 199L569.8 346Z" fill="#ffa726" stroke="#ffa726"></path>
        <path d="M957.9 253L817.4 313L834.2 366Z" fill="#f6840c" stroke="#f6840c"></path>
        <path d="M817.4 313L787.2 86L701.6 256Z" fill="#ef6c00" stroke="#ef6c00"></path>
        <path d="M957.9 253L834.2 366L917.2 424Z" fill="#f57e08" stroke="#f57e08"></path>
        <path d="M1065.9 391L957.9 253L917.2 424Z" fill="#ffa726" stroke="#ffa726"></path>
        <path d="M724.4 571L868.2 641L726.4 568Z" fill="#f99014" stroke="#f99014"></path>
        <path d="M850.2 545L1047.9 515L917.9 426Z" fill="#f99014" stroke="#f99014"></path>
        <path d="M957.9 253L943.2 229L917.9 219Z" fill="#f57e08" stroke="#f57e08"></path>
        <path d="M569.8 346L488.1 446L545.8 434Z" fill="#ffa726" stroke="#ffa726"></path>
        <path d="M545.8 434L565.6 628L724.4 571Z" fill="#fea121" stroke="#fea121"></path>
        <path d="M458.1 456L488.1 446L474.1 294Z" fill="#f37804" stroke="#f37804"></path>
        <path d="M497.8 607L565.6 628L545.8 434Z" fill="#ffa726" stroke="#ffa726"></path>
        <path d="M814.4 722L833.2 717L868.2 641Z" fill="#f88a10" stroke="#f88a10"></path>
        <path d="M787.2 86L684.4 119L701.6 256Z" fill="#f99014" stroke="#f99014"></path>
        <path d="M474.1 294L488.1 446L569.8 346Z" fill="#ffa726" stroke="#ffa726"></path>
        <path d="M787.2 86L817.4 313L917.9 219Z" fill="#f88a10" stroke="#f88a10"></path>
        <path d="M474.1 294L569.8 346L480.8 234Z" fill="#f57e08" stroke="#f57e08"></path>
        <path d="M488.1 446L456.8 485L545.8 434Z" fill="#fb9619" stroke="#fb9619"></path>
        <path d="M480.8 234L569.8 346L649.6 199Z" fill="#fc9c1d" stroke="#fc9c1d"></path>
        <path d="M565.6 628L620.6 680L724.4 571Z" fill="#f17202" stroke="#f17202"></path>
        <path d="M458.1 456L456.8 485L488.1 446Z" fill="#f17202" stroke="#f17202"></path>
        <path d="M1047.9 515L1065.9 391L917.9 426Z" fill="#ef6c00" stroke="#ef6c00"></path>
        <path d="M917.9 426L1065.9 391L917.2 424Z" fill="#fea121" stroke="#fea121"></path>
        <path d="M957.9 253L1022.7 115L943.2 229Z" fill="#fea121" stroke="#fea121"></path>
        <path d="M868.2 641L1047.9 515L850.2 545Z" fill="#f57e08" stroke="#f57e08"></path>
        <path d="M814.4 722L868.2 641L724.4 571Z" fill="#ffa726" stroke="#ffa726"></path>
        <path d="M868.2 641L1072.7 582L1047.9 515Z" fill="#fea121" stroke="#fea121"></path>
        <path d="M620.6 680L814.4 722L724.4 571Z" fill="#fb9619" stroke="#fb9619"></path>
        <path d="M488.1 203L480.8 234L649.6 199Z" fill="#f88a10" stroke="#f88a10"></path>
        <path d="M800.4 26L851.2 0L823.4 0Z" fill="#f57e08" stroke="#f57e08"></path>
        <path d="M456.8 485L497.8 607L545.8 434Z" fill="#f6840c" stroke="#f6840c"></path>
        <path d="M565.6 628L514.1 729L620.6 680Z" fill="#f17202" stroke="#f17202"></path>
        <path d="M684.4 119L577.8 127L649.6 199Z" fill="#f57e08" stroke="#f57e08"></path>
        <path d="M698.6 0L577.8 127L684.4 119Z" fill="#f37804" stroke="#f37804"></path>
        <path d="M577.8 127L488.1 203L649.6 199Z" fill="#ffa726" stroke="#ffa726"></path>
        <path d="M423.3 542L501.8 637L497.8 607Z" fill="#ef6c00" stroke="#ef6c00"></path>
        <path d="M497.8 607L501.8 637L565.6 628Z" fill="#f57e08" stroke="#f57e08"></path>
        <path d="M403.3 457L421.1 503L456.8 485Z" fill="#f88a10" stroke="#f88a10"></path>
        <path d="M456.8 485L423.3 542L497.8 607Z" fill="#fea121" stroke="#fea121"></path>
        <path d="M403.3 457L456.8 485L458.1 456Z" fill="#f57e08" stroke="#f57e08"></path>
        <path d="M405.3 447L458.1 456L474.1 294Z" fill="#f88a10" stroke="#f88a10"></path>
        <path d="M319.5 234L405.3 447L474.1 294Z" fill="#f17202" stroke="#f17202"></path>
        <path d="M426.3 227L474.1 294L480.8 234Z" fill="#f99014" stroke="#f99014"></path>
        <path d="M514.1 729L639.8 741L620.6 680Z" fill="#f37804" stroke="#f37804"></path>
        <path d="M620.6 680L639.8 741L814.4 722Z" fill="#f37804" stroke="#f37804"></path>
        <path d="M405.3 447L403.3 457L458.1 456Z" fill="#f57e08" stroke="#f57e08"></path>
        <path d="M187.5 589L423.3 542L421.1 503Z" fill="#ffa726" stroke="#ffa726"></path>
        <path d="M421.1 503L423.3 542L456.8 485Z" fill="#f88a10" stroke="#f88a10"></path>
        <path d="M1006.9 691L1072.7 582L868.2 641Z" fill="#f6840c" stroke="#f6840c"></path>
        <path d="M1047.9 515L1154.7 425L1065.9 391Z" fill="#f6840c" stroke="#f6840c"></path>
        <path d="M800.4 26L763.6 39L787.2 86Z" fill="#f99014" stroke="#f99014"></path>
        <path d="M787.2 86L763.6 39L684.4 119Z" fill="#f99014" stroke="#f99014"></path>
        <path d="M386.3 30L426.3 227L488.1 203Z" fill="#f17202" stroke="#f17202"></path>
        <path d="M488.1 203L426.3 227L480.8 234Z" fill="#f99014" stroke="#f99014"></path>
        <path d="M405.3 447L237.3 334L403.3 457Z" fill="#fea121" stroke="#fea121"></path>
        <path d="M922.9 784L1006.9 691L868.2 641Z" fill="#ef6c00" stroke="#ef6c00"></path>
        <path d="M922.9 784L868.2 641L833.2 717Z" fill="#f6840c" stroke="#f6840c"></path>
        <path d="M851.2 0L787.2 86L899.9 0Z" fill="#fb9619" stroke="#fb9619"></path>
        <path d="M1022.7 115L917.9 219L943.2 229Z" fill="#ffa726" stroke="#ffa726"></path>
        <path d="M1137.5 191L1022.7 115L957.9 253Z" fill="#f57e08" stroke="#f57e08"></path>
        <path d="M323.3 734L514.1 729L501.8 637Z" fill="#fb9619" stroke="#fb9619"></path>
        <path d="M501.8 637L514.1 729L565.6 628Z" fill="#f6840c" stroke="#f6840c"></path>
        <path d="M1168.5 431L1154.7 425L1147.7 575Z" fill="#f99014" stroke="#f99014"></path>
        <path d="M1173.5 256L1137.5 191L957.9 253Z" fill="#fc9c1d" stroke="#fc9c1d"></path>
        <path d="M800.4 26L698.6 0L763.6 39Z" fill="#f6840c" stroke="#f6840c"></path>
        <path d="M763.6 39L698.6 0L684.4 119Z" fill="#f17202" stroke="#f17202"></path>
        <path d="M577.8 127L457.1 22L488.1 203Z" fill="#fb9619" stroke="#fb9619"></path>
        <path d="M833.4 900L922.9 784L814.4 722Z" fill="#f88a10" stroke="#f88a10"></path>
        <path d="M814.4 722L922.9 784L833.2 717Z" fill="#f99014" stroke="#f99014"></path>
        <path d="M715.4 840L814.4 722L639.8 741Z" fill="#ffa726" stroke="#ffa726"></path>
        <path d="M851.2 0L800.4 26L787.2 86Z" fill="#fc9c1d" stroke="#fc9c1d"></path>
        <path d="M800.4 26L823.4 0L698.6 0Z" fill="#f57e08" stroke="#f57e08"></path>
        <path d="M1147.7 575L1154.7 425L1047.9 515Z" fill="#f6840c" stroke="#f6840c"></path>
        <path d="M1154.7 425L1173.7 342L1065.9 391Z" fill="#fb9619" stroke="#fb9619"></path>
        <path d="M1147.7 575L1047.9 515L1072.7 582Z" fill="#fea121" stroke="#fea121"></path>
        <path d="M899.9 0L787.2 86L917.9 219Z" fill="#ef6c00" stroke="#ef6c00"></path>
        <path d="M1168.5 431L1173.7 342L1154.7 425Z" fill="#ef6c00" stroke="#ef6c00"></path>
        <path d="M1006.9 691L1147.7 575L1072.7 582Z" fill="#ffa726" stroke="#ffa726"></path>
        <path d="M1188.5 562L1147.7 575L1264.2 598Z" fill="#fc9c1d" stroke="#fc9c1d"></path>
        <path d="M1162.7 141L1019.9 71L1022.7 115Z" fill="#f6840c" stroke="#f6840c"></path>
        <path d="M1022.7 115L899.9 0L917.9 219Z" fill="#fea121" stroke="#fea121"></path>
        <path d="M1019.9 71L899.9 0L1022.7 115Z" fill="#fc9c1d" stroke="#fc9c1d"></path>
        <path d="M690.6 853L715.4 840L639.8 741Z" fill="#fea121" stroke="#fea121"></path>
        <path d="M1173.5 256L957.9 253L1065.9 391Z" fill="#f37804" stroke="#f37804"></path>
        <path d="M1173.7 342L1173.5 256L1065.9 391Z" fill="#fea121" stroke="#fea121"></path>
        <path d="M623.8 900L690.6 853L639.8 741Z" fill="#f99014" stroke="#f99014"></path>
        <path d="M988.9 900L1036.7 790L922.9 784Z" fill="#fb9619" stroke="#fb9619"></path>
        <path d="M698.6 0L549.8 0L577.8 127Z" fill="#f99014" stroke="#f99014"></path>
        <path d="M1203.5 791L1147.7 575L1006.9 691Z" fill="#f88a10" stroke="#f88a10"></path>
        <path d="M1147.7 575L1188.5 562L1168.5 431Z" fill="#ffa726" stroke="#ffa726"></path>
        <path d="M1168.5 431L1269.2 373L1173.7 342Z" fill="#f99014" stroke="#f99014"></path>
        <path d="M1173.7 342L1269.2 373L1173.5 256Z" fill="#fea121" stroke="#fea121"></path>
        <path d="M386.3 30L319.5 234L426.3 227Z" fill="#f88a10" stroke="#f88a10"></path>
        <path d="M426.3 227L319.5 234L474.1 294Z" fill="#f57e08" stroke="#f57e08"></path>
        <path d="M187.5 589L273.3 686L423.3 542Z" fill="#fea121" stroke="#fea121"></path>
        <path d="M323.3 734L505.1 812L514.1 729Z" fill="#fb9619" stroke="#fb9619"></path>
        <path d="M514.1 729L505.1 812L639.8 741Z" fill="#f37804" stroke="#f37804"></path>
        <path d="M323.3 734L501.8 637L423.3 542Z" fill="#f99014" stroke="#f99014"></path>
        <path d="M549.8 0L507.1 0L577.8 127Z" fill="#fc9c1d" stroke="#fc9c1d"></path>
        <path d="M833.4 900L814.4 722L715.4 840Z" fill="#f6840c" stroke="#f6840c"></path>
        <path d="M922.9 784L1036.7 790L1006.9 691Z" fill="#ef6c00" stroke="#ef6c00"></path>
        <path d="M507.1 0L457.1 22L577.8 127Z" fill="#ffa726" stroke="#ffa726"></path>
        <path d="M1173.5 256L1162.7 141L1137.5 191Z" fill="#f37804" stroke="#f37804"></path>
        <path d="M1137.5 191L1162.7 141L1022.7 115Z" fill="#fea121" stroke="#fea121"></path>
        <path d="M1019.9 71L1125.7 0L899.9 0Z" fill="#f57e08" stroke="#f57e08"></path>
        <path d="M623.8 900L744.6 900L690.6 853Z" fill="#f99014" stroke="#f99014"></path>
        <path d="M690.6 853L744.6 900L715.4 840Z" fill="#f17202" stroke="#f17202"></path>
        <path d="M744.6 900L833.4 900L715.4 840Z" fill="#f57e08" stroke="#f57e08"></path>
        <path d="M505.1 812L623.8 900L639.8 741Z" fill="#f37804" stroke="#f37804"></path>
        <path d="M1284.5 506L1269.2 373L1168.5 431Z" fill="#ffa726" stroke="#ffa726"></path>
        <path d="M1173.5 256L1284.5 194L1162.7 141Z" fill="#fea121" stroke="#fea121"></path>
        <path d="M833.4 900L913.2 900L922.9 784Z" fill="#fc9c1d" stroke="#fc9c1d"></path>
        <path d="M198.8 292L237.3 334L209.5 244Z" fill="#ef6c00" stroke="#ef6c00"></path>
        <path d="M319.5 234L237.3 334L405.3 447Z" fill="#ffa726" stroke="#ffa726"></path>
        <path d="M392.3 0L386.3 30L457.1 22Z" fill="#ef6c00" stroke="#ef6c00"></path>
        <path d="M457.1 22L386.3 30L488.1 203Z" fill="#f57e08" stroke="#f57e08"></path>
        <path d="M1264.2 598L1264.2 539L1188.5 562Z" fill="#f57e08" stroke="#f57e08"></path>
        <path d="M1188.5 562L1264.2 539L1168.5 431Z" fill="#f99014" stroke="#f99014"></path>
        <path d="M273.3 686L323.3 734L423.3 542Z" fill="#fea121" stroke="#fea121"></path>
        <path d="M505.1 812L484.1 900L623.8 900Z" fill="#f88a10" stroke="#f88a10"></path>
        <path d="M1264.2 539L1284.5 506L1168.5 431Z" fill="#f17202" stroke="#f17202"></path>
        <path d="M507.1 0L392.3 0L457.1 22Z" fill="#fb9619" stroke="#fb9619"></path>
        <path d="M209.5 244L237.3 334L319.5 234Z" fill="#fb9619" stroke="#fb9619"></path>
        <path d="M1203.5 791L1264.2 598L1147.7 575Z" fill="#ef6c00" stroke="#ef6c00"></path>
        <path d="M1264.2 539L1264.2 598L1284.5 506Z" fill="#ffa726" stroke="#ffa726"></path>
        <path d="M1203.5 791L1006.9 691L1036.7 790Z" fill="#fea121" stroke="#fea121"></path>
        <path d="M913.2 900L988.9 900L922.9 784Z" fill="#f99014" stroke="#f99014"></path>
        <path d="M1167.5 0L1125.7 0L1162.7 141Z" fill="#fc9c1d" stroke="#fc9c1d"></path>
        <path d="M1162.7 141L1125.7 0L1019.9 71Z" fill="#fea121" stroke="#fea121"></path>
        <path d="M184.5 466L421.1 503L403.3 457Z" fill="#ffa726" stroke="#ffa726"></path>
        <path d="M292.3 900L484.1 900L323.3 734Z" fill="#f37804" stroke="#f37804"></path>
        <path d="M323.3 734L484.1 900L505.1 812Z" fill="#f17202" stroke="#f17202"></path>
        <path d="M209.5 244L319.5 234L161.8 147Z" fill="#ef6c00" stroke="#ef6c00"></path>
        <path d="M237.3 334L184.5 466L403.3 457Z" fill="#f17202" stroke="#f17202"></path>
        <path d="M298.5 0L319.5 234L386.3 30Z" fill="#f6840c" stroke="#f6840c"></path>
        <path d="M177.8 459L184.5 466L237.3 334Z" fill="#fea121" stroke="#fea121"></path>
        <path d="M1290.2 195L1284.5 194L1269.2 373Z" fill="#fea121" stroke="#fea121"></path>
        <path d="M1269.2 373L1284.5 194L1173.5 256Z" fill="#fb9619" stroke="#fb9619"></path>
        <path d="M138.8 444L177.8 459L237.3 334Z" fill="#ef6c00" stroke="#ef6c00"></path>
        <path d="M184.5 466L187.5 589L421.1 503Z" fill="#f37804" stroke="#f37804"></path>
        <path d="M1405.2 312L1290.2 195L1269.2 373Z" fill="#f99014" stroke="#f99014"></path>
        <path d="M1284.5 194L1167.5 0L1162.7 141Z" fill="#f99014" stroke="#f99014"></path>
        <path d="M988.9 900L1076.7 890L1036.7 790Z" fill="#fea121" stroke="#fea121"></path>
        <path d="M1377.2 0L1167.5 0L1284.5 194Z" fill="#ef6c00" stroke="#ef6c00"></path>
        <path d="M1173.5 867L1203.5 791L1036.7 790Z" fill="#fc9c1d" stroke="#fc9c1d"></path>
        <path d="M149.5 566L187.5 589L184.5 466Z" fill="#fc9c1d" stroke="#fc9c1d"></path>
        <path d="M988.9 900L1091.7 900L1076.7 890Z" fill="#f6840c" stroke="#f6840c"></path>
        <path d="M1076.7 890L1173.5 867L1036.7 790Z" fill="#ffa726" stroke="#ffa726"></path>
        <path d="M392.3 0L298.5 0L386.3 30Z" fill="#ef6c00" stroke="#ef6c00"></path>
        <path d="M198.8 292L138.8 444L237.3 334Z" fill="#fea121" stroke="#fea121"></path>
        <path d="M177.8 459L138.8 444L184.5 466Z" fill="#f99014" stroke="#f99014"></path>
        <path d="M133.8 281L138.8 444L198.8 292Z" fill="#f6840c" stroke="#f6840c"></path>
        <path d="M187.5 589L220.5 717L273.3 686Z" fill="#f6840c" stroke="#f6840c"></path>
        <path d="M273.3 686L220.5 717L323.3 734Z" fill="#fea121" stroke="#fea121"></path>
        <path d="M60.8 602L220.5 717L187.5 589Z" fill="#f57e08" stroke="#f57e08"></path>
        <path d="M1091.7 900L1173.5 867L1076.7 890Z" fill="#f17202" stroke="#f17202"></path>
        <path d="M138.8 444L149.5 566L184.5 466Z" fill="#fc9c1d" stroke="#fc9c1d"></path>
        <path d="M161.8 147L133.8 281L209.5 244Z" fill="#f17202" stroke="#f17202"></path>
        <path d="M209.5 244L133.8 281L198.8 292Z" fill="#f88a10" stroke="#f88a10"></path>
        <path d="M298.5 0L161.8 147L319.5 234Z" fill="#ef6c00" stroke="#ef6c00"></path>
        <path d="M1440 416L1405.2 312L1269.2 373Z" fill="#fc9c1d" stroke="#fc9c1d"></path>
        <path d="M1290.2 195L1377.2 0L1284.5 194Z" fill="#f99014" stroke="#f99014"></path>
        <path d="M1440 416L1269.2 373L1440 446Z" fill="#f88a10" stroke="#f88a10"></path>
        <path d="M1269.2 373L1284.5 506L1440 446Z" fill="#f6840c" stroke="#f6840c"></path>
        <path d="M1284.5 506L1440 518L1440 446Z" fill="#f99014" stroke="#f99014"></path>
        <path d="M240.5 900L323.3 734L172.5 847Z" fill="#fb9619" stroke="#fb9619"></path>
        <path d="M240.5 900L292.3 900L323.3 734Z" fill="#fea121" stroke="#fea121"></path>
        <path d="M1284.5 506L1264.2 598L1440 518Z" fill="#f57e08" stroke="#f57e08"></path>
        <path d="M1440 518L1264.2 598L1440 650Z" fill="#f37804" stroke="#f37804"></path>
        <path d="M1440 264L1403.2 173L1405.2 312Z" fill="#fc9c1d" stroke="#fc9c1d"></path>
        <path d="M1405.2 312L1403.2 173L1290.2 195Z" fill="#ef6c00" stroke="#ef6c00"></path>
        <path d="M1091.7 900L1239.5 900L1173.5 867Z" fill="#fb9619" stroke="#fb9619"></path>
        <path d="M1173.5 867L1239.5 900L1203.5 791Z" fill="#f17202" stroke="#f17202"></path>
        <path d="M1403.2 697L1264.2 598L1203.5 791Z" fill="#f6840c" stroke="#f6840c"></path>
        <path d="M1440 416L1440 264L1405.2 312Z" fill="#fea121" stroke="#fea121"></path>
        <path d="M172.5 847L323.3 734L220.5 717Z" fill="#ffa726" stroke="#ffa726"></path>
        <path d="M1337.2 900L1403.2 697L1203.5 791Z" fill="#ffa726" stroke="#ffa726"></path>
        <path d="M1440 264L1440 213L1403.2 173Z" fill="#fc9c1d" stroke="#fc9c1d"></path>
        <path d="M138.8 444L60.8 602L149.5 566Z" fill="#f88a10" stroke="#f88a10"></path>
        <path d="M149.5 566L60.8 602L187.5 589Z" fill="#fb9619" stroke="#fb9619"></path>
        <path d="M0 437L60.8 602L138.8 444Z" fill="#fc9c1d" stroke="#fc9c1d"></path>
        <path d="M34.8 632L60.8 602L0 641Z" fill="#f99014" stroke="#f99014"></path>
        <path d="M1440 213L1440 195L1403.2 173Z" fill="#fea121" stroke="#fea121"></path>
        <path d="M1403.2 173L1377.2 0L1290.2 195Z" fill="#f37804" stroke="#f37804"></path>
        <path d="M298.5 0L123.5 46L161.8 147Z" fill="#fb9619" stroke="#fb9619"></path>
        <path d="M0 320L0 345L133.8 281Z" fill="#fb9619" stroke="#fb9619"></path>
        <path d="M89.8 782L172.5 847L220.5 717Z" fill="#f99014" stroke="#f99014"></path>
        <path d="M1403.2 697L1440 650L1264.2 598Z" fill="#fc9c1d" stroke="#fc9c1d"></path>
        <path d="M1440 0L1377.2 0L1403.2 173Z" fill="#f6840c" stroke="#f6840c"></path>
        <path d="M0 437L138.8 444L0 345Z" fill="#f99014" stroke="#f99014"></path>
        <path d="M60.8 602L34.8 632L220.5 717Z" fill="#f57e08" stroke="#f57e08"></path>
        <path d="M0 345L138.8 444L133.8 281Z" fill="#f88a10" stroke="#f88a10"></path>
        <path d="M0 320L133.8 281L0 278Z" fill="#fea121" stroke="#fea121"></path>
        <path d="M0 278L133.8 281L161.8 147Z" fill="#f37804" stroke="#f37804"></path>
        <path d="M34.8 632L89.8 782L220.5 717Z" fill="#ffa726" stroke="#ffa726"></path>
        <path d="M0 34L0 278L161.8 147Z" fill="#f37804" stroke="#f37804"></path>
        <path d="M1239.5 900L1337.2 900L1203.5 791Z" fill="#f37804" stroke="#f37804"></path>
        <path d="M1403.2 697L1440 747L1440 650Z" fill="#fb9619" stroke="#fb9619"></path>
        <path d="M1337.2 900L1440 747L1403.2 697Z" fill="#fb9619" stroke="#fb9619"></path>
        <path d="M0 437L0 641L60.8 602Z" fill="#fc9c1d" stroke="#fc9c1d"></path>
        <path d="M34.8 632L0 660L89.8 782Z" fill="#f37804" stroke="#f37804"></path>
        <path d="M0 641L0 660L34.8 632Z" fill="#ffa726" stroke="#ffa726"></path>
        <path d="M1440 195L1440 0L1403.2 173Z" fill="#fea121" stroke="#fea121"></path>
        <path d="M1337.2 900L1417.2 878L1440 747Z" fill="#fb9619" stroke="#fb9619"></path>
        <path d="M123.5 46L0 34L161.8 147Z" fill="#f6840c" stroke="#f6840c"></path>
        <path d="M14.8 0L0 34L123.5 46Z" fill="#ef6c00" stroke="#ef6c00"></path>
        <path d="M298.5 0L14.8 0L123.5 46Z" fill="#f88a10" stroke="#f88a10"></path>
        <path d="M1337.2 900L1440 900L1417.2 878Z" fill="#f17202" stroke="#f17202"></path>
        <path d="M1417.2 878L1440 900L1440 747Z" fill="#ef6c00" stroke="#ef6c00"></path>
        <path d="M14.8 0L0 0L0 34Z" fill="#fb9619" stroke="#fb9619"></path>
        <path d="M0 871L43.8 900L89.8 782Z" fill="#fb9619" stroke="#fb9619"></path>
        <path d="M89.8 782L43.8 900L172.5 847Z" fill="#f88a10" stroke="#f88a10"></path>
        <path d="M172.5 847L43.8 900L240.5 900Z" fill="#f6840c" stroke="#f6840c"></path>
        <path d="M0 660L0 871L89.8 782Z" fill="#fea121" stroke="#fea121"></path>
        <path d="M0 871L0 900L43.8 900Z" fill="#fc9c1d" stroke="#fc9c1d"></path>
    </g>
</svg>
