<svg id="visual" viewBox="0 0 1600 900" width="1600" height="900" xmlns="http://www.w3.org/2000/svg" version="1.1">
    <g stroke-width="1" stroke-linejoin="bevel">
        <path d="M785.5 485L921.5 430L817.5 385.5Z" fill="#fc9c1d" stroke="#fc9c1d"></path>
        <path d="M785.5 485L930.5 469.5L921.5 430Z" fill="#ffa726" stroke="#ffa726"></path>
        <path d="M1039.7 454L960.5 363.5L921.5 430Z" fill="#ffa726" stroke="#ffa726"></path>
        <path d="M921.5 430L960.5 363.5L817.5 385.5Z" fill="#ffa726" stroke="#ffa726"></path>
        <path d="M960.5 363.5L964.6 334.5L817.5 385.5Z" fill="#f88a10" stroke="#f88a10"></path>
        <path d="M930.5 469.5L1039.7 454L921.5 430Z" fill="#f37804" stroke="#f37804"></path>
        <path d="M960.5 363.5L1102.7 299L964.6 334.5Z" fill="#f17202" stroke="#f17202"></path>
        <path d="M700.5 318L674.4 533L785.5 485Z" fill="#fc9c1d" stroke="#fc9c1d"></path>
        <path d="M785.5 485L836.5 670L930.5 469.5Z" fill="#ef6c00" stroke="#ef6c00"></path>
        <path d="M930.5 469.5L1013.6 604L1039.7 454Z" fill="#f6840c" stroke="#f6840c"></path>
        <path d="M837.5 126L700.5 318L817.5 385.5Z" fill="#fea121" stroke="#fea121"></path>
        <path d="M817.5 385.5L700.5 318L785.5 485Z" fill="#f17202" stroke="#f17202"></path>
        <path d="M1058.7 580.5L1067.6 448L1039.7 454Z" fill="#fea121" stroke="#fea121"></path>
        <path d="M1039.7 454L1067.6 448L960.5 363.5Z" fill="#fc9c1d" stroke="#fc9c1d"></path>
        <path d="M781.5 664L836.5 670L785.5 485Z" fill="#f37804" stroke="#f37804"></path>
        <path d="M836.5 670L1013.6 604L930.5 469.5Z" fill="#f6840c" stroke="#f6840c"></path>
        <path d="M674.4 533L781.5 664L785.5 485Z" fill="#ef6c00" stroke="#ef6c00"></path>
        <path d="M1013.6 604L1058.7 580.5L1039.7 454Z" fill="#fea121" stroke="#fea121"></path>
        <path d="M1102.7 299L967.6 234L964.6 334.5Z" fill="#f6840c" stroke="#f6840c"></path>
        <path d="M964.6 334.5L967.6 234L817.5 385.5Z" fill="#fb9619" stroke="#fb9619"></path>
        <path d="M700.5 318L586.4 391.5L674.4 533Z" fill="#f6840c" stroke="#f6840c"></path>
        <path d="M592.4 578.5L648.5 644.5L674.4 533Z" fill="#f99014" stroke="#f99014"></path>
        <path d="M674.4 533L648.5 644.5L781.5 664Z" fill="#fc9c1d" stroke="#fc9c1d"></path>
        <path d="M806.5 758.5L836.5 670L781.5 664Z" fill="#fc9c1d" stroke="#fc9c1d"></path>
        <path d="M806.5 758.5L869.5 735.5L836.5 670Z" fill="#fea121" stroke="#fea121"></path>
        <path d="M836.5 670L869.5 735.5L1013.6 604Z" fill="#fc9c1d" stroke="#fc9c1d"></path>
        <path d="M1013.6 604L1079.6 659.5L1058.7 580.5Z" fill="#ffa726" stroke="#ffa726"></path>
        <path d="M547.3 546.5L592.4 578.5L674.4 533Z" fill="#fb9619" stroke="#fb9619"></path>
        <path d="M1067.6 448L1102.7 299L960.5 363.5Z" fill="#f6840c" stroke="#f6840c"></path>
        <path d="M1126.7 315.5L1102.7 299L1067.6 448Z" fill="#fea121" stroke="#fea121"></path>
        <path d="M586.4 391.5L555.3 412L674.4 533Z" fill="#ef6c00" stroke="#ef6c00"></path>
        <path d="M1152.8 343.5L1126.7 315.5L1067.6 448Z" fill="#f17202" stroke="#f17202"></path>
        <path d="M949.6 759.5L1079.6 659.5L1013.6 604Z" fill="#f17202" stroke="#f17202"></path>
        <path d="M1254.8 528.5L1152.8 343.5L1067.6 448Z" fill="#ffa726" stroke="#ffa726"></path>
        <path d="M648.5 644.5L806.5 758.5L781.5 664Z" fill="#f6840c" stroke="#f6840c"></path>
        <path d="M869.5 735.5L949.6 759.5L1013.6 604Z" fill="#f37804" stroke="#f37804"></path>
        <path d="M555.3 412L547.3 546.5L674.4 533Z" fill="#f17202" stroke="#f17202"></path>
        <path d="M592.4 578.5L534.3 724.5L648.5 644.5Z" fill="#f57e08" stroke="#f57e08"></path>
        <path d="M1254.8 528.5L1067.6 448L1058.7 580.5Z" fill="#f57e08" stroke="#f57e08"></path>
        <path d="M930.5 900L949.6 759.5L869.5 735.5Z" fill="#f37804" stroke="#f37804"></path>
        <path d="M827.5 96.5L837.5 126L896.6 0Z" fill="#f37804" stroke="#f37804"></path>
        <path d="M967.6 234L837.5 126L817.5 385.5Z" fill="#f88a10" stroke="#f88a10"></path>
        <path d="M700.5 318L609.4 181L586.4 391.5Z" fill="#ef6c00" stroke="#ef6c00"></path>
        <path d="M447.2 374L480.3 415.5L555.3 412Z" fill="#ffa726" stroke="#ffa726"></path>
        <path d="M837.5 126L743.5 129.5L700.5 318Z" fill="#ef6c00" stroke="#ef6c00"></path>
        <path d="M743.5 129.5L683.4 152.5L700.5 318Z" fill="#ef6c00" stroke="#ef6c00"></path>
        <path d="M837.5 126L827.5 96.5L743.5 129.5Z" fill="#f37804" stroke="#f37804"></path>
        <path d="M606.4 0L609.4 181L683.4 152.5Z" fill="#fb9619" stroke="#fb9619"></path>
        <path d="M998.6 87.5L837.5 126L967.6 234Z" fill="#f17202" stroke="#f17202"></path>
        <path d="M998.6 87.5L967.6 234L1158.8 175Z" fill="#ffa726" stroke="#ffa726"></path>
        <path d="M539.3 179L609.4 181L606.4 0Z" fill="#f6840c" stroke="#f6840c"></path>
        <path d="M683.4 152.5L609.4 181L700.5 318Z" fill="#ef6c00" stroke="#ef6c00"></path>
        <path d="M447.2 374L555.3 412L586.4 391.5Z" fill="#f99014" stroke="#f99014"></path>
        <path d="M555.3 412L480.3 415.5L547.3 546.5Z" fill="#ef6c00" stroke="#ef6c00"></path>
        <path d="M949.6 759.5L1129.7 713L1079.6 659.5Z" fill="#f6840c" stroke="#f6840c"></path>
        <path d="M1079.6 659.5L1254.8 528.5L1058.7 580.5Z" fill="#f6840c" stroke="#f6840c"></path>
        <path d="M1158.8 175L1102.7 299L1186.7 207.5Z" fill="#ffa726" stroke="#ffa726"></path>
        <path d="M1158.8 175L967.6 234L1102.7 299Z" fill="#f17202" stroke="#f17202"></path>
        <path d="M539.3 179L447.2 374L586.4 391.5Z" fill="#f6840c" stroke="#f6840c"></path>
        <path d="M520.4 730L534.3 724.5L418.3 635Z" fill="#fb9619" stroke="#fb9619"></path>
        <path d="M1129.7 713L1254.8 528.5L1079.6 659.5Z" fill="#f37804" stroke="#f37804"></path>
        <path d="M1186.7 207.5L1126.7 315.5L1152.8 343.5Z" fill="#fea121" stroke="#fea121"></path>
        <path d="M1186.7 207.5L1102.7 299L1126.7 315.5Z" fill="#f17202" stroke="#f17202"></path>
        <path d="M745.5 0L683.4 152.5L743.5 129.5Z" fill="#fc9c1d" stroke="#fc9c1d"></path>
        <path d="M609.4 181L539.3 179L586.4 391.5Z" fill="#ffa726" stroke="#ffa726"></path>
        <path d="M1317.8 423.5L1186.7 207.5L1152.8 343.5Z" fill="#f6840c" stroke="#f6840c"></path>
        <path d="M547.3 546.5L534.3 724.5L592.4 578.5Z" fill="#ef6c00" stroke="#ef6c00"></path>
        <path d="M648.5 644.5L689.4 900L806.5 758.5Z" fill="#f99014" stroke="#f99014"></path>
        <path d="M534.3 724.5L547.3 546.5L418.3 635Z" fill="#f88a10" stroke="#f88a10"></path>
        <path d="M1093.7 836.5L1139.8 764L1129.7 713Z" fill="#fb9619" stroke="#fb9619"></path>
        <path d="M1129.7 713L1310.8 632L1254.8 528.5Z" fill="#f99014" stroke="#f99014"></path>
        <path d="M1093.7 836.5L1129.7 713L949.6 759.5Z" fill="#fc9c1d" stroke="#fc9c1d"></path>
        <path d="M393.2 427.5L547.3 546.5L480.3 415.5Z" fill="#f6840c" stroke="#f6840c"></path>
        <path d="M689.4 900L837.5 900L806.5 758.5Z" fill="#fb9619" stroke="#fb9619"></path>
        <path d="M1310.8 632L1292.8 496L1254.8 528.5Z" fill="#fc9c1d" stroke="#fc9c1d"></path>
        <path d="M1254.8 528.5L1292.8 496L1152.8 343.5Z" fill="#fb9619" stroke="#fb9619"></path>
        <path d="M689.4 900L648.5 644.5L534.4 824.5Z" fill="#f17202" stroke="#f17202"></path>
        <path d="M806.5 758.5L837.5 900L869.5 735.5Z" fill="#f99014" stroke="#f99014"></path>
        <path d="M896.6 0L817.5 0L827.5 96.5Z" fill="#f88a10" stroke="#f88a10"></path>
        <path d="M827.5 96.5L745.5 0L743.5 129.5Z" fill="#f88a10" stroke="#f88a10"></path>
        <path d="M1146.8 32.5L896.6 0L998.6 87.5Z" fill="#f99014" stroke="#f99014"></path>
        <path d="M998.6 87.5L896.6 0L837.5 126Z" fill="#fc9c1d" stroke="#fc9c1d"></path>
        <path d="M1007.6 900L1093.7 836.5L949.6 759.5Z" fill="#f99014" stroke="#f99014"></path>
        <path d="M837.5 900L930.5 900L869.5 735.5Z" fill="#ef6c00" stroke="#ef6c00"></path>
        <path d="M314.2 296L393.2 427.5L447.2 374Z" fill="#f17202" stroke="#f17202"></path>
        <path d="M447.2 374L393.2 427.5L480.3 415.5Z" fill="#ef6c00" stroke="#ef6c00"></path>
        <path d="M817.5 0L745.5 0L827.5 96.5Z" fill="#f57e08" stroke="#f57e08"></path>
        <path d="M1292.8 496L1317.8 423.5L1152.8 343.5Z" fill="#f88a10" stroke="#f88a10"></path>
        <path d="M393.2 427.5L418.3 635L547.3 546.5Z" fill="#ffa726" stroke="#ffa726"></path>
        <path d="M930.5 900L1007.6 900L949.6 759.5Z" fill="#f88a10" stroke="#f88a10"></path>
        <path d="M534.4 824.5L648.5 644.5L534.3 724.5Z" fill="#f37804" stroke="#f37804"></path>
        <path d="M534.4 824.5L534.3 724.5L520.4 730Z" fill="#f6840c" stroke="#f6840c"></path>
        <path d="M418.3 635L453.2 726.5L520.4 730Z" fill="#f99014" stroke="#f99014"></path>
        <path d="M453.2 726.5L534.4 824.5L520.4 730Z" fill="#f17202" stroke="#f17202"></path>
        <path d="M1309.8 750.5L1310.8 632L1129.7 713Z" fill="#f37804" stroke="#f37804"></path>
        <path d="M1292.8 496L1377.8 527.5L1317.8 423.5Z" fill="#fea121" stroke="#fea121"></path>
        <path d="M1309.8 750.5L1129.7 713L1139.8 764Z" fill="#f6840c" stroke="#f6840c"></path>
        <path d="M1007.6 900L1071.7 900L1093.7 836.5Z" fill="#fea121" stroke="#fea121"></path>
        <path d="M1217.8 900L1309.8 750.5L1139.8 764Z" fill="#f17202" stroke="#f17202"></path>
        <path d="M1168.7 0L1146.8 32.5L1246.8 0Z" fill="#f37804" stroke="#f37804"></path>
        <path d="M1158.8 175L1146.8 32.5L998.6 87.5Z" fill="#fea121" stroke="#fea121"></path>
        <path d="M1146.8 32.5L1158.8 175L1246.8 0Z" fill="#f99014" stroke="#f99014"></path>
        <path d="M745.5 0L606.4 0L683.4 152.5Z" fill="#f57e08" stroke="#f57e08"></path>
        <path d="M539.3 179L314.2 296L447.2 374Z" fill="#f37804" stroke="#f37804"></path>
        <path d="M1310.8 632L1377.8 527.5L1292.8 496Z" fill="#f99014" stroke="#f99014"></path>
        <path d="M1329.8 139L1158.8 175L1186.7 207.5Z" fill="#f57e08" stroke="#f57e08"></path>
        <path d="M393.2 427.5L320.2 518.5L418.3 635Z" fill="#fc9c1d" stroke="#fc9c1d"></path>
        <path d="M418.3 635L314.2 751L453.2 726.5Z" fill="#f37804" stroke="#f37804"></path>
        <path d="M272.2 486.5L320.2 518.5L393.2 427.5Z" fill="#fc9c1d" stroke="#fc9c1d"></path>
        <path d="M326.2 900L534.4 824.5L453.2 726.5Z" fill="#f57e08" stroke="#f57e08"></path>
        <path d="M326.2 900L544.3 900L534.4 824.5Z" fill="#f88a10" stroke="#f88a10"></path>
        <path d="M534.4 824.5L544.3 900L689.4 900Z" fill="#ffa726" stroke="#ffa726"></path>
        <path d="M1217.8 900L1139.8 764L1093.7 836.5Z" fill="#f99014" stroke="#f99014"></path>
        <path d="M1310.8 632L1522.9 647.5L1377.8 527.5Z" fill="#f6840c" stroke="#f6840c"></path>
        <path d="M1329.8 139L1186.7 207.5L1317.8 423.5Z" fill="#fea121" stroke="#fea121"></path>
        <path d="M1146.8 32.5L1168.7 0L896.6 0Z" fill="#ef6c00" stroke="#ef6c00"></path>
        <path d="M606.4 0L445.3 76.5L539.3 179Z" fill="#f88a10" stroke="#f88a10"></path>
        <path d="M345.2 135.5L314.2 296L539.3 179Z" fill="#f88a10" stroke="#f88a10"></path>
        <path d="M1505.9 286L1329.8 139L1317.8 423.5Z" fill="#fb9619" stroke="#fb9619"></path>
        <path d="M1071.7 900L1217.8 900L1093.7 836.5Z" fill="#ffa726" stroke="#ffa726"></path>
        <path d="M272.2 486.5L308.2 655L320.2 518.5Z" fill="#fc9c1d" stroke="#fc9c1d"></path>
        <path d="M320.2 518.5L308.2 655L418.3 635Z" fill="#f17202" stroke="#f17202"></path>
        <path d="M250.2 396L272.2 486.5L393.2 427.5Z" fill="#f17202" stroke="#f17202"></path>
        <path d="M1522.9 647.5L1440.8 462L1377.8 527.5Z" fill="#fea121" stroke="#fea121"></path>
        <path d="M1377.8 527.5L1440.8 462L1317.8 423.5Z" fill="#f37804" stroke="#f37804"></path>
        <path d="M445.3 76.5L345.2 135.5L539.3 179Z" fill="#f37804" stroke="#f37804"></path>
        <path d="M314.2 296L250.2 396L393.2 427.5Z" fill="#fb9619" stroke="#fb9619"></path>
        <path d="M1329.8 139L1246.8 0L1158.8 175Z" fill="#f17202" stroke="#f17202"></path>
        <path d="M168.1 188.5L250.2 396L314.2 296Z" fill="#f99014" stroke="#f99014"></path>
        <path d="M272.2 841.5L35.1 799.5L147.2 900Z" fill="#f6840c" stroke="#f6840c"></path>
        <path d="M1217.8 900L1264.8 900L1309.8 750.5Z" fill="#fc9c1d" stroke="#fc9c1d"></path>
        <path d="M1555.9 350.5L1517.9 352L1600 399.5Z" fill="#f88a10" stroke="#f88a10"></path>
        <path d="M308.2 655L314.2 751L418.3 635Z" fill="#fb9619" stroke="#fb9619"></path>
        <path d="M161.1 494.5L308.2 655L272.2 486.5Z" fill="#ef6c00" stroke="#ef6c00"></path>
        <path d="M445.3 76.5L305.2 68.5L345.2 135.5Z" fill="#fea121" stroke="#fea121"></path>
        <path d="M606.4 0L427.3 0L445.3 76.5Z" fill="#f57e08" stroke="#f57e08"></path>
        <path d="M345.2 135.5L272.2 185L314.2 296Z" fill="#f57e08" stroke="#f57e08"></path>
        <path d="M305.2 68.5L272.2 185L345.2 135.5Z" fill="#f6840c" stroke="#f6840c"></path>
        <path d="M1505.9 286L1380.8 96.5L1329.8 139Z" fill="#ef6c00" stroke="#ef6c00"></path>
        <path d="M1329.8 139L1333.8 0L1246.8 0Z" fill="#ffa726" stroke="#ffa726"></path>
        <path d="M1380.8 96.5L1333.8 0L1329.8 139Z" fill="#fb9619" stroke="#fb9619"></path>
        <path d="M427.3 0L305.2 68.5L445.3 76.5Z" fill="#ffa726" stroke="#ffa726"></path>
        <path d="M168.1 188.5L314.2 296L272.2 185Z" fill="#fc9c1d" stroke="#fc9c1d"></path>
        <path d="M87.1 280.5L180.2 429.5L250.2 396Z" fill="#fea121" stroke="#fea121"></path>
        <path d="M250.2 396L180.2 429.5L272.2 486.5Z" fill="#f6840c" stroke="#f6840c"></path>
        <path d="M1522.9 647.5L1310.8 632L1309.8 750.5Z" fill="#f17202" stroke="#f17202"></path>
        <path d="M1440.8 462L1517.9 352L1317.8 423.5Z" fill="#ef6c00" stroke="#ef6c00"></path>
        <path d="M1380.8 96.5L1429.9 56.5L1333.8 0Z" fill="#ef6c00" stroke="#ef6c00"></path>
        <path d="M1517.9 352L1505.9 286L1317.8 423.5Z" fill="#f99014" stroke="#f99014"></path>
        <path d="M272.2 841.5L326.2 900L314.2 751Z" fill="#f17202" stroke="#f17202"></path>
        <path d="M314.2 751L326.2 900L453.2 726.5Z" fill="#fb9619" stroke="#fb9619"></path>
        <path d="M180.2 429.5L161.1 494.5L272.2 486.5Z" fill="#fc9c1d" stroke="#fc9c1d"></path>
        <path d="M272.2 841.5L314.2 751L35.1 799.5Z" fill="#fb9619" stroke="#fb9619"></path>
        <path d="M1436.8 867.5L1522.9 647.5L1309.8 750.5Z" fill="#f17202" stroke="#f17202"></path>
        <path d="M1505.9 286L1429.9 56.5L1380.8 96.5Z" fill="#f88a10" stroke="#f88a10"></path>
        <path d="M1517.9 352L1555.9 350.5L1505.9 286Z" fill="#fc9c1d" stroke="#fc9c1d"></path>
        <path d="M1505.9 286L1600 147.5L1429.9 56.5Z" fill="#ffa726" stroke="#ffa726"></path>
        <path d="M1600 472.5L1517.9 352L1440.8 462Z" fill="#f6840c" stroke="#f6840c"></path>
        <path d="M427.3 0L292.2 0L305.2 68.5Z" fill="#fc9c1d" stroke="#fc9c1d"></path>
        <path d="M142.1 147L168.1 188.5L272.2 185Z" fill="#ef6c00" stroke="#ef6c00"></path>
        <path d="M180.2 429.5L48.1 434L161.1 494.5Z" fill="#f99014" stroke="#f99014"></path>
        <path d="M1264.8 900L1436.8 867.5L1309.8 750.5Z" fill="#f99014" stroke="#f99014"></path>
        <path d="M142.1 147L272.2 185L305.2 68.5Z" fill="#fc9c1d" stroke="#fc9c1d"></path>
        <path d="M1436.8 867.5L1556.9 688L1522.9 647.5Z" fill="#fb9619" stroke="#fb9619"></path>
        <path d="M1600 484L1600 472.5L1440.8 462Z" fill="#f99014" stroke="#f99014"></path>
        <path d="M1600 484L1440.8 462L1522.9 647.5Z" fill="#f6840c" stroke="#f6840c"></path>
        <path d="M1600 668L1600 484L1522.9 647.5Z" fill="#f57e08" stroke="#f57e08"></path>
        <path d="M1600 472.5L1600 399.5L1517.9 352Z" fill="#f37804" stroke="#f37804"></path>
        <path d="M1555.9 350.5L1600 274L1505.9 286Z" fill="#f88a10" stroke="#f88a10"></path>
        <path d="M1600 399.5L1600 274L1555.9 350.5Z" fill="#ef6c00" stroke="#ef6c00"></path>
        <path d="M206.1 0L142.1 147L305.2 68.5Z" fill="#fea121" stroke="#fea121"></path>
        <path d="M168.1 188.5L87.1 280.5L250.2 396Z" fill="#f37804" stroke="#f37804"></path>
        <path d="M1600 147.5L1481.9 0L1429.9 56.5Z" fill="#f88a10" stroke="#f88a10"></path>
        <path d="M1429.9 56.5L1481.9 0L1333.8 0Z" fill="#fb9619" stroke="#fb9619"></path>
        <path d="M1600 780.5L1600 668L1556.9 688Z" fill="#fea121" stroke="#fea121"></path>
        <path d="M1556.9 688L1600 668L1522.9 647.5Z" fill="#fc9c1d" stroke="#fc9c1d"></path>
        <path d="M142.1 147L87.1 280.5L168.1 188.5Z" fill="#ef6c00" stroke="#ef6c00"></path>
        <path d="M28.1 679L314.2 751L308.2 655Z" fill="#ffa726" stroke="#ffa726"></path>
        <path d="M292.2 0L206.1 0L305.2 68.5Z" fill="#ef6c00" stroke="#ef6c00"></path>
        <path d="M1548.9 900L1535.9 861.5L1436.8 867.5Z" fill="#f6840c" stroke="#f6840c"></path>
        <path d="M1436.8 867.5L1535.9 861.5L1556.9 688Z" fill="#f57e08" stroke="#f57e08"></path>
        <path d="M87.1 280.5L48.1 434L180.2 429.5Z" fill="#f17202" stroke="#f17202"></path>
        <path d="M1600 274L1600 147.5L1505.9 286Z" fill="#f6840c" stroke="#f6840c"></path>
        <path d="M1535.9 861.5L1600 780.5L1556.9 688Z" fill="#f37804" stroke="#f37804"></path>
        <path d="M1264.8 900L1548.9 900L1436.8 867.5Z" fill="#f88a10" stroke="#f88a10"></path>
        <path d="M1535.9 861.5L1600 900L1600 780.5Z" fill="#f99014" stroke="#f99014"></path>
        <path d="M206.1 0L152.2 0L142.1 147Z" fill="#f57e08" stroke="#f57e08"></path>
        <path d="M0 188.5L0 308.5L87.1 280.5Z" fill="#ef6c00" stroke="#ef6c00"></path>
        <path d="M0 308.5L0 419L48.1 434Z" fill="#fea121" stroke="#fea121"></path>
        <path d="M28.1 679L308.2 655L161.1 494.5Z" fill="#fc9c1d" stroke="#fc9c1d"></path>
        <path d="M272.2 841.5L147.2 900L326.2 900Z" fill="#f37804" stroke="#f37804"></path>
        <path d="M0 308.5L48.1 434L87.1 280.5Z" fill="#f6840c" stroke="#f6840c"></path>
        <path d="M48.1 434L0 499.5L161.1 494.5Z" fill="#f57e08" stroke="#f57e08"></path>
        <path d="M0 419L0 499.5L48.1 434Z" fill="#f99014" stroke="#f99014"></path>
        <path d="M0 499.5L28.1 679L161.1 494.5Z" fill="#f37804" stroke="#f37804"></path>
        <path d="M0 188.5L87.1 280.5L142.1 147Z" fill="#f17202" stroke="#f17202"></path>
        <path d="M1548.9 900L1600 900L1535.9 861.5Z" fill="#f6840c" stroke="#f6840c"></path>
        <path d="M1600 147.5L1600 0L1481.9 0Z" fill="#ffa726" stroke="#ffa726"></path>
        <path d="M0 724L35.1 799.5L28.1 679Z" fill="#ffa726" stroke="#ffa726"></path>
        <path d="M28.1 679L35.1 799.5L314.2 751Z" fill="#f37804" stroke="#f37804"></path>
        <path d="M0 125L0 188.5L142.1 147Z" fill="#f17202" stroke="#f17202"></path>
        <path d="M0 499.5L0 724L28.1 679Z" fill="#fc9c1d" stroke="#fc9c1d"></path>
        <path d="M35.1 799.5L70.1 900L147.2 900Z" fill="#ef6c00" stroke="#ef6c00"></path>
        <path d="M0 900L70.1 900L35.1 799.5Z" fill="#fb9619" stroke="#fb9619"></path>
        <path d="M0 724L0 770.5L35.1 799.5Z" fill="#ffa726" stroke="#ffa726"></path>
        <path d="M152.2 0L0 125L142.1 147Z" fill="#f88a10" stroke="#f88a10"></path>
        <path d="M0 770.5L0 900L35.1 799.5Z" fill="#fc9c1d" stroke="#fc9c1d"></path>
        <path d="M152.2 0L0 0L0 125Z" fill="#f37804" stroke="#f37804"></path>
    </g>
</svg>
