<svg id="visual" viewBox="0 0 1920 1080" width="1920" height="1080" xmlns="http://www.w3.org/2000/svg" version="1.1">
    <g stroke-width="1" stroke-linejoin="bevel">
        <path d="M905.2 604L938.2 670L946.8 624Z" fill="#ef6c00" stroke="#ef6c00"></path>
        <path d="M938.2 670L970.8 680L946.8 624Z" fill="#ef6c00" stroke="#ef6c00"></path>
        <path d="M905.2 604L809.5 739L938.2 670Z" fill="#f6840c" stroke="#f6840c"></path>
        <path d="M826.5 582L809.5 739L905.2 604Z" fill="#f57e08" stroke="#f57e08"></path>
        <path d="M938.2 670L902.2 909L970.8 680Z" fill="#f99014" stroke="#f99014"></path>
        <path d="M946.8 624L889.2 488L905.2 604Z" fill="#fc9c1d" stroke="#fc9c1d"></path>
        <path d="M905.2 604L889.2 488L826.5 582Z" fill="#f17202" stroke="#f17202"></path>
        <path d="M1094.5 605L889.2 488L946.8 624Z" fill="#f6840c" stroke="#f6840c"></path>
        <path d="M970.8 680L1094.5 605L946.8 624Z" fill="#fea121" stroke="#fea121"></path>
        <path d="M902.2 909L1027.8 849L970.8 680Z" fill="#fb9619" stroke="#fb9619"></path>
        <path d="M970.8 680L1091.5 824L1094.5 605Z" fill="#fc9c1d" stroke="#fc9c1d"></path>
        <path d="M1027.8 849L1091.5 824L970.8 680Z" fill="#f6840c" stroke="#f6840c"></path>
        <path d="M889.2 488L724.5 461L826.5 582Z" fill="#f99014" stroke="#f99014"></path>
        <path d="M579.8 596L631.8 808L809.5 739Z" fill="#f6840c" stroke="#f6840c"></path>
        <path d="M809.5 739L902.2 909L938.2 670Z" fill="#f57e08" stroke="#f57e08"></path>
        <path d="M1027.8 849L1086.8 858L1091.5 824Z" fill="#f57e08" stroke="#f57e08"></path>
        <path d="M1040.8 1080L1086.8 858L1027.8 849Z" fill="#fea121" stroke="#fea121"></path>
        <path d="M681.8 846L756.5 879L809.5 739Z" fill="#ffa726" stroke="#ffa726"></path>
        <path d="M809.5 739L756.5 879L902.2 909Z" fill="#fc9c1d" stroke="#fc9c1d"></path>
        <path d="M1094.5 605L1023.8 367L889.2 488Z" fill="#f37804" stroke="#f37804"></path>
        <path d="M889.2 488L813.5 297L724.5 461Z" fill="#ef6c00" stroke="#ef6c00"></path>
        <path d="M631.8 808L681.8 846L809.5 739Z" fill="#f37804" stroke="#f37804"></path>
        <path d="M579.8 596L809.5 739L826.5 582Z" fill="#f99014" stroke="#f99014"></path>
        <path d="M1023.8 367L953.2 305L889.2 488Z" fill="#f6840c" stroke="#f6840c"></path>
        <path d="M724.5 461L579.8 596L826.5 582Z" fill="#f37804" stroke="#f37804"></path>
        <path d="M1236.2 938L1174.5 854L1086.8 858Z" fill="#f17202" stroke="#f17202"></path>
        <path d="M1086.8 858L1174.5 854L1091.5 824Z" fill="#fc9c1d" stroke="#fc9c1d"></path>
        <path d="M1091.5 824L1174.5 854L1094.5 605Z" fill="#f57e08" stroke="#f57e08"></path>
        <path d="M1094.5 605L1266.2 507L1023.8 367Z" fill="#ef6c00" stroke="#ef6c00"></path>
        <path d="M982.8 316L953.2 305L1023.8 367Z" fill="#f37804" stroke="#f37804"></path>
        <path d="M953.2 305L813.5 297L889.2 488Z" fill="#f37804" stroke="#f37804"></path>
        <path d="M437.1 363L531.1 623L579.8 596Z" fill="#f37804" stroke="#f37804"></path>
        <path d="M1174.5 854L1267.5 585L1094.5 605Z" fill="#fea121" stroke="#fea121"></path>
        <path d="M1023.8 367L1170.5 312L982.8 316Z" fill="#ef6c00" stroke="#ef6c00"></path>
        <path d="M1267.5 585L1266.2 507L1094.5 605Z" fill="#f37804" stroke="#f37804"></path>
        <path d="M437.1 363L579.8 596L724.5 461Z" fill="#f6840c" stroke="#f6840c"></path>
        <path d="M579.8 596L547.8 770L631.8 808Z" fill="#fea121" stroke="#fea121"></path>
        <path d="M1174.5 854L1297.2 599L1267.5 585Z" fill="#f17202" stroke="#f17202"></path>
        <path d="M1267.5 585L1297.2 599L1266.2 507Z" fill="#f57e08" stroke="#f57e08"></path>
        <path d="M531.1 623L547.8 770L579.8 596Z" fill="#f37804" stroke="#f37804"></path>
        <path d="M672.8 1080L756.5 879L681.8 846Z" fill="#f88a10" stroke="#f88a10"></path>
        <path d="M817.5 1026L862.2 1031L902.2 909Z" fill="#f88a10" stroke="#f88a10"></path>
        <path d="M902.2 909L1040.8 1080L1027.8 849Z" fill="#f57e08" stroke="#f57e08"></path>
        <path d="M817.5 1026L902.2 909L756.5 879Z" fill="#ffa726" stroke="#ffa726"></path>
        <path d="M817.5 1026L756.5 879L761.5 1080Z" fill="#f37804" stroke="#f37804"></path>
        <path d="M761.5 1080L756.5 879L672.8 1080Z" fill="#f6840c" stroke="#f6840c"></path>
        <path d="M813.5 297L688.8 308L724.5 461Z" fill="#fc9c1d" stroke="#fc9c1d"></path>
        <path d="M1266.2 507L1170.5 312L1023.8 367Z" fill="#f6840c" stroke="#f6840c"></path>
        <path d="M982.8 316L1066.8 100L953.2 305Z" fill="#fb9619" stroke="#fb9619"></path>
        <path d="M953.2 305L923.2 64L813.5 297Z" fill="#f17202" stroke="#f17202"></path>
        <path d="M531.1 623L486.1 710L547.8 770Z" fill="#f99014" stroke="#f99014"></path>
        <path d="M372.1 744L486.1 710L335.4 645Z" fill="#ffa726" stroke="#ffa726"></path>
        <path d="M1097.5 1080L1236.2 938L1086.8 858Z" fill="#fb9619" stroke="#fb9619"></path>
        <path d="M1435.9 778L1394.9 634L1297.2 599Z" fill="#f6840c" stroke="#f6840c"></path>
        <path d="M817.5 1026L870.2 1080L862.2 1031Z" fill="#f57e08" stroke="#f57e08"></path>
        <path d="M862.2 1031L1040.8 1080L902.2 909Z" fill="#fc9c1d" stroke="#fc9c1d"></path>
        <path d="M761.5 1080L870.2 1080L817.5 1026Z" fill="#fea121" stroke="#fea121"></path>
        <path d="M1269.2 362L1197.5 297L1170.5 312Z" fill="#f57e08" stroke="#f57e08"></path>
        <path d="M1170.5 312L1066.8 100L982.8 316Z" fill="#f99014" stroke="#f99014"></path>
        <path d="M1269.2 362L1170.5 312L1266.2 507Z" fill="#f57e08" stroke="#f57e08"></path>
        <path d="M1404.9 364L1269.2 362L1266.2 507Z" fill="#ef6c00" stroke="#ef6c00"></path>
        <path d="M870.2 1080L1040.8 1080L862.2 1031Z" fill="#ef6c00" stroke="#ef6c00"></path>
        <path d="M672.8 1080L681.8 846L448.1 998Z" fill="#f88a10" stroke="#f88a10"></path>
        <path d="M681.8 846L631.8 808L448.1 998Z" fill="#ffa726" stroke="#ffa726"></path>
        <path d="M1040.8 1080L1097.5 1080L1086.8 858Z" fill="#fb9619" stroke="#fb9619"></path>
        <path d="M1435.9 778L1297.2 599L1174.5 854Z" fill="#f99014" stroke="#f99014"></path>
        <path d="M1297.2 599L1453.9 466L1266.2 507Z" fill="#fea121" stroke="#fea121"></path>
        <path d="M448.1 998L631.8 808L547.8 770Z" fill="#ffa726" stroke="#ffa726"></path>
        <path d="M1355.2 1080L1360.2 892L1236.2 938Z" fill="#f88a10" stroke="#f88a10"></path>
        <path d="M1236.2 938L1360.2 892L1174.5 854Z" fill="#f37804" stroke="#f37804"></path>
        <path d="M1360.2 892L1435.9 778L1174.5 854Z" fill="#fb9619" stroke="#fb9619"></path>
        <path d="M335.4 645L486.1 710L531.1 623Z" fill="#f88a10" stroke="#f88a10"></path>
        <path d="M486.1 710L372.1 744L547.8 770Z" fill="#f6840c" stroke="#f6840c"></path>
        <path d="M688.8 308L437.1 363L724.5 461Z" fill="#f6840c" stroke="#f6840c"></path>
        <path d="M1574.6 716L1464.9 567L1394.9 634Z" fill="#ef6c00" stroke="#ef6c00"></path>
        <path d="M1394.9 634L1464.9 567L1297.2 599Z" fill="#f6840c" stroke="#f6840c"></path>
        <path d="M1259.2 85L1197.5 297L1275.5 84Z" fill="#f57e08" stroke="#f57e08"></path>
        <path d="M1259.2 85L1066.8 100L1197.5 297Z" fill="#f37804" stroke="#f37804"></path>
        <path d="M1197.5 297L1066.8 100L1170.5 312Z" fill="#f37804" stroke="#f37804"></path>
        <path d="M813.5 297L648.8 133L688.8 308Z" fill="#fea121" stroke="#fea121"></path>
        <path d="M688.8 308L527.8 197L437.1 363Z" fill="#fb9619" stroke="#fb9619"></path>
        <path d="M1453.9 466L1404.9 364L1266.2 507Z" fill="#fb9619" stroke="#fb9619"></path>
        <path d="M1464.9 567L1453.9 466L1297.2 599Z" fill="#f17202" stroke="#f17202"></path>
        <path d="M665.5 103L648.8 133L813.5 297Z" fill="#f88a10" stroke="#f88a10"></path>
        <path d="M347.4 514L335.4 645L531.1 623Z" fill="#f57e08" stroke="#f57e08"></path>
        <path d="M1066.8 100L923.2 64L953.2 305Z" fill="#f88a10" stroke="#f88a10"></path>
        <path d="M437.1 363L347.4 514L531.1 623Z" fill="#ffa726" stroke="#ffa726"></path>
        <path d="M344.4 875L448.1 998L547.8 770Z" fill="#fb9619" stroke="#fb9619"></path>
        <path d="M344.4 875L547.8 770L372.1 744Z" fill="#fb9619" stroke="#fb9619"></path>
        <path d="M648.8 133L527.8 197L688.8 308Z" fill="#ef6c00" stroke="#ef6c00"></path>
        <path d="M437.1 363L315.4 359L347.4 514Z" fill="#fb9619" stroke="#fb9619"></path>
        <path d="M1453.9 466L1425.2 345L1404.9 364Z" fill="#f57e08" stroke="#f57e08"></path>
        <path d="M1404.9 364L1425.2 345L1269.2 362Z" fill="#ef6c00" stroke="#ef6c00"></path>
        <path d="M923.2 64L665.5 103L813.5 297Z" fill="#ef6c00" stroke="#ef6c00"></path>
        <path d="M648.8 133L445.1 0L527.8 197Z" fill="#fc9c1d" stroke="#fc9c1d"></path>
        <path d="M216.7 748L344.4 875L372.1 744Z" fill="#f17202" stroke="#f17202"></path>
        <path d="M527.8 197L387.1 314L437.1 363Z" fill="#f17202" stroke="#f17202"></path>
        <path d="M1097.5 1080L1355.2 1080L1236.2 938Z" fill="#ffa726" stroke="#ffa726"></path>
        <path d="M1360.2 892L1481.9 897L1435.9 778Z" fill="#ffa726" stroke="#ffa726"></path>
        <path d="M1355.2 1080L1481.9 897L1360.2 892Z" fill="#ffa726" stroke="#ffa726"></path>
        <path d="M1435.9 778L1574.6 716L1394.9 634Z" fill="#f17202" stroke="#f17202"></path>
        <path d="M923.2 64L819.5 0L665.5 103Z" fill="#fb9619" stroke="#fb9619"></path>
        <path d="M1042.8 0L839.2 0L923.2 64Z" fill="#f6840c" stroke="#f6840c"></path>
        <path d="M839.2 0L819.5 0L923.2 64Z" fill="#ffa726" stroke="#ffa726"></path>
        <path d="M1132.5 0L1042.8 0L1066.8 100Z" fill="#ffa726" stroke="#ffa726"></path>
        <path d="M1066.8 100L1042.8 0L923.2 64Z" fill="#ffa726" stroke="#ffa726"></path>
        <path d="M1275.5 84L1197.5 297L1269.2 362Z" fill="#f17202" stroke="#f17202"></path>
        <path d="M387.1 314L315.4 359L437.1 363Z" fill="#f88a10" stroke="#f88a10"></path>
        <path d="M185.7 608L216.7 748L335.4 645Z" fill="#f6840c" stroke="#f6840c"></path>
        <path d="M216.7 748L310.4 956L344.4 875Z" fill="#f57e08" stroke="#f57e08"></path>
        <path d="M342.4 281L315.4 359L387.1 314Z" fill="#fc9c1d" stroke="#fc9c1d"></path>
        <path d="M1425.2 345L1275.5 84L1269.2 362Z" fill="#ffa726" stroke="#ffa726"></path>
        <path d="M1259.2 85L1132.5 0L1066.8 100Z" fill="#f99014" stroke="#f99014"></path>
        <path d="M1481.9 897L1574.6 716L1435.9 778Z" fill="#f99014" stroke="#f99014"></path>
        <path d="M1464.9 567L1620.6 540L1453.9 466Z" fill="#fb9619" stroke="#fb9619"></path>
        <path d="M1666.6 386L1546.9 203L1425.2 345Z" fill="#ffa726" stroke="#ffa726"></path>
        <path d="M390.1 208L387.1 314L527.8 197Z" fill="#fea121" stroke="#fea121"></path>
        <path d="M390.1 208L342.4 281L387.1 314Z" fill="#ffa726" stroke="#ffa726"></path>
        <path d="M390.1 208L527.8 197L376.4 121Z" fill="#fb9619" stroke="#fb9619"></path>
        <path d="M1321.2 0L1132.5 0L1259.2 85Z" fill="#fc9c1d" stroke="#fc9c1d"></path>
        <path d="M643.8 0L648.8 133L665.5 103Z" fill="#f57e08" stroke="#f57e08"></path>
        <path d="M344.4 875L310.4 956L448.1 998Z" fill="#fb9619" stroke="#fb9619"></path>
        <path d="M448.1 998L344.1 1080L672.8 1080Z" fill="#ef6c00" stroke="#ef6c00"></path>
        <path d="M216.7 748L372.1 744L335.4 645Z" fill="#f57e08" stroke="#f57e08"></path>
        <path d="M819.5 0L643.8 0L665.5 103Z" fill="#f99014" stroke="#f99014"></path>
        <path d="M185.7 608L335.4 645L347.4 514Z" fill="#f57e08" stroke="#f57e08"></path>
        <path d="M1574.6 716L1620.6 540L1464.9 567Z" fill="#f17202" stroke="#f17202"></path>
        <path d="M1570.6 156L1321.2 0L1275.5 84Z" fill="#f17202" stroke="#f17202"></path>
        <path d="M284.4 1080L344.1 1080L310.4 956Z" fill="#f57e08" stroke="#f57e08"></path>
        <path d="M310.4 956L344.1 1080L448.1 998Z" fill="#f37804" stroke="#f37804"></path>
        <path d="M130.7 400L347.4 514L315.4 359Z" fill="#f88a10" stroke="#f88a10"></path>
        <path d="M130.7 400L185.7 608L347.4 514Z" fill="#f37804" stroke="#f37804"></path>
        <path d="M1355.2 1080L1515.9 1080L1481.9 897Z" fill="#f6840c" stroke="#f6840c"></path>
        <path d="M1481.9 897L1676.6 865L1574.6 716Z" fill="#ef6c00" stroke="#ef6c00"></path>
        <path d="M1574.6 716L1765.3 626L1620.6 540Z" fill="#ffa726" stroke="#ffa726"></path>
        <path d="M390.1 208L182.7 200L342.4 281Z" fill="#f57e08" stroke="#f57e08"></path>
        <path d="M182.7 200L130.7 400L315.4 359Z" fill="#f37804" stroke="#f37804"></path>
        <path d="M445.1 0L376.4 121L527.8 197Z" fill="#f6840c" stroke="#f6840c"></path>
        <path d="M1546.9 203L1275.5 84L1425.2 345Z" fill="#f37804" stroke="#f37804"></path>
        <path d="M1275.5 84L1321.2 0L1259.2 85Z" fill="#f99014" stroke="#f99014"></path>
        <path d="M1515.9 1080L1535.6 1080L1481.9 897Z" fill="#fc9c1d" stroke="#fc9c1d"></path>
        <path d="M81.7 950L284.4 1080L310.4 956Z" fill="#ffa726" stroke="#ffa726"></path>
        <path d="M81.7 950L310.4 956L216.7 748Z" fill="#f57e08" stroke="#f57e08"></path>
        <path d="M1666.6 386L1425.2 345L1453.9 466Z" fill="#f57e08" stroke="#f57e08"></path>
        <path d="M643.8 0L445.1 0L648.8 133Z" fill="#f37804" stroke="#f37804"></path>
        <path d="M1689.3 892L1676.6 865L1481.9 897Z" fill="#fc9c1d" stroke="#fc9c1d"></path>
        <path d="M1840.3 544L1666.6 386L1620.6 540Z" fill="#f6840c" stroke="#f6840c"></path>
        <path d="M1620.6 540L1666.6 386L1453.9 466Z" fill="#f17202" stroke="#f17202"></path>
        <path d="M1535.6 1080L1689.3 892L1481.9 897Z" fill="#f6840c" stroke="#f6840c"></path>
        <path d="M1676.6 865L1765.3 626L1574.6 716Z" fill="#fea121" stroke="#fea121"></path>
        <path d="M1672.6 261L1570.6 156L1546.9 203Z" fill="#ef6c00" stroke="#ef6c00"></path>
        <path d="M1546.9 203L1570.6 156L1275.5 84Z" fill="#f37804" stroke="#f37804"></path>
        <path d="M182.7 200L315.4 359L342.4 281Z" fill="#ffa726" stroke="#ffa726"></path>
        <path d="M56.7 882L81.7 950L216.7 748Z" fill="#f37804" stroke="#f37804"></path>
        <path d="M182.7 200L390.1 208L376.4 121Z" fill="#f99014" stroke="#f99014"></path>
        <path d="M1723.3 1080L1720.6 891L1689.3 892Z" fill="#fb9619" stroke="#fb9619"></path>
        <path d="M1689.3 892L1720.6 891L1676.6 865Z" fill="#fc9c1d" stroke="#fc9c1d"></path>
        <path d="M1666.6 386L1672.6 261L1546.9 203Z" fill="#fea121" stroke="#fea121"></path>
        <path d="M1725.3 330L1672.6 261L1666.6 386Z" fill="#fb9619" stroke="#fb9619"></path>
        <path d="M1720.6 891L1765.3 626L1676.6 865Z" fill="#f17202" stroke="#f17202"></path>
        <path d="M176.7 72L182.7 200L376.4 121Z" fill="#f37804" stroke="#f37804"></path>
        <path d="M1840.3 544L1725.3 330L1666.6 386Z" fill="#fb9619" stroke="#fb9619"></path>
        <path d="M56.7 882L216.7 748L0 786Z" fill="#fc9c1d" stroke="#fc9c1d"></path>
        <path d="M0 736L216.7 748L185.7 608Z" fill="#ffa726" stroke="#ffa726"></path>
        <path d="M1920 310L1739.3 275L1725.3 330Z" fill="#fea121" stroke="#fea121"></path>
        <path d="M1725.3 330L1739.3 275L1672.6 261Z" fill="#ef6c00" stroke="#ef6c00"></path>
        <path d="M1672.6 261L1697.3 104L1570.6 156Z" fill="#f17202" stroke="#f17202"></path>
        <path d="M445.1 0L266.4 0L376.4 121Z" fill="#f88a10" stroke="#f88a10"></path>
        <path d="M0 534L0 736L185.7 608Z" fill="#fb9619" stroke="#fb9619"></path>
        <path d="M56.7 882L0 898L81.7 950Z" fill="#f88a10" stroke="#f88a10"></path>
        <path d="M0 534L185.7 608L130.7 400Z" fill="#f88a10" stroke="#f88a10"></path>
        <path d="M0 406L130.7 400L0 206Z" fill="#f57e08" stroke="#f57e08"></path>
        <path d="M0 406L0 534L130.7 400Z" fill="#f6840c" stroke="#f6840c"></path>
        <path d="M1697.3 104L1571.9 0L1570.6 156Z" fill="#f6840c" stroke="#f6840c"></path>
        <path d="M1570.6 156L1571.9 0L1321.2 0Z" fill="#f99014" stroke="#f99014"></path>
        <path d="M1535.6 1080L1723.3 1080L1689.3 892Z" fill="#f17202" stroke="#f17202"></path>
        <path d="M1920 620L1840.3 544L1765.3 626Z" fill="#f88a10" stroke="#f88a10"></path>
        <path d="M0 736L0 786L216.7 748Z" fill="#f6840c" stroke="#f6840c"></path>
        <path d="M266.4 0L176.7 72L376.4 121Z" fill="#f88a10" stroke="#f88a10"></path>
        <path d="M1765.3 626L1840.3 544L1620.6 540Z" fill="#f57e08" stroke="#f57e08"></path>
        <path d="M1920 720L1765.3 626L1720.6 891Z" fill="#f99014" stroke="#f99014"></path>
        <path d="M0 206L130.7 400L182.7 200Z" fill="#f37804" stroke="#f37804"></path>
        <path d="M0 786L0 898L56.7 882Z" fill="#ef6c00" stroke="#ef6c00"></path>
        <path d="M81.7 950L47.7 1080L284.4 1080Z" fill="#f6840c" stroke="#f6840c"></path>
        <path d="M1739.3 275L1697.3 104L1672.6 261Z" fill="#fc9c1d" stroke="#fc9c1d"></path>
        <path d="M1804.3 0L1697.3 104L1920 56Z" fill="#fea121" stroke="#fea121"></path>
        <path d="M1723.3 1080L1825.3 928L1720.6 891Z" fill="#ffa726" stroke="#ffa726"></path>
        <path d="M0 1080L47.7 1080L81.7 950Z" fill="#f57e08" stroke="#f57e08"></path>
        <path d="M266.4 0L163.7 0L176.7 72Z" fill="#f57e08" stroke="#f57e08"></path>
        <path d="M0 136L0 206L182.7 200Z" fill="#f99014" stroke="#f99014"></path>
        <path d="M1804.3 0L1676.6 0L1697.3 104Z" fill="#fc9c1d" stroke="#fc9c1d"></path>
        <path d="M1697.3 104L1676.6 0L1571.9 0Z" fill="#fc9c1d" stroke="#fc9c1d"></path>
        <path d="M1920 720L1920 620L1765.3 626Z" fill="#f17202" stroke="#f17202"></path>
        <path d="M1840.3 544L1920 483L1725.3 330Z" fill="#ffa726" stroke="#ffa726"></path>
        <path d="M1920 836L1920 720L1720.6 891Z" fill="#fc9c1d" stroke="#fc9c1d"></path>
        <path d="M0 136L182.7 200L176.7 72Z" fill="#ef6c00" stroke="#ef6c00"></path>
        <path d="M0 898L0 1080L81.7 950Z" fill="#f88a10" stroke="#f88a10"></path>
        <path d="M1920 620L1920 483L1840.3 544Z" fill="#f37804" stroke="#f37804"></path>
        <path d="M1920 931L1920 836L1825.3 928Z" fill="#fc9c1d" stroke="#fc9c1d"></path>
        <path d="M1825.3 928L1920 836L1720.6 891Z" fill="#fea121" stroke="#fea121"></path>
        <path d="M0 0L0 136L176.7 72Z" fill="#fea121" stroke="#fea121"></path>
        <path d="M1920 1080L1920 931L1825.3 928Z" fill="#f88a10" stroke="#f88a10"></path>
        <path d="M1920 483L1920 310L1725.3 330Z" fill="#fc9c1d" stroke="#fc9c1d"></path>
        <path d="M1920 56L1697.3 104L1739.3 275Z" fill="#f37804" stroke="#f37804"></path>
        <path d="M1723.3 1080L1920 1080L1825.3 928Z" fill="#f37804" stroke="#f37804"></path>
        <path d="M163.7 0L0 0L176.7 72Z" fill="#ffa726" stroke="#ffa726"></path>
        <path d="M1920 310L1920 56L1739.3 275Z" fill="#f88a10" stroke="#f88a10"></path>
        <path d="M1920 56L1920 0L1804.3 0Z" fill="#f99014" stroke="#f99014"></path>
    </g>
</svg>
