<svg height="614.27258" viewBox="0 0 801.19718 614.27258" width="801.19718" xmlns="http://www.w3.org/2000/svg">
    <path d="m667.75692 510.65184h-468.35551v-351.389h468.35551z" fill="#fff"
          transform="translate(-199.40141 -142.86371)"/>
    <circle cx="113.49141" cy="71.09365" fill="#e6e6e6" r="18.64295"/>
    <g transform="translate(-199.40141 -142.86371)">
        <path d="m355.94913 201.52872a3.10716 3.10716 0 0 0 0 6.21431h226.85872a3.10716 3.10716 0 0 0 0-6.21431z"
              fill="#e6e6e6"/>
        <path d="m355.94913 220.17163a3.10716 3.10716 0 1 0 -.01311 6.21431h143.42243a3.10716 3.10716 0 1 0 0-6.21431z"
              fill="#e6e6e6"/>
        <path d="m667.75692 510.65184h-468.35551v-351.389h468.35551zm-463.11344-5.24207h457.87137v-340.90483h-457.87137z"
              fill="#e6e6e6"/>
        <path d="m225.57906 266.42192v209h416v-209zm414 51.75h-101.5v-49.75h101.5zm-205 0v-49.75h101.5v49.75zm101.5 2v49.75h-101.5v-49.75zm-103.5-2h-101.5v-49.75h101.5zm0 2v49.75h-101.5v-49.75zm-103.5 49.75h-101.5v-49.75h101.5zm0 2v49.75h-101.5v-49.75zm2 0h101.5v49.75h-101.5zm101.5 51.75v49.75h-101.5v-49.75zm2 0h101.5v49.75h-101.5zm0-2v-49.75h101.5v49.75zm103.5-49.75h101.5v49.75h-101.5zm0-2v-49.75h101.5v49.75zm-209-101.5v49.75h-101.5v-49.75zm-101.5 155.25h101.5v49.75h-101.5zm310.5 49.75v-49.75h101.5v49.75z"
              fill="#e4e4e4"/>
        <path d="m396.35088 322.64939-41.39272-.93718c-4.14034-16.03871-2.27631-31.30987 1.0277-45.38227l41.39252.93715a90.6291 90.6291 0 0 0 -1.0275 45.3823z"
              fill="#5569ff"/>
    </g>
    <path d="m163.676 143.496.022-1.575 21.445.766-.023 1.575z" fill="#fff"/>
    <path d="m163.586 149.796.022-1.575 21.444.767-.022 1.575z" fill="#fff"/>
    <path d="m163.495 156.096.023-1.575 21.444.767-.022 1.575z" fill="#fff"/>
    <path d="m163.405 162.396.022-1.575 21.445.767-.023 1.575z" fill="#fff"/>
    <path d="m163.315 168.696.022-1.575 21.445.767-.023 1.575z" fill="#fff"/>
    <path d="m306.35088 438.64939-41.39272-.93718c-4.14034-16.03871-2.27631-31.30987 1.0277-45.38227l41.39252.93715a90.6291 90.6291 0 0 0 -1.0275 45.3823z"
          fill="#f0f0f0" transform="translate(-199.40141 -142.86371)"/>
    <path d="m73.676 259.496.022-1.575 21.445.766-.023 1.575z" fill="#fff"/>
    <path d="m73.586 265.796.022-1.575 21.444.767-.022 1.575z" fill="#fff"/>
    <path d="m73.495 272.096.023-1.575 21.444.767-.022 1.575z" fill="#fff"/>
    <path d="m73.405 278.396.022-1.575 21.445.767-.023 1.575z" fill="#fff"/>
    <path d="m73.315 284.696.022-1.575 21.445.767-.023 1.575z" fill="#fff"/>
    <path d="m522.35088 385.64939-41.39272-.93718c-4.14034-16.03871-2.27631-31.30987 1.0277-45.38227l41.39252.93715a90.6291 90.6291 0 0 0 -1.0275 45.3823z"
          fill="#f0f0f0" transform="translate(-199.40141 -142.86371)"/>
    <path d="m289.676 206.496.022-1.575 21.445.766-.023 1.575z" fill="#fff"/>
    <path d="m289.586 212.796.022-1.575 21.444.767-.022 1.575z" fill="#fff"/>
    <path d="m289.495 219.096.023-1.575 21.444.767-.022 1.575z" fill="#fff"/>
    <path d="m289.405 225.396.022-1.575 21.445.767-.023 1.575z" fill="#fff"/>
    <path d="m289.315 231.696.022-1.575 21.445.767-.023 1.575z" fill="#fff"/>
    <path d="m504.35088 375.64939-41.39272-.93718c-4.14034-16.03871-2.27631-31.30987 1.0277-45.38227l41.39252.93715a90.6291 90.6291 0 0 0 -1.0275 45.3823z"
          fill="#5569ff" transform="translate(-199.40141 -142.86371)"/>
    <path d="m271.676 196.496.022-1.575 21.445.766-.023 1.575z" fill="#fff"/>
    <path d="m271.586 202.796.022-1.575 21.444.767-.022 1.575z" fill="#fff"/>
    <path d="m271.495 209.096.023-1.575 21.444.767-.022 1.575z" fill="#fff"/>
    <path d="m271.405 215.396.022-1.575 21.445.767-.023 1.575z" fill="#fff"/>
    <path d="m271.315 221.696.022-1.575 21.445.767-.023 1.575z" fill="#fff"/>
    <path d="m657.017 466.999-41.39273-.93718c-4.14034-16.03871-2.27631-31.30987 1.02771-45.38227l41.39251.93715a90.6291 90.6291 0 0 0 -1.02749 45.3823z"
          fill="#5569ff" transform="translate(-199.40141 -142.86371)"/>
    <path d="m424.342 287.845.023-1.575 21.444.767-.023 1.575z" fill="#fff"/>
    <path d="m424.252 294.145.022-1.575 21.445.767-.023 1.575z" fill="#fff"/>
    <path d="m424.161 300.446.023-1.575 21.444.766-.022 1.575z" fill="#fff"/>
    <path d="m424.071 306.746.023-1.575 21.444.766-.023 1.575z" fill="#fff"/>
    <path d="m423.981 313.046.022-1.575 21.445.767-.023 1.575z" fill="#fff"/>
    <path d="m612.35088 330.64939-41.39272-.93718c-4.14034-16.03871-2.27631-31.30987 1.0277-45.38227l41.39252.93715a90.6291 90.6291 0 0 0 -1.0275 45.3823z"
          fill="#f0f0f0" transform="translate(-199.40141 -142.86371)"/>
    <path d="m379.676 151.496.022-1.575 21.445.766-.023 1.575z" fill="#fff"/>
    <path d="m379.586 157.796.022-1.575 21.444.767-.022 1.575z" fill="#fff"/>
    <path d="m379.495 164.096.023-1.575 21.444.767-.022 1.575z" fill="#fff"/>
    <path d="m379.405 170.396.022-1.575 21.445.767-.023 1.575z" fill="#fff"/>
    <path d="m379.315 176.696.022-1.575 21.445.767-.023 1.575z" fill="#fff"/>
    <path d="m654.78481 433.55383a10.05579 10.05579 0 0 0 6.786-13.84578l26.09919-24.4093-18.0556-4.33922-22.01607 23.84474a10.11028 10.11028 0 0 0 7.1865 18.74956z"
          fill="#ffb8b8" transform="translate(-199.40141 -142.86371)"/>
    <path d="m668.26737 413.892-12.17171-17.16138 45.71846-47.28659 10.61553-74.53553a25.35292 25.35292 0 0 1 33.19643-20.44981 25.37994 25.37994 0 0 1 15.92679 32.12217l-27.08463 80.35815z"
          fill="#e4e4e4" transform="translate(-199.40141 -142.86371)"/>
    <path d="m554.708 588.617-13.512-.001-6.428-52.117 19.943.001z" fill="#ffb8b8"/>
    <path d="m761.37838 757.13629h-9.58777l-1.71137-9.052-4.38308 9.052h-25.429a5.71622 5.71622 0 0 1 -3.24815-10.42013l20.30688-14.02466v-9.15125l21.35929 1.27486z"
          fill="#2f2e41" transform="translate(-199.40141 -142.86371)"/>
    <path d="m638.069 574.867-11.869 6.458-30.557-42.706 17.517-9.531z" fill="#ffb8b8"/>
    <path d="m856.11741 736.79167-8.42164 4.58269-5.82984-7.133.47662 10.046-22.33622 12.1544a5.71622 5.71622 0 0 1 -7.83363-7.60025l11.13363-22.025-4.37405-8.03822 19.37081-9.08937z"
          fill="#2f2e41" transform="translate(-199.40141 -142.86371)"/>
    <path d="m759.802 712.92192h-27.92362v-99.43457l-17.28711-64.82617a371.10613 371.10613 0 0 1 -9.709-142.30127l.02417-.19482.15015-.126c.44385-.373 44.68872-36.957 72.67529-8.9707 18.864 18.86425 1.13843 86.6958.14649 90.41894v116.93459z"
          fill="#2f2e41" transform="translate(-199.40141 -142.86371)"/>
    <path d="m696.37838 424.42192 9-90c-1.16919-2.4541-18-18-.40186-45.33252l19.0083-44.61767 35.59741-.55323.14966.14991a71.70284 71.70284 0 0 1 19.6482 64.894l-10.48926 52.44727 9.08838 36.354z"
          fill="#e4e4e4" transform="translate(-199.40141 -142.86371)"/>
    <path d="m543.742 471.137 57.364 80.687 22.005-15.645-47.909-98.451z" fill="#2f2e41"/>
    <circle cx="539.05571" cy="59.66845" fill="#ffb8b8" r="32.87"/>
    <path d="m530.977 178.558 9 54-9 45h-18l8.182-45z" opacity=".1"/>
    <path d="m738.965 466.787a10.05579 10.05579 0 0 0 -.53235-15.41014l11.5323-33.82285-17.97207 4.67314-8.196 31.40231a10.11027 10.11027 0 0 0 15.16812 13.15754z"
          fill="#ffb8b8" transform="translate(-199.40141 -142.86371)"/>
    <path d="m741.602 443.09282-18.81836-9.40918 18.06936-63.24316-25.729-70.75489a25.35292 25.35292 0 0 1 19.658-33.67138 25.38 25.38 0 0 1 29.17523 20.83979l13.94117 83.646z"
          fill="#e4e4e4" transform="translate(-199.40141 -142.86371)"/>
    <path d="m1000.59859 755.94194a1.18663 1.18663 0 0 1 -1.18994 1.19h-647.29a1.19 1.19 0 1 1 0-2.38h647.29a1.193 1.193 0 0 1 1.18994 1.19z"
          fill="#cacaca" transform="translate(-199.40141 -142.86371)"/>
    <path d="m866.29571 200.92492c-4.147 6.73212-12.93122 9.69989-20.72236 8.35193-7.79113-1.3479-14.56121-6.37658-19.56158-12.50146-5.00043-6.12494-8.45929-13.33454-11.8631-20.47119-3.40381-7.13672-6.84692-14.35181-11.82226-20.497-4.97535-6.14527-11.70966-11.21259-19.48957-12.624-4.23407-.76812-9.02972-.261-12.11914 2.73444a11.80248 11.80248 0 0 0 -3.2381 8.3313 8.70266 8.70266 0 0 0 -11.58221 8.63678c-.11523-.0022-.22913-.00983-.34436-.00983-14.49615-8.24164-36.4989-3.45392-36.4989 5.54608-7.9541 0-17.67578 7.85529-17.67578 19.78363v.00006c16.44848 0 26.12823 21.07471 16.52612 36.18561a103.28775 103.28775 0 0 1 -8.18018 11.0307h20.56871a17.13739 17.13739 0 0 0 3.01819-8.37134 38.50432 38.50432 0 0 1 1.34637 8.37134s56.18494 7.23975 41.68341-48.76294a5.868 5.868 0 0 0 2.71784-.82373c2.18976-1.31976 3.38232-4.111 3.59112-6.9433q.813.21735 1.62116.43366c3.86566 1.04352 7.88092 2.39563 10.53418 5.39441 4.48419 5.06817 3.54095 12.76068 5.16919 19.3291 1.96362 7.92108 7.83789 14.32794 14.36352 19.22845 7.01123 5.26514 15.20142 9.26526 23.93006 10.09559 8.7287.83032 18.01672-1.824 24.06482-8.17218s8.15414-16.57463 3.96285-24.27611z"
          fill="#2f2e41" transform="translate(-199.40141 -142.86371)"/>
</svg>