<svg id="ee53e21e-3957-4d81-a8a1-5950f465cd80" data-name="Layer 1" xmlns="http://www.w3.org/2000/svg" width="801.19718"
     height="614.27258" viewBox="0 0 801.19718 614.27258">
    <path d="M667.75692,510.65184H199.40141v-351.389H667.75692Z" transform="translate(-199.40141 -142.86371)"
          fill="#fff"/>
    <circle cx="113.49141" cy="71.09365" r="18.64295" fill="#e6e6e6"/>
    <path d="M355.94913,201.52872a3.10716,3.10716,0,0,0,0,6.21431H582.80785a3.10716,3.10716,0,0,0,0-6.21431Z"
          transform="translate(-199.40141 -142.86371)" fill="#e6e6e6"/>
    <path d="M355.94913,220.17163a3.10716,3.10716,0,1,0-.01311,6.21431H499.35845a3.10716,3.10716,0,1,0,0-6.21431Z"
          transform="translate(-199.40141 -142.86371)" fill="#e6e6e6"/>
    <path d="M667.75692,510.65184H199.40141v-351.389H667.75692Zm-463.11344-5.24207H662.51485V164.50494H204.64348Z"
          transform="translate(-199.40141 -142.86371)" fill="#e6e6e6"/>
    <path d="M225.57906,266.42192v209h416v-209Zm414,51.75h-101.5v-49.75h101.5Zm-205,0v-49.75h101.5v49.75Zm101.5,2v49.75h-101.5v-49.75Zm-103.5-2h-101.5v-49.75h101.5Zm0,2v49.75h-101.5v-49.75Zm-103.5,49.75h-101.5v-49.75h101.5Zm0,2v49.75h-101.5v-49.75Zm2,0h101.5v49.75h-101.5Zm101.5,51.75v49.75h-101.5v-49.75Zm2,0h101.5v49.75h-101.5Zm0-2v-49.75h101.5v49.75Zm103.5-49.75h101.5v49.75h-101.5Zm0-2v-49.75h101.5v49.75Zm-209-101.5v49.75h-101.5v-49.75Zm-101.5,155.25h101.5v49.75h-101.5Zm310.5,49.75v-49.75h101.5v49.75Z"
          transform="translate(-199.40141 -142.86371)" fill="#e4e4e4"/>
    <path d="M396.35088,322.64939l-41.39272-.93718c-4.14034-16.03871-2.27631-31.30987,1.0277-45.38227l41.39252.93715A90.6291,90.6291,0,0,0,396.35088,322.64939Z"
          transform="translate(-199.40141 -142.86371)" fill="#5569ff"/>
    <polygon points="163.676 143.496 163.698 141.921 185.143 142.687 185.12 144.262 163.676 143.496" fill="#fff"/>
    <polygon points="163.586 149.796 163.608 148.221 185.052 148.988 185.03 150.563 163.586 149.796" fill="#fff"/>
    <polygon points="163.495 156.096 163.518 154.521 184.962 155.288 184.94 156.863 163.495 156.096" fill="#fff"/>
    <polygon points="163.405 162.396 163.427 160.821 184.872 161.588 184.849 163.163 163.405 162.396" fill="#fff"/>
    <polygon points="163.315 168.696 163.337 167.121 184.782 167.888 184.759 169.463 163.315 168.696" fill="#fff"/>
    <path d="M306.35088,438.64939l-41.39272-.93718c-4.14034-16.03871-2.27631-31.30987,1.0277-45.38227l41.39252.93715A90.6291,90.6291,0,0,0,306.35088,438.64939Z"
          transform="translate(-199.40141 -142.86371)" fill="#f0f0f0"/>
    <polygon points="73.676 259.496 73.698 257.921 95.143 258.687 95.12 260.262 73.676 259.496" fill="#fff"/>
    <polygon points="73.586 265.796 73.608 264.221 95.052 264.988 95.03 266.563 73.586 265.796" fill="#fff"/>
    <polygon points="73.495 272.096 73.518 270.521 94.962 271.288 94.94 272.863 73.495 272.096" fill="#fff"/>
    <polygon points="73.405 278.396 73.427 276.821 94.872 277.588 94.849 279.163 73.405 278.396" fill="#fff"/>
    <polygon points="73.315 284.696 73.337 283.121 94.782 283.888 94.759 285.463 73.315 284.696" fill="#fff"/>
    <path d="M522.35088,385.64939l-41.39272-.93718c-4.14034-16.03871-2.27631-31.30987,1.0277-45.38227l41.39252.93715A90.6291,90.6291,0,0,0,522.35088,385.64939Z"
          transform="translate(-199.40141 -142.86371)" fill="#f0f0f0"/>
    <polygon points="289.676 206.496 289.698 204.921 311.143 205.687 311.12 207.262 289.676 206.496" fill="#fff"/>
    <polygon points="289.586 212.796 289.608 211.221 311.052 211.988 311.03 213.563 289.586 212.796" fill="#fff"/>
    <polygon points="289.495 219.096 289.518 217.521 310.962 218.288 310.94 219.863 289.495 219.096" fill="#fff"/>
    <polygon points="289.405 225.396 289.427 223.821 310.872 224.588 310.849 226.163 289.405 225.396" fill="#fff"/>
    <polygon points="289.315 231.696 289.337 230.121 310.782 230.888 310.759 232.463 289.315 231.696" fill="#fff"/>
    <path d="M504.35088,375.64939l-41.39272-.93718c-4.14034-16.03871-2.27631-31.30987,1.0277-45.38227l41.39252.93715A90.6291,90.6291,0,0,0,504.35088,375.64939Z"
          transform="translate(-199.40141 -142.86371)" fill="#5569ff"/>
    <polygon points="271.676 196.496 271.698 194.921 293.143 195.687 293.12 197.262 271.676 196.496" fill="#fff"/>
    <polygon points="271.586 202.796 271.608 201.221 293.052 201.988 293.03 203.563 271.586 202.796" fill="#fff"/>
    <polygon points="271.495 209.096 271.518 207.521 292.962 208.288 292.94 209.863 271.495 209.096" fill="#fff"/>
    <polygon points="271.405 215.396 271.427 213.821 292.872 214.588 292.849 216.163 271.405 215.396" fill="#fff"/>
    <polygon points="271.315 221.696 271.337 220.121 292.782 220.888 292.759 222.463 271.315 221.696" fill="#fff"/>
    <path d="M657.017,466.999l-41.39273-.93718c-4.14034-16.03871-2.27631-31.30987,1.02771-45.38227l41.39251.93715A90.6291,90.6291,0,0,0,657.017,466.999Z"
          transform="translate(-199.40141 -142.86371)" fill="#5569ff"/>
    <polygon points="424.342 287.845 424.365 286.27 445.809 287.037 445.786 288.612 424.342 287.845" fill="#fff"/>
    <polygon points="424.252 294.145 424.274 292.57 445.719 293.337 445.696 294.912 424.252 294.145" fill="#fff"/>
    <polygon points="424.161 300.446 424.184 298.871 445.628 299.637 445.606 301.212 424.161 300.446" fill="#fff"/>
    <polygon points="424.071 306.746 424.094 305.171 445.538 305.937 445.515 307.512 424.071 306.746" fill="#fff"/>
    <polygon points="423.981 313.046 424.003 311.471 445.448 312.238 445.425 313.813 423.981 313.046" fill="#fff"/>
    <path d="M612.35088,330.64939l-41.39272-.93718c-4.14034-16.03871-2.27631-31.30987,1.0277-45.38227l41.39252.93715A90.6291,90.6291,0,0,0,612.35088,330.64939Z"
          transform="translate(-199.40141 -142.86371)" fill="#f0f0f0"/>
    <polygon points="379.676 151.496 379.698 149.921 401.143 150.687 401.12 152.262 379.676 151.496" fill="#fff"/>
    <polygon points="379.586 157.796 379.608 156.221 401.052 156.988 401.03 158.563 379.586 157.796" fill="#fff"/>
    <polygon points="379.495 164.096 379.518 162.521 400.962 163.288 400.94 164.863 379.495 164.096" fill="#fff"/>
    <polygon points="379.405 170.396 379.427 168.821 400.872 169.588 400.849 171.163 379.405 170.396" fill="#fff"/>
    <polygon points="379.315 176.696 379.337 175.121 400.782 175.888 400.759 177.463 379.315 176.696" fill="#fff"/>
    <path d="M654.78481,433.55383a10.05579,10.05579,0,0,0,6.786-13.84578L687.67,395.29875l-18.0556-4.33922-22.01607,23.84474a10.11028,10.11028,0,0,0,7.1865,18.74956Z"
          transform="translate(-199.40141 -142.86371)" fill="#ffb6b6"/>
    <path d="M668.26737,413.892l-12.17171-17.16138,45.71846-47.28659,10.61553-74.53553a25.35292,25.35292,0,0,1,33.19643-20.44981h0a25.37994,25.37994,0,0,1,15.92679,32.12217l-27.08463,80.35815Z"
          transform="translate(-199.40141 -142.86371)" fill="#e4e4e4"/>
    <polygon points="554.708 588.617 541.196 588.616 534.768 536.499 554.711 536.5 554.708 588.617" fill="#ffb6b6"/>
    <path d="M761.37838,757.13629h-9.58777l-1.71137-9.052-4.38308,9.052h-25.429a5.71622,5.71622,0,0,1-3.24815-10.42013l20.30688-14.02466v-9.15125l21.35929,1.27486Z"
          transform="translate(-199.40141 -142.86371)" fill="#2f2e41"/>
    <polygon points="638.069 574.867 626.2 581.325 595.643 538.619 613.16 529.088 638.069 574.867" fill="#ffb6b6"/>
    <path d="M856.11741,736.79167l-8.42164,4.58269-5.82984-7.133.47662,10.046-22.33622,12.1544a5.71622,5.71622,0,0,1-7.83363-7.60025l11.13363-22.025-4.37405-8.03822,19.37081-9.08937Z"
          transform="translate(-199.40141 -142.86371)" fill="#2f2e41"/>
    <path d="M759.802,712.92192H731.87838V613.48735l-17.28711-64.82617a371.10613,371.10613,0,0,1-9.709-142.30127l.02417-.19482.15015-.126c.44385-.373,44.68872-36.957,72.67529-8.9707,18.864,18.86425,1.13843,86.6958.14649,90.41894V604.42192Z"
          transform="translate(-199.40141 -142.86371)" fill="#2f2e41"/>
    <path d="M696.37838,424.42192l9-90c-1.16919-2.4541-18-18-.40186-45.33252l19.0083-44.61767,35.59741-.55323.14966.14991a71.70284,71.70284,0,0,1,19.6482,64.894l-10.48926,52.44727,9.08838,36.354Z"
          transform="translate(-199.40141 -142.86371)" fill="#e4e4e4"/>
    <polygon points="543.742 471.137 601.106 551.824 623.111 536.179 575.202 437.728 543.742 471.137" fill="#2f2e41"/>
    <circle cx="539.05571" cy="59.66845" r="32.87" fill="#ffb6b6"/>
    <polygon points="530.977 178.558 539.977 232.558 530.977 277.558 512.977 277.558 521.159 232.558 530.977 178.558"
             opacity="0.1"/>
    <path d="M738.965,466.787a10.05579,10.05579,0,0,0-.53235-15.41014l11.5323-33.82285-17.97207,4.67314-8.196,31.40231A10.11027,10.11027,0,0,0,738.965,466.787Z"
          transform="translate(-199.40141 -142.86371)" fill="#ffb6b6"/>
    <path d="M741.602,443.09282l-18.81836-9.40918L740.853,370.44048l-25.729-70.75489a25.35292,25.35292,0,0,1,19.658-33.67138h0A25.38,25.38,0,0,1,763.95723,286.854l13.94117,83.646Z"
          transform="translate(-199.40141 -142.86371)" fill="#e4e4e4"/>
    <path d="M1000.59859,755.94194a1.18663,1.18663,0,0,1-1.18994,1.19h-647.29a1.19,1.19,0,1,1,0-2.38h647.29A1.193,1.193,0,0,1,1000.59859,755.94194Z"
          transform="translate(-199.40141 -142.86371)" fill="#cacaca"/>
    <path d="M866.29571,200.92492c-4.147,6.73212-12.93122,9.69989-20.72236,8.35193-7.79113-1.3479-14.56121-6.37658-19.56158-12.50146-5.00043-6.12494-8.45929-13.33454-11.8631-20.47119-3.40381-7.13672-6.84692-14.35181-11.82226-20.497-4.97535-6.14527-11.70966-11.21259-19.48957-12.624-4.23407-.76812-9.02972-.261-12.11914,2.73444a11.80248,11.80248,0,0,0-3.2381,8.3313,8.70266,8.70266,0,0,0-11.58221,8.63678c-.11523-.0022-.22913-.00983-.34436-.00983-14.49615-8.24164-36.4989-3.45392-36.4989,5.54608-7.9541,0-17.67578,7.85529-17.67578,19.78363v.00006c16.44848,0,26.12823,21.07471,16.52612,36.18561a103.28775,103.28775,0,0,1-8.18018,11.0307H730.293a17.13739,17.13739,0,0,0,3.01819-8.37134,38.50432,38.50432,0,0,1,1.34637,8.37134s56.18494,7.23975,41.68341-48.76294a5.868,5.868,0,0,0,2.71784-.82373c2.18976-1.31976,3.38232-4.111,3.59112-6.9433q.813.21735,1.62116.43366c3.86566,1.04352,7.88092,2.39563,10.53418,5.39441,4.48419,5.06817,3.54095,12.76068,5.16919,19.3291,1.96362,7.92108,7.83789,14.32794,14.36352,19.22845,7.01123,5.26514,15.20142,9.26526,23.93006,10.09559,8.7287.83032,18.01672-1.824,24.06482-8.17218S870.487,208.6264,866.29571,200.92492Z"
          transform="translate(-199.40141 -142.86371)" fill="#2f2e41"/>
</svg>
