<svg height="711.72746" viewBox="0 0 830.56679 711.72746" width="830.56679" xmlns="http://www.w3.org/2000/svg">
    <path d="m68.348 169.893h386.652v126.931h-14.646v33.197l-33.197-33.197h-338.809z" fill="#e6e6e6"/>
    <path d="m79.08798 182.25349h365.17166v101.54506h-365.17166z" fill="#fff"/>
    <path d="m108.45338 211.90022h175.82079v5.33572h-175.82079z" fill="#5569ff"/>
    <path d="m108.45338 230.35817h306.44088v5.33572h-306.44088z" fill="#e6e6e6"/>
    <path d="m108.45338 248.81612h306.1408v5.33572h-306.1408z" fill="#e6e6e6"/>
    <path d="m386.652 339.785h-386.652v126.932h14.646v33.197l33.197-33.197h338.809z" fill="#e6e6e6"/>
    <path d="m10.74034 352.14621h365.17165v101.54507h-365.17165z" fill="#fff"/>
    <path d="m43.03493 382.76932h175.8208v5.33572h-175.8208z" fill="#5569ff"/>
    <path d="m43.03493 401.22726h306.4409v5.33572h-306.4409z" fill="#e6e6e6"/>
    <path d="m43.03493 419.68521h306.14082v5.33572h-306.14082z" fill="#e6e6e6"/>
    <path d="m386.652 0h-386.652v126.931h14.646v33.198l33.197-33.198h338.809z" fill="#e6e6e6"/>
    <path d="m10.74034 12.36079h365.17165v101.54506h-365.17165z" fill="#fff"/>
    <path d="m43.03493 42.98392h175.8208v5.33572h-175.8208z" fill="#5569ff"/>
    <path d="m43.03493 61.44186h306.4409v5.33572h-306.4409z" fill="#e6e6e6"/>
    <path d="m43.03493 79.8998h306.14082v5.33572h-306.14082z" fill="#e6e6e6"/>
    <path d="m679.314 695.51-15.913-.001-7.571-61.383 23.487.002z" fill="#ffb8b8"/>
    <path d="m868.08957 805.072-51.31317-.00191v-.649a19.97358 19.97358 0 0 1 19.97252-19.9722h.00126l31.34034.00127z"
          fill="#2f2e41" transform="translate(-184.71661 -94.13627)"/>
    <path d="m656.939 649.359-14.808 5.827-29.523-54.346 21.856-8.6z" fill="#ffb8b8"/>
    <g transform="translate(-184.71661 -94.13627)">
        <path d="m851.08138 756.36359-47.74953 18.7889-.23767-.60394a19.97357 19.97357 0 0 1 11.27144-25.89874l.00118-.00047 29.16382-11.47552z"
              fill="#2f2e41"/>
        <path d="m836.8057 769.70088 5.06736-186.22422-22.54834 79.833 16.29194 55.393-27.0288 22.97459-27.55233-87.90525-.0488-.15465 27.38468-144.74725 80.99068-3.91825.57931-.02916.09285.573c.078.48171 7.73193 48.54149 1.29553 83.29746-6.41138 34.62285-21.90408 181.49591-22.05968 182.9765l-.06655.63128z"
              fill="#2f2e41"/>
        <path d="m812.567 520.48036-.4573-.18254 15.03-137.88428.43861-.10965c15.275-3.81938 35.85564-3.48536 46.76457-2.94725a7.20471 7.20471 0 0 1 6.74793 6.09225l18.0698 119.01239-.149.213c-12.49252 17.84574-31.5815 22.697-48.64891 22.697a115.19974 115.19974 0 0 1 -37.7957-6.89092z"
              fill="#5569ff"/>
        <path d="m884.14261 560.76448-.54318-.04944-9.59943-181.71504 29.17042 6.58833a13.17336 13.17336 0 0 1 10.12558 14.50367l-3.783 30.20512 1.29616 53.13919c.90319 3.26416 15.67334 57.33506 7.46731 71.42353a6.54421 6.54421 0 0 1 -4.06245 3.29205 101.77251 101.77251 0 0 1 -24.05778 2.81541c-3.68245-.0013-5.95724-.19775-6.01363-.20282z"
              fill="#3f3d56"/>
        <path d="m798.23922 561.99662a10.32063 10.32063 0 0 1 -5.77977-6.86677c-1.90082-7.6527 4.51594-17.27658 5.44226-18.61266l7.7614-73.73316-11.54465-68.11438a8.68128 8.68128 0 0 1 7.59724-10.07895l32.88368-3.66726-1.66916 70.0716c14.11383 47.70484-16.62247 116.48916-16.93463 117.17876l-.17271.38155h-.41864c-.16542 0-4.1965-.07479-17.16502-6.55873z"
              fill="#3f3d56"/>
    </g>
    <circle cx="850.5182" cy="335.04827" fill="#ffb8b8" r="31.8816"
            transform="matrix(.87745442 -.47966002 .47966002 .87745442 -241.19863 354.88194)"/>
    <path d="m887.0246 527.87856a12.17184 12.17184 0 0 1 12.19193-14.13167l11.03525-25.532 17.15133 2.92184-16.09031 35.83727a12.23781 12.23781 0 0 1 -24.2882.90458z"
          fill="#ffb8b8" transform="translate(-184.71661 -94.13627)"/>
    <path d="m902.56245 504.48348 9.11269-54.67683-15.56558-25.94339 3.96547-37.01235.88291-.22057a13.25148 13.25148 0 0 1 15.11177 7.10508l25.42746 53.06567.10173.21169-18.46815 72.55427z"
          fill="#3f3d56" transform="translate(-184.71661 -94.13627)"/>
    <path d="m871.41419 360.757c.72863.21108 3.78825-3.24457 7.13869-7.38717a38.47235 38.47235 0 0 0 8.01955-31.25182c-.04646-.24665-.09286-.48076-.1391-.70078-1.1097-5.28044-6.14638-10.14433-11.425-9.02588.39869-4.67793-2.7522-9.0836-6.74525-11.55292s-8.72463-3.38457-13.3381-4.25517c-5.26309-.99319-10.59278-1.99089-15.938-1.65211a31.10761 31.10761 0 0 0 -14.53307 4.6423 30.68254 30.68254 0 0 0 -12.88638 33.15c6.71749-7.62794 14.67773-15.92507 26.18309-12.61913a21.10906 21.10906 0 0 1 7.15908 3.74434c6.99255 5.49218 10.50836 13.58 13.90909 21.48323 1.69861-4.32494 8.00012-5.95212 11.58033-2.99028 2.29806 1.90113 3.24415 5.0619 3.15731 8.04315a29.61549 29.61549 0 0 1 -2.04145 8.6741"
          fill="#2f2e41" transform="translate(-184.71661 -94.13627)"/>
    <path d="m867.30308 479.86373h-1.5v-5.90137a6.60588 6.60588 0 0 0 -6.59863-6.59863h-18.80274a6.60588 6.60588 0 0 0 -6.59863 6.59863v40.80274a6.60588 6.60588 0 0 0 6.59863 6.59863h18.80274a6.60588 6.60588 0 0 0 6.59863-6.59863v-27.90137h1.5z"
          fill="#2f2e41" transform="translate(-184.71661 -94.13627)"/>
    <circle cx="665.58647" cy="392.72746" fill="#fff" r="4"/>
    <path d="m853.5672 502.802a12.17181 12.17181 0 0 0 -18.05914-4.7132l-23.57841-14.7553-12.46145 12.14156 33.58994 20.36967a12.2378 12.2378 0 0 0 20.50906-13.04273z"
          fill="#ffb8b8" transform="translate(-184.71661 -94.13627)"/>
    <path d="m769.23545 474.69344 21.57512-81.50565a8.72409 8.72409 0 0 1 9.94554-6.31979l7.41787 1.34813 7.90433 43.47285-16.07581 36.64348 29.07887 17.45784-4.08907 32.71128z"
          fill="#3f3d56" transform="translate(-184.71661 -94.13627)"/>
    <path d="m1014.28339 805.86373h-381a1 1 0 0 1 0-2h381a1 1 0 0 1 0 2z" fill="#3f3d56"
          transform="translate(-184.71661 -94.13627)"/>
</svg>