<svg xmlns="http://www.w3.org/2000/svg" data-name="Layer 1" width="375.447" height="379.761"
     viewBox="375.447 -1.272 379.761 470.715">
  <circle cx="591.50305" cy="192" r="13" fill="#5569ff"/>
  <path d="M765.87676,412.23787a1.34825,1.34825,0,0,1-.81124-.26947l-.01451-.01089-3.05509-2.33909a1.3573,1.3573,0,1,1,1.651-2.15481l1.97885,1.51736,4.67635-6.09864a1.35725,1.35725,0,0,1,1.903-.25121l-.02908.03948.02983-.0389a1.35883,1.35883,0,0,1,.25121,1.903l-5.50051,7.17346A1.35784,1.35784,0,0,1,765.87676,412.23787Z"
        transform="translate(-175.66231 -215.27867)" fill="#fff"/>
  <circle cx="591.50305" cy="230" r="13" fill="#5569ff"/>
  <path d="M765.87676,450.23787a1.34825,1.34825,0,0,1-.81124-.26947l-.01451-.01089-3.05509-2.33909a1.3573,1.3573,0,1,1,1.651-2.15481l1.97885,1.51736,4.67635-6.09864a1.35725,1.35725,0,0,1,1.903-.25121l-.02908.03948.02983-.0389a1.35883,1.35883,0,0,1,.25121,1.903l-5.50051,7.17346A1.35784,1.35784,0,0,1,765.87676,450.23787Z"
        transform="translate(-175.66231 -215.27867)" fill="#fff"/>
  <circle cx="598.50305" cy="274" r="13" fill="#5569ff"/>
  <path d="M772.87676,494.23787a1.34825,1.34825,0,0,1-.81124-.26947l-.01451-.01089-3.05509-2.33909a1.3573,1.3573,0,1,1,1.651-2.15481l1.97885,1.51736,4.67635-6.09864a1.35725,1.35725,0,0,1,1.903-.25121l-.02908.03948.02983-.0389a1.35883,1.35883,0,0,1,.25121,1.903l-5.50051,7.17346A1.35784,1.35784,0,0,1,772.87676,494.23787Z"
        transform="translate(-175.66231 -215.27867)" fill="#fff"/>
  <path d="M899.5214,597.81813c-.13479,0-.21961-.00349-.24924-.00523l-16.13966.00174v-2.3797h16.198c.375.01336,8.02654.22949,15.07646-8.32488,10.50588-12.74905,19.13345-44.30968.57285-122.264-24.95721-104.82061-4.14182-197.42377,5.9658-232.37211a11.60395,11.60395,0,0,0-11.16442-14.8156H668.747a11.65594,11.65594,0,0,0-9.3994,4.78438c-4.28183,5.89-10.15787,17.20518-13.8349,37.665l-2.34194-.42063c3.75663-20.90428,9.82381-32.55237,14.25205-38.64338a14.04138,14.04138,0,0,1,11.32419-5.76508H909.78124a13.984,13.984,0,0,1,13.45058,17.85646c-10.05562,34.76707-30.76324,126.88976-5.93676,231.16018,18.82147,79.05061,9.77327,111.29506-1.13117,124.42465C908.97135,597.37949,901.04648,597.81813,899.5214,597.81813Z"
        transform="translate(-175.66231 -215.27867)" fill="#e6e6e6"/>
  <path d="M856.0919,641.24763c-.13479,0-.21961-.00349-.24924-.00523l-16.13965.00174v-2.3797h16.198c.37706.01162,8.02654.22949,15.07646-8.32488,10.50588-12.74905,19.13345-44.30968.57285-122.264-24.95721-104.82061-4.14182-197.42377,5.9658-232.37211a11.60395,11.60395,0,0,0-11.16442-14.8156H625.31749a11.65594,11.65594,0,0,0-9.3994,4.78438c-4.28183,5.89-10.15787,17.20518-13.83476,37.665l-2.34222-.42063c3.75677-20.90429,9.82395-32.55238,14.25219-38.64338a14.04138,14.04138,0,0,1,11.32419-5.76508H866.35174a13.984,13.984,0,0,1,13.45058,17.85646c-10.05562,34.76707-30.76324,126.88976-5.93675,231.16018,18.82146,79.05061,9.77326,111.29506-1.13117,124.42465C865.54185,640.809,857.617,641.24763,856.0919,641.24763Z"
        transform="translate(-175.66231 -215.27867)" fill="#ccc"/>
  <path d="M830.43537,551.15868c-24.83007-104.27-4.12011-196.4,5.93995-231.16a13.99387,13.99387,0,0,0-13.4502-17.86H581.88557a14.03109,14.03109,0,0,0-11.32031,5.76c-9.73,13.38-29.91993,57.75-7.36963,180.52,12.05957,65.68,11.87988,110.46,7.93994,139.96-2.21045,16.61005-5.62012,28.37-8.71045,36.30005l-.32959.84a13.63942,13.63942,0,0,0-1,5.05,13.83428,13.83428,0,0,0,4.52979,10.4,13.24271,13.24271,0,0,0,3.16992,2.2,13.41211,13.41211,0,0,0,3.03027,1.11,13.67578,13.67578,0,0,0,3.27.39H812.41535c.03028,0,.10987.01.25.01,1.52,0,9.4502-.44,16.64014-9.1C840.20539,662.44866,849.2552,630.20867,830.43537,551.15868Zm-2.89013,122.81c-7.04981,8.56-14.69971,8.34-15.06983,8.33H575.09553a11.63613,11.63613,0,0,1-9.63037-5.11,11.36694,11.36694,0,0,1-1.60986-9.43,9.81128,9.81128,0,0,1,.43994-1.36,146.37967,146.37967,0,0,0,7.81006-28.06c5.64013-30.75,6.68994-78.2-6.56983-150.35-22.37988-121.86-2.58984-165.56,6.94971-178.69a11.68138,11.68138,0,0,1,9.40039-4.78H822.92512a11.60377,11.60377,0,0,1,11.16016,14.81c-10.10987,34.95-30.91993,127.56-5.96,232.38C846.68537,629.65868,838.05549,661.21868,827.54524,673.96868Z"
        transform="translate(-175.66231 -215.27867)" fill="#3f3d56"/>
  <path d="M715.9248,415.679h-124.186a9.51879,9.51879,0,1,1,0-19.03758h124.186a9.51879,9.51879,0,1,1,0,19.03758Z"
        transform="translate(-175.66231 -215.27867)" fill="#ccc"/>
  <path d="M715.9248,456.679h-124.186a9.51879,9.51879,0,1,1,0-19.03758h124.186a9.51879,9.51879,0,1,1,0,19.03758Z"
        transform="translate(-175.66231 -215.27867)" fill="#ccc"/>
  <path d="M725.9248,498.679h-124.186a9.51879,9.51879,0,1,1,0-19.03758h124.186a9.51879,9.51879,0,1,1,0,19.03758Z"
        transform="translate(-175.66231 -215.27867)" fill="#ccc"/>
  <path d="M732.9248,542.679h-124.186a9.51879,9.51879,0,1,1,0-19.03758h124.186a9.51879,9.51879,0,1,1,0,19.03758Z"
        transform="translate(-175.66231 -215.27867)" fill="#ccc"/>
  <path d="M732.97746,341.76923h-89.2387a9.5188,9.5188,0,1,1,0-19.03759h89.2387a9.51879,9.51879,0,1,1,0,19.03759Z"
        transform="translate(-175.66231 -215.27867)" fill="#5569ff"/>
  <circle cx="606.50305" cy="317.88152" r="13" fill="#ccc"/>
  <path d="M738.9248,585.679h-124.186a9.51879,9.51879,0,1,1,0-19.03758h124.186a9.51879,9.51879,0,1,1,0,19.03758Z"
        transform="translate(-175.66231 -215.27867)" fill="#ccc"/>
  <circle cx="612.50305" cy="360.88152" r="13" fill="#ccc"/>
</svg>