<svg id="visual" viewBox="0 0 1280 720" width="1280" height="720" xmlns="http://www.w3.org/2000/svg" version="1.1">
    <g stroke-width="1" stroke-linejoin="bevel">
        <path d="M611.8 353L623.2 424L625.8 419Z" fill="#f17202" stroke="#f17202"></path>
        <path d="M463.3 425L589.2 482L623.2 424Z" fill="#fea121" stroke="#fea121"></path>
        <path d="M611.8 353L463.3 425L623.2 424Z" fill="#fb9619" stroke="#fb9619"></path>
        <path d="M482.8 324L463.3 425L611.8 353Z" fill="#f99014" stroke="#f99014"></path>
        <path d="M520.3 302L482.8 324L611.8 353Z" fill="#f99014" stroke="#f99014"></path>
        <path d="M589.2 482L682.8 452L623.2 424Z" fill="#f57e08" stroke="#f57e08"></path>
        <path d="M623.2 424L682.8 452L625.8 419Z" fill="#fc9c1d" stroke="#fc9c1d"></path>
        <path d="M625.8 419L672.2 301L611.8 353Z" fill="#f88a10" stroke="#f88a10"></path>
        <path d="M682.8 452L672.2 301L625.8 419Z" fill="#fc9c1d" stroke="#fc9c1d"></path>
        <path d="M611.8 353L583.3 257L520.3 302Z" fill="#f88a10" stroke="#f88a10"></path>
        <path d="M672.2 301L583.3 257L611.8 353Z" fill="#f17202" stroke="#f17202"></path>
        <path d="M340.8 269L377.8 368L482.8 324Z" fill="#ef6c00" stroke="#ef6c00"></path>
        <path d="M463.3 425L447.3 543L589.2 482Z" fill="#f88a10" stroke="#f88a10"></path>
        <path d="M589.2 482L674.8 584L682.8 452Z" fill="#fb9619" stroke="#fb9619"></path>
        <path d="M340.8 269L482.8 324L343.4 231Z" fill="#f17202" stroke="#f17202"></path>
        <path d="M482.8 324L377.8 368L463.3 425Z" fill="#fc9c1d" stroke="#fc9c1d"></path>
        <path d="M463.3 425L433.8 537L447.3 543Z" fill="#fb9619" stroke="#fb9619"></path>
        <path d="M413.8 536L433.8 537L463.3 425Z" fill="#fc9c1d" stroke="#fc9c1d"></path>
        <path d="M682.8 452L762.2 319L672.2 301Z" fill="#fb9619" stroke="#fb9619"></path>
        <path d="M672.2 301L616.2 188L583.3 257Z" fill="#fc9c1d" stroke="#fc9c1d"></path>
        <path d="M644.8 155L616.2 188L672.2 301Z" fill="#ffa726" stroke="#ffa726"></path>
        <path d="M583.3 257L549.3 126L520.3 302Z" fill="#fc9c1d" stroke="#fc9c1d"></path>
        <path d="M370.4 533L413.8 536L463.3 425Z" fill="#f6840c" stroke="#f6840c"></path>
        <path d="M433.8 537L413.8 536L447.3 543Z" fill="#fc9c1d" stroke="#fc9c1d"></path>
        <path d="M669.8 629L674.8 584L589.2 482Z" fill="#fea121" stroke="#fea121"></path>
        <path d="M682.8 452L840.2 450L762.2 319Z" fill="#f88a10" stroke="#f88a10"></path>
        <path d="M674.8 584L721.2 566L682.8 452Z" fill="#f6840c" stroke="#f6840c"></path>
        <path d="M413.8 536L386.4 620L447.3 543Z" fill="#f17202" stroke="#f17202"></path>
        <path d="M447.3 543L669.8 629L589.2 482Z" fill="#ef6c00" stroke="#ef6c00"></path>
        <path d="M313.4 426L370.4 533L463.3 425Z" fill="#f57e08" stroke="#f57e08"></path>
        <path d="M835.7 256L781.7 263L762.2 319Z" fill="#ffa726" stroke="#ffa726"></path>
        <path d="M762.2 319L781.7 263L672.2 301Z" fill="#f57e08" stroke="#f57e08"></path>
        <path d="M781.7 263L644.8 155L672.2 301Z" fill="#ffa726" stroke="#ffa726"></path>
        <path d="M343.4 231L482.8 324L520.3 302Z" fill="#fb9619" stroke="#fb9619"></path>
        <path d="M499.3 720L669.8 629L447.3 543Z" fill="#ffa726" stroke="#ffa726"></path>
        <path d="M674.8 584L669.8 629L721.2 566Z" fill="#f37804" stroke="#f37804"></path>
        <path d="M644.8 155L632.2 146L616.2 188Z" fill="#ef6c00" stroke="#ef6c00"></path>
        <path d="M729.2 720L792.7 535L721.2 566Z" fill="#f37804" stroke="#f37804"></path>
        <path d="M721.2 566L792.7 535L682.8 452Z" fill="#f88a10" stroke="#f88a10"></path>
        <path d="M377.8 368L313.4 426L463.3 425Z" fill="#f57e08" stroke="#f57e08"></path>
        <path d="M549.3 126L583.3 257L616.2 188Z" fill="#ef6c00" stroke="#ef6c00"></path>
        <path d="M377.8 368L285.9 310L313.4 426Z" fill="#f37804" stroke="#f37804"></path>
        <path d="M632.2 146L549.3 126L616.2 188Z" fill="#f17202" stroke="#f17202"></path>
        <path d="M792.7 535L840.2 450L682.8 452Z" fill="#f57e08" stroke="#f57e08"></path>
        <path d="M937.6 541L818.7 522L884.7 720Z" fill="#fc9c1d" stroke="#fc9c1d"></path>
        <path d="M792.7 535L818.7 522L840.2 450Z" fill="#ffa726" stroke="#ffa726"></path>
        <path d="M368.4 135L343.4 231L520.3 302Z" fill="#fc9c1d" stroke="#fc9c1d"></path>
        <path d="M340.8 269L285.9 310L377.8 368Z" fill="#f57e08" stroke="#f57e08"></path>
        <path d="M632.2 146L545.8 110L549.3 126Z" fill="#ef6c00" stroke="#ef6c00"></path>
        <path d="M549.3 126L479.8 94L520.3 302Z" fill="#f88a10" stroke="#f88a10"></path>
        <path d="M369.8 644L386.4 620L370.4 533Z" fill="#f88a10" stroke="#f88a10"></path>
        <path d="M370.4 533L386.4 620L413.8 536Z" fill="#ef6c00" stroke="#ef6c00"></path>
        <path d="M865.2 328L835.7 256L762.2 319Z" fill="#f57e08" stroke="#f57e08"></path>
        <path d="M781.7 263L838.7 124L644.8 155Z" fill="#f99014" stroke="#f99014"></path>
        <path d="M644.8 155L643.8 0L632.2 146Z" fill="#fea121" stroke="#fea121"></path>
        <path d="M876.7 389L865.2 328L762.2 319Z" fill="#fb9619" stroke="#fb9619"></path>
        <path d="M322.4 216L285.9 310L340.8 269Z" fill="#fea121" stroke="#fea121"></path>
        <path d="M840.2 450L876.7 389L762.2 319Z" fill="#f17202" stroke="#f17202"></path>
        <path d="M891.6 444L876.7 389L840.2 450Z" fill="#f99014" stroke="#f99014"></path>
        <path d="M368.4 135L322.4 216L343.4 231Z" fill="#f17202" stroke="#f17202"></path>
        <path d="M343.4 231L322.4 216L340.8 269Z" fill="#fb9619" stroke="#fb9619"></path>
        <path d="M545.8 110L479.8 94L549.3 126Z" fill="#f37804" stroke="#f37804"></path>
        <path d="M215.9 599L369.8 644L370.4 533Z" fill="#f57e08" stroke="#f57e08"></path>
        <path d="M453.3 710L499.3 720L447.3 543Z" fill="#fc9c1d" stroke="#fc9c1d"></path>
        <path d="M885.6 482L891.6 444L840.2 450Z" fill="#fea121" stroke="#fea121"></path>
        <path d="M876.7 389L894.6 368L865.2 328Z" fill="#f37804" stroke="#f37804"></path>
        <path d="M891.6 444L894.6 368L876.7 389Z" fill="#f99014" stroke="#f99014"></path>
        <path d="M884.7 170L851.2 185L835.7 256Z" fill="#f6840c" stroke="#f6840c"></path>
        <path d="M818.7 522L885.6 482L840.2 450Z" fill="#fc9c1d" stroke="#fc9c1d"></path>
        <path d="M937.6 541L885.6 482L818.7 522Z" fill="#f37804" stroke="#f37804"></path>
        <path d="M479.8 94L368.4 135L520.3 302Z" fill="#f17202" stroke="#f17202"></path>
        <path d="M453.3 710L447.3 543L386.4 620Z" fill="#f17202" stroke="#f17202"></path>
        <path d="M369.8 644L453.3 710L386.4 620Z" fill="#f99014" stroke="#f99014"></path>
        <path d="M499.3 720L680.8 720L669.8 629Z" fill="#fb9619" stroke="#fb9619"></path>
        <path d="M669.8 629L729.2 720L721.2 566Z" fill="#ef6c00" stroke="#ef6c00"></path>
        <path d="M479.8 94L399.3 100L368.4 135Z" fill="#fea121" stroke="#fea121"></path>
        <path d="M884.7 170L835.7 256L1002.6 207Z" fill="#f57e08" stroke="#f57e08"></path>
        <path d="M835.7 256L851.2 185L781.7 263Z" fill="#f37804" stroke="#f37804"></path>
        <path d="M632.2 146L643.8 0L545.8 110Z" fill="#ef6c00" stroke="#ef6c00"></path>
        <path d="M680.8 720L729.2 720L669.8 629Z" fill="#fc9c1d" stroke="#fc9c1d"></path>
        <path d="M453.3 710L413.8 720L499.3 720Z" fill="#f6840c" stroke="#f6840c"></path>
        <path d="M369.8 644L413.8 720L453.3 710Z" fill="#f6840c" stroke="#f6840c"></path>
        <path d="M346.4 0L294.9 159L368.4 135Z" fill="#f57e08" stroke="#f57e08"></path>
        <path d="M368.4 135L294.9 159L322.4 216Z" fill="#ef6c00" stroke="#ef6c00"></path>
        <path d="M322.4 216L184.9 170L285.9 310Z" fill="#fb9619" stroke="#fb9619"></path>
        <path d="M142.5 410L229.9 526L313.4 426Z" fill="#f88a10" stroke="#f88a10"></path>
        <path d="M313.4 426L229.9 526L370.4 533Z" fill="#fea121" stroke="#fea121"></path>
        <path d="M369.8 644L347.4 720L413.8 720Z" fill="#f57e08" stroke="#f57e08"></path>
        <path d="M204.4 580L229.9 526L142.5 410Z" fill="#fea121" stroke="#fea121"></path>
        <path d="M204.4 580L226.9 541L229.9 526Z" fill="#ffa726" stroke="#ffa726"></path>
        <path d="M229.9 526L226.9 541L370.4 533Z" fill="#fea121" stroke="#fea121"></path>
        <path d="M884.7 170L838.7 124L851.2 185Z" fill="#ef6c00" stroke="#ef6c00"></path>
        <path d="M851.2 185L838.7 124L781.7 263Z" fill="#f37804" stroke="#f37804"></path>
        <path d="M545.8 110L439.3 0L479.8 94Z" fill="#fea121" stroke="#fea121"></path>
        <path d="M1002.6 207L835.7 256L865.2 328Z" fill="#ffa726" stroke="#ffa726"></path>
        <path d="M891.6 444L963.2 361L894.6 368Z" fill="#f6840c" stroke="#f6840c"></path>
        <path d="M894.6 368L963.2 361L865.2 328Z" fill="#f57e08" stroke="#f57e08"></path>
        <path d="M1087.5 438L963.2 361L891.6 444Z" fill="#f37804" stroke="#f37804"></path>
        <path d="M969.2 572L937.6 541L972.2 643Z" fill="#fb9619" stroke="#fb9619"></path>
        <path d="M885.6 482L937.6 541L891.6 444Z" fill="#f57e08" stroke="#f57e08"></path>
        <path d="M286.9 720L347.4 720L369.8 644Z" fill="#f6840c" stroke="#f6840c"></path>
        <path d="M738.7 0L643.8 0L644.8 155Z" fill="#f88a10" stroke="#f88a10"></path>
        <path d="M479.8 94L439.3 0L399.3 100Z" fill="#fea121" stroke="#fea121"></path>
        <path d="M226.9 541L215.9 599L370.4 533Z" fill="#ef6c00" stroke="#ef6c00"></path>
        <path d="M204.4 580L215.9 599L226.9 541Z" fill="#fea121" stroke="#fea121"></path>
        <path d="M142.5 410L313.4 426L285.9 310Z" fill="#fc9c1d" stroke="#fc9c1d"></path>
        <path d="M643.8 0L439.3 0L545.8 110Z" fill="#f6840c" stroke="#f6840c"></path>
        <path d="M399.3 100L346.4 0L368.4 135Z" fill="#ffa726" stroke="#ffa726"></path>
        <path d="M838.7 124L738.7 0L644.8 155Z" fill="#fc9c1d" stroke="#fc9c1d"></path>
        <path d="M770.2 0L738.7 0L838.7 124Z" fill="#fc9c1d" stroke="#fc9c1d"></path>
        <path d="M1002.6 207L906.2 124L884.7 170Z" fill="#ffa726" stroke="#ffa726"></path>
        <path d="M884.7 170L906.2 124L838.7 124Z" fill="#fc9c1d" stroke="#fc9c1d"></path>
        <path d="M184.9 170L142.5 410L285.9 310Z" fill="#f6840c" stroke="#f6840c"></path>
        <path d="M195.5 708L286.9 720L215.9 599Z" fill="#fea121" stroke="#fea121"></path>
        <path d="M215.9 599L286.9 720L369.8 644Z" fill="#f88a10" stroke="#f88a10"></path>
        <path d="M884.7 720L818.7 522L792.7 535Z" fill="#fc9c1d" stroke="#fc9c1d"></path>
        <path d="M937.6 541L1087.5 438L891.6 444Z" fill="#f37804" stroke="#f37804"></path>
        <path d="M439.3 0L379.8 0L399.3 100Z" fill="#f37804" stroke="#f37804"></path>
        <path d="M294.9 159L184.9 170L322.4 216Z" fill="#fc9c1d" stroke="#fc9c1d"></path>
        <path d="M947.6 0L770.2 0L838.7 124Z" fill="#fc9c1d" stroke="#fc9c1d"></path>
        <path d="M167.5 0L184.9 170L294.9 159Z" fill="#fb9619" stroke="#fb9619"></path>
        <path d="M729.2 720L884.7 720L792.7 535Z" fill="#ffa726" stroke="#ffa726"></path>
        <path d="M379.8 0L346.4 0L399.3 100Z" fill="#ef6c00" stroke="#ef6c00"></path>
        <path d="M972.2 643L1001.1 580L969.2 572Z" fill="#f6840c" stroke="#f6840c"></path>
        <path d="M969.2 572L1001.1 580L937.6 541Z" fill="#f88a10" stroke="#f88a10"></path>
        <path d="M1027.1 263L865.2 328L963.2 361Z" fill="#f88a10" stroke="#f88a10"></path>
        <path d="M1027.1 263L1002.6 207L865.2 328Z" fill="#fc9c1d" stroke="#fc9c1d"></path>
        <path d="M906.2 124L947.6 0L838.7 124Z" fill="#f17202" stroke="#f17202"></path>
        <path d="M884.7 720L972.2 643L937.6 541Z" fill="#f6840c" stroke="#f6840c"></path>
        <path d="M1054.6 255L1027.1 263L1103.5 275Z" fill="#ffa726" stroke="#ffa726"></path>
        <path d="M204.4 580L195.5 708L215.9 599Z" fill="#ffa726" stroke="#ffa726"></path>
        <path d="M26.5 605L195.5 708L204.4 580Z" fill="#fea121" stroke="#fea121"></path>
        <path d="M1103.5 275L1027.1 263L963.2 361Z" fill="#f6840c" stroke="#f6840c"></path>
        <path d="M1027.1 263L1054.6 255L1002.6 207Z" fill="#ffa726" stroke="#ffa726"></path>
        <path d="M884.7 720L971.2 720L972.2 643Z" fill="#fb9619" stroke="#fb9619"></path>
        <path d="M972.2 643L1065.1 720L1001.1 580Z" fill="#ef6c00" stroke="#ef6c00"></path>
        <path d="M1112.1 465L1087.5 438L1001.1 580Z" fill="#fc9c1d" stroke="#fc9c1d"></path>
        <path d="M1001.1 580L1087.5 438L937.6 541Z" fill="#ffa726" stroke="#ffa726"></path>
        <path d="M971.2 720L994.6 720L972.2 643Z" fill="#f37804" stroke="#f37804"></path>
        <path d="M1103.5 275L1069.1 176L1054.6 255Z" fill="#f88a10" stroke="#f88a10"></path>
        <path d="M1054.6 255L1069.1 176L1002.6 207Z" fill="#f37804" stroke="#f37804"></path>
        <path d="M1002.6 207L1069.1 176L906.2 124Z" fill="#ef6c00" stroke="#ef6c00"></path>
        <path d="M1114.1 546L1112.1 465L1001.1 580Z" fill="#ffa726" stroke="#ffa726"></path>
        <path d="M1087.5 438L1103.5 275L963.2 361Z" fill="#f88a10" stroke="#f88a10"></path>
        <path d="M1142.5 304L1103.5 275L1087.5 438Z" fill="#fb9619" stroke="#fb9619"></path>
        <path d="M971.2 0L947.6 0L906.2 124Z" fill="#fc9c1d" stroke="#fc9c1d"></path>
        <path d="M107.9 112L56.5 224L184.9 170Z" fill="#f57e08" stroke="#f57e08"></path>
        <path d="M184.9 170L56.5 224L142.5 410Z" fill="#f6840c" stroke="#f6840c"></path>
        <path d="M0 520L26.5 605L204.4 580Z" fill="#fb9619" stroke="#fb9619"></path>
        <path d="M167.5 0L107.9 112L184.9 170Z" fill="#f37804" stroke="#f37804"></path>
        <path d="M0 134L46.5 226L56.5 224Z" fill="#f17202" stroke="#f17202"></path>
        <path d="M56.5 224L13.5 312L142.5 410Z" fill="#f17202" stroke="#f17202"></path>
        <path d="M1158.5 240L1081.1 165L1069.1 176Z" fill="#fb9619" stroke="#fb9619"></path>
        <path d="M1009.1 0L971.2 0L906.2 124Z" fill="#fea121" stroke="#fea121"></path>
        <path d="M1009.1 0L906.2 124L1069.1 176Z" fill="#fb9619" stroke="#fb9619"></path>
        <path d="M1083.5 720L1114.1 546L1001.1 580Z" fill="#fc9c1d" stroke="#fc9c1d"></path>
        <path d="M46.5 226L13.5 312L56.5 224Z" fill="#f37804" stroke="#f37804"></path>
        <path d="M346.4 0L167.5 0L294.9 159Z" fill="#f37804" stroke="#f37804"></path>
        <path d="M0 134L0 285L46.5 226Z" fill="#f99014" stroke="#f99014"></path>
        <path d="M13.5 312L0 364L142.5 410Z" fill="#f57e08" stroke="#f57e08"></path>
        <path d="M1114.1 546L1140.5 497L1112.1 465Z" fill="#fb9619" stroke="#fb9619"></path>
        <path d="M1112.1 465L1142.5 304L1087.5 438Z" fill="#f57e08" stroke="#f57e08"></path>
        <path d="M1103.5 275L1158.5 240L1069.1 176Z" fill="#ef6c00" stroke="#ef6c00"></path>
        <path d="M1280 423L1142.5 304L1112.1 465Z" fill="#ef6c00" stroke="#ef6c00"></path>
        <path d="M0 285L0 332L13.5 312Z" fill="#f6840c" stroke="#f6840c"></path>
        <path d="M13.5 312L0 332L0 364Z" fill="#ef6c00" stroke="#ef6c00"></path>
        <path d="M0 134L56.5 224L107.9 112Z" fill="#f6840c" stroke="#f6840c"></path>
        <path d="M46.5 226L0 285L13.5 312Z" fill="#fc9c1d" stroke="#fc9c1d"></path>
        <path d="M0 520L204.4 580L142.5 410Z" fill="#f88a10" stroke="#f88a10"></path>
        <path d="M167.5 0L140.9 0L107.9 112Z" fill="#f37804" stroke="#f37804"></path>
        <path d="M0 364L0 520L142.5 410Z" fill="#fc9c1d" stroke="#fc9c1d"></path>
        <path d="M1062.6 17L1009.1 0L1069.1 176Z" fill="#f99014" stroke="#f99014"></path>
        <path d="M1062.6 17L1069.1 176L1081.1 165Z" fill="#f37804" stroke="#f37804"></path>
        <path d="M994.6 720L1065.1 720L972.2 643Z" fill="#fea121" stroke="#fea121"></path>
        <path d="M1280 470L1280 423L1140.5 497Z" fill="#f88a10" stroke="#f88a10"></path>
        <path d="M1065.1 720L1083.5 720L1001.1 580Z" fill="#f99014" stroke="#f99014"></path>
        <path d="M1223.5 178L1158.5 240L1280 212Z" fill="#fc9c1d" stroke="#fc9c1d"></path>
        <path d="M1142.5 304L1158.5 240L1103.5 275Z" fill="#fb9619" stroke="#fb9619"></path>
        <path d="M1165.1 102L1062.6 17L1081.1 165Z" fill="#ef6c00" stroke="#ef6c00"></path>
        <path d="M0 520L0 640L26.5 605Z" fill="#f88a10" stroke="#f88a10"></path>
        <path d="M26.5 605L22.5 720L195.5 708Z" fill="#f99014" stroke="#f99014"></path>
        <path d="M6.5 119L0 134L107.9 112Z" fill="#ffa726" stroke="#ffa726"></path>
        <path d="M0 93L6.5 119L107.9 112Z" fill="#ffa726" stroke="#ffa726"></path>
        <path d="M0 640L22.5 720L26.5 605Z" fill="#f17202" stroke="#f17202"></path>
        <path d="M195.5 708L22.5 720L286.9 720Z" fill="#f99014" stroke="#f99014"></path>
        <path d="M0 0L0 93L107.9 112Z" fill="#f99014" stroke="#f99014"></path>
        <path d="M6.5 119L0 93L0 134Z" fill="#fb9619" stroke="#fb9619"></path>
        <path d="M0 640L0 720L22.5 720Z" fill="#ef6c00" stroke="#ef6c00"></path>
        <path d="M1158.5 240L1165.1 102L1081.1 165Z" fill="#fc9c1d" stroke="#fc9c1d"></path>
        <path d="M1280 212L1158.5 240L1142.5 304Z" fill="#ffa726" stroke="#ffa726"></path>
        <path d="M1158.5 240L1223.5 178L1165.1 102Z" fill="#f17202" stroke="#f17202"></path>
        <path d="M1280 423L1112.1 465L1140.5 497Z" fill="#fea121" stroke="#fea121"></path>
        <path d="M140.9 0L0 0L107.9 112Z" fill="#f88a10" stroke="#f88a10"></path>
        <path d="M1280 470L1140.5 497L1280 531Z" fill="#f6840c" stroke="#f6840c"></path>
        <path d="M1257.5 601L1140.5 497L1114.1 546Z" fill="#f37804" stroke="#f37804"></path>
        <path d="M1083.5 720L1257.5 601L1114.1 546Z" fill="#fb9619" stroke="#fb9619"></path>
        <path d="M1257.5 601L1280 531L1140.5 497Z" fill="#f88a10" stroke="#f88a10"></path>
        <path d="M1280 423L1280 212L1142.5 304Z" fill="#f17202" stroke="#f17202"></path>
        <path d="M1280 50L1201.5 0L1165.1 102Z" fill="#f6840c" stroke="#f6840c"></path>
        <path d="M1165.1 102L1201.5 0L1062.6 17Z" fill="#fc9c1d" stroke="#fc9c1d"></path>
        <path d="M1062.6 17L1201.5 0L1009.1 0Z" fill="#ffa726" stroke="#ffa726"></path>
        <path d="M1280 134L1165.1 102L1223.5 178Z" fill="#f57e08" stroke="#f57e08"></path>
        <path d="M1280 212L1280 134L1223.5 178Z" fill="#f17202" stroke="#f17202"></path>
        <path d="M1083.5 720L1280 670L1257.5 601Z" fill="#f17202" stroke="#f17202"></path>
        <path d="M1257.5 601L1280 670L1280 531Z" fill="#f57e08" stroke="#f57e08"></path>
        <path d="M1083.5 720L1280 720L1280 670Z" fill="#f88a10" stroke="#f88a10"></path>
        <path d="M1280 134L1280 50L1165.1 102Z" fill="#fea121" stroke="#fea121"></path>
        <path d="M1280 50L1280 0L1201.5 0Z" fill="#f37804" stroke="#f37804"></path>
    </g>
</svg>
