<svg height="360" viewBox="0 0 640 360" width="640" xmlns="http://www.w3.org/2000/svg">
  <g stroke-linejoin="bevel">
    <path d="m321.4 174 4.2-28-54.7-3z" fill="#f57e08" stroke="#f57e08"/>
    <path d="m359.8 108-27 16-7.2 22z" fill="#ffa726" stroke="#ffa726"/>
    <path d="m325.6 146-28.8-52-25.9 49z" fill="#fea121" stroke="#fea121"/>
    <path d="m270.9 143-34.2 20 84.7 11z" fill="#ffa726" stroke="#ffa726"/>
    <path d="m332.8 124-36-30 28.8 52z" fill="#f99014" stroke="#f99014"/>
    <path d="m270.9 143-22.5-40-11.7 60z" fill="#fb9619" stroke="#fb9619"/>
    <path d="m296.8 94-48.4 9 22.5 40z" fill="#f6840c" stroke="#f6840c"/>
    <path d="m408.8 181-49-73-34.2 38z" fill="#ffa726" stroke="#ffa726"/>
    <path d="m332.8 124 27-16-63-14z" fill="#f17202" stroke="#f17202"/>
    <path d="m293.4 64-3 10 6.4 20z" fill="#fb9619" stroke="#fb9619"/>
    <path d="m296.8 94-6.4-20-42 29z" fill="#f88a10" stroke="#f88a10"/>
    <path d="m236.7 163 60.9 83 23.8-72z" fill="#ef6c00" stroke="#ef6c00"/>
    <path d="m321.4 174 87.4 7-83.2-35z" fill="#f99014" stroke="#f99014"/>
    <path d="m370.8 67-77.4-3 3.4 30z" fill="#f17202" stroke="#f17202"/>
    <path d="m290.4 74-35.2-39-6.8 68z" fill="#f37804" stroke="#f37804"/>
    <path d="m190.9 120 12.3 43h33.5z" fill="#f88a10" stroke="#f88a10"/>
    <path d="m236.7 163-19.5 76 80.4 7z" fill="#f17202" stroke="#f17202"/>
    <path d="m192.2 99-1.3 21 57.5-17z" fill="#ef6c00" stroke="#ef6c00"/>
    <path d="m248.4 103-57.5 17 45.8 43z" fill="#f88a10" stroke="#f88a10"/>
    <path d="m367.4 275 41.4-94-87.4-7z" fill="#f88a10" stroke="#f88a10"/>
    <path d="m436.1 72-65.3-5-11 41z" fill="#f6840c" stroke="#f6840c"/>
    <path d="m359.8 108 11-41-74 27z" fill="#f99014" stroke="#f99014"/>
    <path d="m147.9 248 69.3-9-14-76z" fill="#f6840c" stroke="#f6840c"/>
    <path d="m203.2 163 14 76 19.5-76z" fill="#f6840c" stroke="#f6840c"/>
    <path d="m194.7 83-2.5 16 56.2 4z" fill="#f17202" stroke="#f17202"/>
    <path d="m255.2 35-60.5 48 53.7 20z" fill="#f6840c" stroke="#f6840c"/>
    <path d="m408.8 181 14.5-37-63.5-36z" fill="#fc9c1d" stroke="#fc9c1d"/>
    <path d="m272.2 23-17 12 38.2 29z" fill="#fea121" stroke="#fea121"/>
    <path d="m293.4 64-38.2-29 35.2 39z" fill="#fb9619" stroke="#fb9619"/>
    <path d="m397.3 268 27.3-83-15.8-4z" fill="#f37804" stroke="#f37804"/>
    <path d="m408.8 181 15.8 4-1.3-41z" fill="#ffa726" stroke="#ffa726"/>
    <path d="m163.7 100 2 35 25.2-15z" fill="#fea121" stroke="#fea121"/>
    <path d="m190.9 120-25.2 15 37.5 28z" fill="#fea121" stroke="#fea121"/>
    <path d="m163.7 100 27.2 20 1.3-21z" fill="#f99014" stroke="#f99014"/>
    <path d="m281.4 0-9.2 23 63.6-23z" fill="#fea121" stroke="#fea121"/>
    <path d="m165.7 135-4 15 41.5 13z" fill="#ef6c00" stroke="#ef6c00"/>
    <path d="m272.2 23-7.6 1-9.4 11z" fill="#f88a10" stroke="#f88a10"/>
    <path d="m255.2 35-51.3-35-9.2 83z" fill="#f99014" stroke="#f99014"/>
    <path d="m373.6 302-6.2-27-79 54z" fill="#f6840c" stroke="#f6840c"/>
    <path d="m297.6 246 69.8 29-46-101z" fill="#fc9c1d" stroke="#fc9c1d"/>
    <path d="m194.7 83-31 17 28.5-1z" fill="#ef6c00" stroke="#ef6c00"/>
    <path d="m165.7 135-19.8 23 15.8-8z" fill="#f99014" stroke="#f99014"/>
    <path d="m139.5 87 24.2 13-25.8-35z" fill="#f17202" stroke="#f17202"/>
    <path d="m367.4 275 29.9-7 11.5-87z" fill="#f37804" stroke="#f37804"/>
    <path d="m139.5 87 6.4 71 19.8-23z" fill="#ef6c00" stroke="#ef6c00"/>
    <path d="m161.7 150-15.8 8 57.3 5z" fill="#ffa726" stroke="#ffa726"/>
    <path d="m272.2 23 8.4-23-16 24z" fill="#f57e08" stroke="#f57e08"/>
    <path d="m264.6 24-26.9-24 17.5 35z" fill="#f88a10" stroke="#f88a10"/>
    <path d="m335.8 0-63.6 23 21.2 41z" fill="#ffa726" stroke="#ffa726"/>
    <path d="m281.4 0h-.8l-8.4 23z" fill="#fea121" stroke="#fea121"/>
    <path d="m469.1 0h-133.3l35 67z" fill="#ffa726" stroke="#ffa726"/>
    <path d="m370.8 67-35-67-42.4 64z" fill="#f37804" stroke="#f37804"/>
    <path d="m478.5 148-42.4-76-12.8 72z" fill="#f6840c" stroke="#f6840c"/>
    <path d="m423.3 144 12.8-72-76.3 36z" fill="#f99014" stroke="#f99014"/>
    <path d="m288.4 329 79-54-69.8-29z" fill="#fea121" stroke="#fea121"/>
    <path d="m367.4 275 6.2 27 23.7-34z" fill="#ffa726" stroke="#ffa726"/>
    <path d="m373.6 302 44.5-31-20.8-3z" fill="#f99014" stroke="#f99014"/>
    <path d="m397.3 268 20.8 3 6.5-86z" fill="#ef6c00" stroke="#ef6c00"/>
    <path d="m424.6 185 53.9-37-55.2-4z" fill="#f6840c" stroke="#f6840c"/>
    <path d="m280.6 0h-42.9l26.9 24z" fill="#f99014" stroke="#f99014"/>
    <path d="m234.2 325 14.4-8-31.4-78z" fill="#fc9c1d" stroke="#fc9c1d"/>
    <path d="m217.2 239 31.4 78 49-71z" fill="#f6840c" stroke="#f6840c"/>
    <path d="m137.9 65 25.8 35 31-17z" fill="#fc9c1d" stroke="#fc9c1d"/>
    <path d="m163.7 100-24.2-13 26.2 48z" fill="#f99014" stroke="#f99014"/>
    <path d="m248.6 317 39.8 12 9.2-83z" fill="#f17202" stroke="#f17202"/>
    <path d="m104.2 159 43.7 89-2-90z" fill="#fb9619" stroke="#fb9619"/>
    <path d="m145.9 158 2 90 55.3-85z" fill="#fb9619" stroke="#fb9619"/>
    <path d="m147.9 248 86.3 77-17-86z" fill="#ef6c00" stroke="#ef6c00"/>
    <path d="m248.6 317 41.3 21-1.5-9z" fill="#ef6c00" stroke="#ef6c00"/>
    <path d="m490.5 159-12-11-53.9 37z" fill="#ffa726" stroke="#ffa726"/>
    <path d="m237.7 0h-33.8l51.3 35z" fill="#f17202" stroke="#f17202"/>
    <path d="m289.4 346 .5-8-45.2 22z" fill="#ffa726" stroke="#ffa726"/>
    <path d="m288.4 329 76.4 11 8.8-38z" fill="#fc9c1d" stroke="#fc9c1d"/>
    <path d="m152.2 0-14.3 65 56.8 18z" fill="#f17202" stroke="#f17202"/>
    <path d="m139.5 87-35.3 72 41.7-1z" fill="#fc9c1d" stroke="#fc9c1d"/>
    <path d="m244.7 360 45.2-22-41.3-21z" fill="#fea121" stroke="#fea121"/>
    <path d="m330.6 360 34.2-20-76.4-11z" fill="#fea121" stroke="#fea121"/>
    <path d="m487.3 321-28-63-41.2 13z" fill="#fb9619" stroke="#fb9619"/>
    <path d="m418.1 271 41.2-13-34.7-73z" fill="#f99014" stroke="#f99014"/>
    <path d="m382.6 334 35.5-63-44.5 31z" fill="#f57e08" stroke="#f57e08"/>
    <path d="m459.3 258 1.8-2-36.5-71z" fill="#ffa726" stroke="#ffa726"/>
    <path d="m500.8 165-10.3-6 20.3 42z" fill="#ffa726" stroke="#ffa726"/>
    <path d="m478.5 148 13.8-15-56.2-61z" fill="#f88a10" stroke="#f88a10"/>
    <path d="m78.5 50 25.7 109 35.3-72z" fill="#f57e08" stroke="#f57e08"/>
    <path d="m330.6 360-42.2-31 1.5 9z" fill="#fb9619" stroke="#fb9619"/>
    <path d="m490.5 159 1.8-26-13.8 15z" fill="#ffa726" stroke="#ffa726"/>
    <path d="m364.8 340 17.8-6-9-32z" fill="#f99014" stroke="#f99014"/>
    <path d="m510.8 201-20.3-42-65.9 26z" fill="#f37804" stroke="#f37804"/>
    <path d="m490.5 159 10.3 6-8.5-32z" fill="#f99014" stroke="#f99014"/>
    <path d="m244.7 360h43.2l1.5-14z" fill="#fc9c1d" stroke="#fc9c1d"/>
    <path d="m289.4 346 41.2 14-40.7-22z" fill="#f99014" stroke="#f99014"/>
    <path d="m287.9 360h42.7l-41.2-14z" fill="#f37804" stroke="#f37804"/>
    <path d="m364.8 340 22 12-4.2-18z" fill="#ef6c00" stroke="#ef6c00"/>
    <path d="m234.2 325 10.5 35 3.9-43z" fill="#f88a10" stroke="#f88a10"/>
    <path d="m182.2 360h62.5l-10.5-35z" fill="#fea121" stroke="#fea121"/>
    <path d="m500.8 165 5.7-38-14.2 6z" fill="#fc9c1d" stroke="#fc9c1d"/>
    <path d="m492.3 133-2.2-80-54 19z" fill="#f6840c" stroke="#f6840c"/>
    <path d="m148.2 0-31.7 46 21.4 19z" fill="#fb9619" stroke="#fb9619"/>
    <path d="m137.9 65-21.4-19 23 41z" fill="#f57e08" stroke="#f57e08"/>
    <path d="m203.9 0h-51.7l42.5 83z" fill="#fb9619" stroke="#fb9619"/>
    <path d="m330.6 360h32.8l1.4-20z" fill="#f57e08" stroke="#f57e08"/>
    <path d="m382.6 334 49.5 29-14-92z" fill="#ef6c00" stroke="#ef6c00"/>
    <path d="m363.4 360 23.4-8-22-12z" fill="#fc9c1d" stroke="#fc9c1d"/>
    <path d="m504.3 270 14.8-58-58 44z" fill="#f88a10" stroke="#f88a10"/>
    <path d="m152.2 0h-4l-10.3 65z" fill="#f6840c" stroke="#f6840c"/>
    <path d="m461.1 256 49.7-55-86.2-16z" fill="#fc9c1d" stroke="#fc9c1d"/>
    <path d="m500.8 165 98 12-92.3-50z" fill="#f17202" stroke="#f17202"/>
    <path d="m519.1 212-8.3-11-49.7 55z" fill="#f99014" stroke="#f99014"/>
    <path d="m506.5 127-16.4-74 2.2 80z" fill="#f17202" stroke="#f17202"/>
    <path d="m436.1 72 33-72-98.3 67z" fill="#f17202" stroke="#f17202"/>
    <path d="m504.3 270-43.2-14-1.8 2z" fill="#f37804" stroke="#f37804"/>
    <path d="m510.8 201 88-24-98-12z" fill="#f99014" stroke="#f99014"/>
    <path d="m40.5 176 28 10 35.7-27z" fill="#ffa726" stroke="#ffa726"/>
    <path d="m104.2 159-35.7 27 79.4 62z" fill="#f37804" stroke="#f37804"/>
    <path d="m147.9 248 34.3 112 52-35z" fill="#f99014" stroke="#f99014"/>
    <path d="m490.1 53-21-53-33 72z" fill="#ef6c00" stroke="#ef6c00"/>
    <path d="m115.9 319 66.3 41-34.3-112z" fill="#fea121" stroke="#fea121"/>
    <path d="m487.3 321 17-51-45-12z" fill="#fb9619" stroke="#fb9619"/>
    <path d="m68.5 186 9 64 70.4-2z" fill="#fc9c1d" stroke="#fc9c1d"/>
    <path d="m506.5 127 6.8-82-23.2 8z" fill="#f37804" stroke="#f37804"/>
    <path d="m490.1 53-2.8-53h-18.2z" fill="#fb9619" stroke="#fb9619"/>
    <path d="m576.8 36-63.5 9-6.8 82z" fill="#fc9c1d" stroke="#fc9c1d"/>
    <path d="m161.7 373 18.5-4 2-9z" fill="#f6840c" stroke="#f6840c"/>
    <path d="m182.2 360-2 9 64.5-9z" fill="#ffa726" stroke="#ffa726"/>
    <path d="m244.7 360-64.5 9 107.7-9z" fill="#f88a10" stroke="#f88a10"/>
    <path d="m287.9 360-126.2 13 168.9-13z" fill="#f57e08" stroke="#f57e08"/>
    <path d="m330.6 360 101.5 3-68.7-3z" fill="#fc9c1d" stroke="#fc9c1d"/>
    <path d="m43.5 0 35 50 38-4z" fill="#f88a10" stroke="#f88a10"/>
    <path d="m116.5 46-38 4 61 37z" fill="#fc9c1d" stroke="#fc9c1d"/>
    <path d="m77.5 250 38.4 69 32-71z" fill="#fea121" stroke="#fea121"/>
    <path d="m513.3 45-26-45 2.8 53z" fill="#ef6c00" stroke="#ef6c00"/>
    <path d="m386.8 352 45.3 11-49.5-29z" fill="#f99014" stroke="#f99014"/>
    <path d="m363.4 360 68.7 3-45.3-11z" fill="#f57e08" stroke="#f57e08"/>
    <path d="m87.5 389 344.6-26-101.5-3z" fill="#fb9619" stroke="#fb9619"/>
    <path d="m432.1 363 55.2-42-69.2-50z" fill="#fc9c1d" stroke="#fc9c1d"/>
    <path d="m115.9 319 45.8 54 20.5-13z" fill="#fb9619" stroke="#fb9619"/>
    <path d="m77.5 250 28.2 72 10.2-3z" fill="#f6840c" stroke="#f6840c"/>
    <path d="m95.2 360 66.5 13-45.8-54z" fill="#ffa726" stroke="#ffa726"/>
    <path d="m180.2 369-18.5 4 126.2-13z" fill="#f17202" stroke="#f17202"/>
    <path d="m68.5 186-55.3 8 64.3 56z" fill="#f6840c" stroke="#f6840c"/>
    <path d="m43.2 377 52-17h-67.7z" fill="#f17202" stroke="#f17202"/>
    <path d="m0 118 40.5 58 63.7-17z" fill="#fc9c1d" stroke="#fc9c1d"/>
    <path d="m523.1-31-57.6-11 21.8 42z" fill="#f17202" stroke="#f17202"/>
    <path d="m487.3 0-21.8-42 3.6 42z" fill="#ffa726" stroke="#ffa726"/>
    <path d="m469.1 0-3.6-42-129.7 42z" fill="#f88a10" stroke="#f88a10"/>
    <path d="m335.8 0 129.7-42-184.1 42z" fill="#fc9c1d" stroke="#fc9c1d"/>
    <path d="m281.4 0 184.1-42-184.9 42z" fill="#fb9619" stroke="#fb9619"/>
    <path d="m280.6 0 184.9-42-227.8 42z" fill="#fb9619" stroke="#fb9619"/>
    <path d="m237.7 0 227.8-42-261.6 42z" fill="#f88a10" stroke="#f88a10"/>
    <path d="m203.9 0 261.6-42-313.3 42z" fill="#ef6c00" stroke="#ef6c00"/>
    <path d="m152.2 0 313.3-42-317.3 42z" fill="#fea121" stroke="#fea121"/>
    <path d="m504.3 270 44.2-23-29.4-35z" fill="#f57e08" stroke="#f57e08"/>
    <path d="m519.1 212 79.7-35-88 24z" fill="#f17202" stroke="#f17202"/>
    <path d="m565.5 350-17-103-44.2 23z" fill="#f37804" stroke="#f37804"/>
    <path d="m432.1 363 37.7-3 17.5-39z" fill="#f88a10" stroke="#f88a10"/>
    <path d="m487.3 321 78.2 29-61.2-80z" fill="#fea121" stroke="#fea121"/>
    <path d="m432.1 363 47.2-3h-9.5z" fill="#fb9619" stroke="#fb9619"/>
    <path d="m469.8 360h9.5l8-39z" fill="#f57e08" stroke="#f57e08"/>
    <path d="m432.1 363 58-3h-10.8z" fill="#fb9619" stroke="#fb9619"/>
    <path d="m479.3 360h10.8l-2.8-39z" fill="#fc9c1d" stroke="#fc9c1d"/>
    <path d="m0 118 13.2 76 27.3-18z" fill="#f99014" stroke="#f99014"/>
    <path d="m40.5 176-27.3 18 55.3-8z" fill="#ef6c00" stroke="#ef6c00"/>
    <path d="m95.2 360 10.5-38-78.2 38z" fill="#f88a10" stroke="#f88a10"/>
    <g fill="#f99014" stroke="#f99014">
      <path d="m105.7 322-10.5 38 20.7-41z"/>
      <path d="m576.5 0-53.4-31-9.8 76z"/>
      <path d="m513.3 45 9.8-76-35.8 31z"/>
    </g>
    <path d="m465.5-42-422 42h104.7z" fill="#fea121" stroke="#fea121"/>
    <path d="m148.2 0h-104.7l73 46z" fill="#f6840c" stroke="#f6840c"/>
    <path d="m0 117v1l104.2 41z" fill="#f37804" stroke="#f37804"/>
    <path d="m0 117 104.2 42-104.2-53z" fill="#f99014" stroke="#f99014"/>
    <path d="m0 106 104.2 53-25.7-109z" fill="#ffa726" stroke="#ffa726"/>
    <path d="m0 30v76l78.5-56z" fill="#fc9c1d" stroke="#fc9c1d"/>
    <path d="m612.8 199-14-22-50.3 70z" fill="#ffa726" stroke="#ffa726"/>
    <path d="m548.5 247 50.3-70-79.7 35z" fill="#f57e08" stroke="#f57e08"/>
    <path d="m640 85-63.2-49-70.3 91z" fill="#ef6c00" stroke="#ef6c00"/>
    <path d="m-50.8 207 50.8 24 13.2-37z" fill="#f88a10" stroke="#f88a10"/>
    <path d="m13.2 194-13.2 37 77.5 19z" fill="#f99014" stroke="#f99014"/>
    <path d="m0 117-5.8-11 5.8 12z" fill="#f88a10" stroke="#f88a10"/>
    <path d="m0 118-25.8 15 39 61z" fill="#fb9619" stroke="#fb9619"/>
    <path d="m0 106h-5.8l5.8 11z" fill="#ef6c00" stroke="#ef6c00"/>
    <path d="m0 30-5.8 76h5.8z" fill="#fc9c1d" stroke="#fc9c1d"/>
    <path d="m-50.8 207 50.8 31v-7z" fill="#ffa726" stroke="#ffa726"/>
    <path d="m0 231v7l77.5 12z" fill="#f17202" stroke="#f17202"/>
    <path d="m43.2 377 44.3 12 7.7-29z" fill="#f88a10" stroke="#f88a10"/>
    <path d="m95.2 360-7.7 29 74.2-16z" fill="#f88a10" stroke="#f88a10"/>
    <path d="m161.7 373-74.2 16 243.1-29z" fill="#f88a10" stroke="#f88a10"/>
    <path d="m432.1 363 142.7 4-84.7-7z" fill="#fea121" stroke="#fea121"/>
    <path d="m637.5 215-24.7-16-64.3 48z" fill="#ffa726" stroke="#ffa726"/>
    <path d="m598.8 177 41.2-92-133.5 42z" fill="#fc9c1d" stroke="#fc9c1d"/>
    <path d="m639.8 0h-63.3l.3 36z" fill="#f17202" stroke="#f17202"/>
    <path d="m576.8 36-.3-36-63.2 45z" fill="#fb9619" stroke="#fb9619"/>
    <path d="m43.5 0-43.5 30 78.5 20z" fill="#f37804" stroke="#f37804"/>
    <path d="m0 30-25.8 103 20-27z" fill="#f57e08" stroke="#f57e08"/>
    <path d="m-5.8 106-20 27 25.8-15z" fill="#f88a10" stroke="#f88a10"/>
    <path d="m0 30-26.8 104 1-1z" fill="#fc9c1d" stroke="#fc9c1d"/>
    <path d="m-25.8 133-1 1 40 60z" fill="#fc9c1d" stroke="#fc9c1d"/>
    <path d="m490.1 360 75.4-10-78.2-29z" fill="#ffa726" stroke="#ffa726"/>
    <path d="m465.5-42-465.5 42h43.5z" fill="#f88a10" stroke="#f88a10"/>
    <path d="m43.5 0h-43.5v30z" fill="#f6840c" stroke="#f6840c"/>
    <path d="m0 30v-30l-26.8 134z" fill="#f37804" stroke="#f37804"/>
    <path d="m27.5 360 78.2-38-105.7 1z" fill="#fc9c1d" stroke="#fc9c1d"/>
    <path d="m0 323 105.7-1-28.2-72z" fill="#f37804" stroke="#f37804"/>
    <path d="m0 323 77.5-73-77.5-12z" fill="#f17202" stroke="#f17202"/>
    <path d="m-50.8 207 50.8 116v-85z" fill="#f17202" stroke="#f17202"/>
    <path d="m640 189-41.2-12 14 22z" fill="#f6840c" stroke="#f6840c"/>
    <path d="m640 189v-49l-41.2 37z" fill="#f57e08" stroke="#f57e08"/>
    <path d="m637.5 215 2.5-26-27.2 10z" fill="#ffa726" stroke="#ffa726"/>
    <path d="m640 283-2.5-68-89 32z" fill="#f57e08" stroke="#f57e08"/>
    <path d="m490.1 360 84.7 7-9.3-17z" fill="#f57e08" stroke="#f57e08"/>
    <path d="m640 286v-3l-91.5-36z" fill="#fb9619" stroke="#fb9619"/>
    <path d="m87.5 389 487.3-22-142.7-4z" fill="#ef6c00" stroke="#ef6c00"/>
    <path d="m574.8 367 6.7-7-16-10z" fill="#f6840c" stroke="#f6840c"/>
    <path d="m640 140v-55l-41.2 92z" fill="#ffa726" stroke="#ffa726"/>
    <path d="m0 0-50.8 207 24-73z" fill="#f88a10" stroke="#f88a10"/>
    <path d="m-26.8 134-24 73 64-13z" fill="#f88a10" stroke="#f88a10"/>
    <path d="m-50.8 207 50.8 153v-37z" fill="#f17202" stroke="#f17202"/>
    <path d="m0 323v37h27.5z" fill="#fc9c1d" stroke="#fc9c1d"/>
    <path d="m27.5 360h-27.5l43.2 17z" fill="#fc9c1d" stroke="#fc9c1d"/>
    <path d="m640 286-91.5-39 17 103z" fill="#fb9619" stroke="#fb9619"/>
    <path d="m637.5 215 50.3 40-47.8-66z" fill="#fc9c1d" stroke="#fc9c1d"/>
    <path d="m604.8 360 35.2-74-74.5 64z" fill="#f6840c" stroke="#f6840c"/>
    <path d="m574.8 367 30-7h-23.3z" fill="#fc9c1d" stroke="#fc9c1d"/>
    <path d="m581.5 360h23.3l-39.3-10z" fill="#f17202" stroke="#f17202"/>
    <path d="m640 85-.2-85-63 36z" fill="#fc9c1d" stroke="#fc9c1d"/>
    <path d="m576.5 0 63.5-6-116.9-25z" fill="#f57e08" stroke="#f57e08"/>
    <path d="m640 85v-85h-.2z" fill="#f37804" stroke="#f37804"/>
    <path d="m639.8 0 .2-6-63.5 6z" fill="#f6840c" stroke="#f6840c"/>
    <path d="m640 0v-6l-.2 6z" fill="#ffa726" stroke="#ffa726"/>
    <path d="m604.8 360 35.2-17v-57z" fill="#f88a10" stroke="#f88a10"/>
    <path d="m574.8 367 65.2-7h-35.2z" fill="#fb9619" stroke="#fb9619"/>
    <path d="m604.8 360h35.2v-17z" fill="#fc9c1d" stroke="#fc9c1d"/>
    <path d="m640 343 47.8-88-47.8 31z" fill="#ffa726" stroke="#ffa726"/>
    <path d="m640 286 47.8-31-47.8 28z" fill="#f57e08" stroke="#f57e08"/>
    <path d="m640 283 47.8-28-50.3-40z" fill="#f17202" stroke="#f17202"/>
    <path d="m640 189 47.8 66-47.8-115z" fill="#ffa726" stroke="#ffa726"/>
    <path d="m640 140 47.8 115-47.8-170z" fill="#f99014" stroke="#f99014"/>
    <path d="m640 85 47.8 170-47.8-255z" fill="#f17202" stroke="#f17202"/>
    <path d="m640 0 47.8 255-47.8-261z" fill="#f17202" stroke="#f17202"/>
    <path d="m640 360 47.8-105-47.8 88z" fill="#fb9619" stroke="#fb9619"/>
  </g>
</svg>