<svg id="visual" viewBox="0 0 640 360" width="640" height="360" xmlns="http://www.w3.org/2000/svg" xmlns:xlink="http://www.w3.org/1999/xlink" version="1.1"><g stroke-width="1" stroke-linejoin="bevel"><path d="M321.4 174L325.6 146L270.9 143Z" fill="#f57e08" stroke="#f57e08"></path><path d="M359.8 108L332.8 124L325.6 146Z" fill="#ffa726" stroke="#ffa726"></path><path d="M325.6 146L296.8 94L270.9 143Z" fill="#fea121" stroke="#fea121"></path><path d="M270.9 143L236.7 163L321.4 174Z" fill="#ffa726" stroke="#ffa726"></path><path d="M332.8 124L296.8 94L325.6 146Z" fill="#f99014" stroke="#f99014"></path><path d="M270.9 143L248.4 103L236.7 163Z" fill="#fb9619" stroke="#fb9619"></path><path d="M296.8 94L248.4 103L270.9 143Z" fill="#f6840c" stroke="#f6840c"></path><path d="M408.8 181L359.8 108L325.6 146Z" fill="#ffa726" stroke="#ffa726"></path><path d="M332.8 124L359.8 108L296.8 94Z" fill="#f17202" stroke="#f17202"></path><path d="M293.4 64L290.4 74L296.8 94Z" fill="#fb9619" stroke="#fb9619"></path><path d="M296.8 94L290.4 74L248.4 103Z" fill="#f88a10" stroke="#f88a10"></path><path d="M236.7 163L297.6 246L321.4 174Z" fill="#ef6c00" stroke="#ef6c00"></path><path d="M321.4 174L408.8 181L325.6 146Z" fill="#f99014" stroke="#f99014"></path><path d="M370.8 67L293.4 64L296.8 94Z" fill="#f17202" stroke="#f17202"></path><path d="M290.4 74L255.2 35L248.4 103Z" fill="#f37804" stroke="#f37804"></path><path d="M190.9 120L203.2 163L236.7 163Z" fill="#f88a10" stroke="#f88a10"></path><path d="M236.7 163L217.2 239L297.6 246Z" fill="#f17202" stroke="#f17202"></path><path d="M192.2 99L190.9 120L248.4 103Z" fill="#ef6c00" stroke="#ef6c00"></path><path d="M248.4 103L190.9 120L236.7 163Z" fill="#f88a10" stroke="#f88a10"></path><path d="M367.4 275L408.8 181L321.4 174Z" fill="#f88a10" stroke="#f88a10"></path><path d="M436.1 72L370.8 67L359.8 108Z" fill="#f6840c" stroke="#f6840c"></path><path d="M359.8 108L370.8 67L296.8 94Z" fill="#f99014" stroke="#f99014"></path><path d="M147.9 248L217.2 239L203.2 163Z" fill="#f6840c" stroke="#f6840c"></path><path d="M203.2 163L217.2 239L236.7 163Z" fill="#f6840c" stroke="#f6840c"></path><path d="M194.7 83L192.2 99L248.4 103Z" fill="#f17202" stroke="#f17202"></path><path d="M255.2 35L194.7 83L248.4 103Z" fill="#f6840c" stroke="#f6840c"></path><path d="M408.8 181L423.3 144L359.8 108Z" fill="#fc9c1d" stroke="#fc9c1d"></path><path d="M272.2 23L255.2 35L293.4 64Z" fill="#fea121" stroke="#fea121"></path><path d="M293.4 64L255.2 35L290.4 74Z" fill="#fb9619" stroke="#fb9619"></path><path d="M397.3 268L424.6 185L408.8 181Z" fill="#f37804" stroke="#f37804"></path><path d="M408.8 181L424.6 185L423.3 144Z" fill="#ffa726" stroke="#ffa726"></path><path d="M163.7 100L165.7 135L190.9 120Z" fill="#fea121" stroke="#fea121"></path><path d="M190.9 120L165.7 135L203.2 163Z" fill="#fea121" stroke="#fea121"></path><path d="M163.7 100L190.9 120L192.2 99Z" fill="#f99014" stroke="#f99014"></path><path d="M281.4 0L272.2 23L335.8 0Z" fill="#fea121" stroke="#fea121"></path><path d="M165.7 135L161.7 150L203.2 163Z" fill="#ef6c00" stroke="#ef6c00"></path><path d="M272.2 23L264.6 24L255.2 35Z" fill="#f88a10" stroke="#f88a10"></path><path d="M255.2 35L203.9 0L194.7 83Z" fill="#f99014" stroke="#f99014"></path><path d="M373.6 302L367.4 275L288.4 329Z" fill="#f6840c" stroke="#f6840c"></path><path d="M297.6 246L367.4 275L321.4 174Z" fill="#fc9c1d" stroke="#fc9c1d"></path><path d="M194.7 83L163.7 100L192.2 99Z" fill="#ef6c00" stroke="#ef6c00"></path><path d="M165.7 135L145.9 158L161.7 150Z" fill="#f99014" stroke="#f99014"></path><path d="M139.5 87L163.7 100L137.9 65Z" fill="#f17202" stroke="#f17202"></path><path d="M367.4 275L397.3 268L408.8 181Z" fill="#f37804" stroke="#f37804"></path><path d="M139.5 87L145.9 158L165.7 135Z" fill="#ef6c00" stroke="#ef6c00"></path><path d="M161.7 150L145.9 158L203.2 163Z" fill="#ffa726" stroke="#ffa726"></path><path d="M272.2 23L280.6 0L264.6 24Z" fill="#f57e08" stroke="#f57e08"></path><path d="M264.6 24L237.7 0L255.2 35Z" fill="#f88a10" stroke="#f88a10"></path><path d="M335.8 0L272.2 23L293.4 64Z" fill="#ffa726" stroke="#ffa726"></path><path d="M281.4 0L280.6 0L272.2 23Z" fill="#fea121" stroke="#fea121"></path><path d="M469.1 0L335.8 0L370.8 67Z" fill="#ffa726" stroke="#ffa726"></path><path d="M370.8 67L335.8 0L293.4 64Z" fill="#f37804" stroke="#f37804"></path><path d="M478.5 148L436.1 72L423.3 144Z" fill="#f6840c" stroke="#f6840c"></path><path d="M423.3 144L436.1 72L359.8 108Z" fill="#f99014" stroke="#f99014"></path><path d="M288.4 329L367.4 275L297.6 246Z" fill="#fea121" stroke="#fea121"></path><path d="M367.4 275L373.6 302L397.3 268Z" fill="#ffa726" stroke="#ffa726"></path><path d="M373.6 302L418.1 271L397.3 268Z" fill="#f99014" stroke="#f99014"></path><path d="M397.3 268L418.1 271L424.6 185Z" fill="#ef6c00" stroke="#ef6c00"></path><path d="M424.6 185L478.5 148L423.3 144Z" fill="#f6840c" stroke="#f6840c"></path><path d="M280.6 0L237.7 0L264.6 24Z" fill="#f99014" stroke="#f99014"></path><path d="M234.2 325L248.6 317L217.2 239Z" fill="#fc9c1d" stroke="#fc9c1d"></path><path d="M217.2 239L248.6 317L297.6 246Z" fill="#f6840c" stroke="#f6840c"></path><path d="M137.9 65L163.7 100L194.7 83Z" fill="#fc9c1d" stroke="#fc9c1d"></path><path d="M163.7 100L139.5 87L165.7 135Z" fill="#f99014" stroke="#f99014"></path><path d="M248.6 317L288.4 329L297.6 246Z" fill="#f17202" stroke="#f17202"></path><path d="M104.2 159L147.9 248L145.9 158Z" fill="#fb9619" stroke="#fb9619"></path><path d="M145.9 158L147.9 248L203.2 163Z" fill="#fb9619" stroke="#fb9619"></path><path d="M147.9 248L234.2 325L217.2 239Z" fill="#ef6c00" stroke="#ef6c00"></path><path d="M248.6 317L289.9 338L288.4 329Z" fill="#ef6c00" stroke="#ef6c00"></path><path d="M490.5 159L478.5 148L424.6 185Z" fill="#ffa726" stroke="#ffa726"></path><path d="M237.7 0L203.9 0L255.2 35Z" fill="#f17202" stroke="#f17202"></path><path d="M289.4 346L289.9 338L244.7 360Z" fill="#ffa726" stroke="#ffa726"></path><path d="M288.4 329L364.8 340L373.6 302Z" fill="#fc9c1d" stroke="#fc9c1d"></path><path d="M152.2 0L137.9 65L194.7 83Z" fill="#f17202" stroke="#f17202"></path><path d="M139.5 87L104.2 159L145.9 158Z" fill="#fc9c1d" stroke="#fc9c1d"></path><path d="M244.7 360L289.9 338L248.6 317Z" fill="#fea121" stroke="#fea121"></path><path d="M330.6 360L364.8 340L288.4 329Z" fill="#fea121" stroke="#fea121"></path><path d="M487.3 321L459.3 258L418.1 271Z" fill="#fb9619" stroke="#fb9619"></path><path d="M418.1 271L459.3 258L424.6 185Z" fill="#f99014" stroke="#f99014"></path><path d="M382.6 334L418.1 271L373.6 302Z" fill="#f57e08" stroke="#f57e08"></path><path d="M459.3 258L461.1 256L424.6 185Z" fill="#ffa726" stroke="#ffa726"></path><path d="M500.8 165L490.5 159L510.8 201Z" fill="#ffa726" stroke="#ffa726"></path><path d="M478.5 148L492.3 133L436.1 72Z" fill="#f88a10" stroke="#f88a10"></path><path d="M78.5 50L104.2 159L139.5 87Z" fill="#f57e08" stroke="#f57e08"></path><path d="M330.6 360L288.4 329L289.9 338Z" fill="#fb9619" stroke="#fb9619"></path><path d="M490.5 159L492.3 133L478.5 148Z" fill="#ffa726" stroke="#ffa726"></path><path d="M364.8 340L382.6 334L373.6 302Z" fill="#f99014" stroke="#f99014"></path><path d="M510.8 201L490.5 159L424.6 185Z" fill="#f37804" stroke="#f37804"></path><path d="M490.5 159L500.8 165L492.3 133Z" fill="#f99014" stroke="#f99014"></path><path d="M244.7 360L287.9 360L289.4 346Z" fill="#fc9c1d" stroke="#fc9c1d"></path><path d="M289.4 346L330.6 360L289.9 338Z" fill="#f99014" stroke="#f99014"></path><path d="M287.9 360L330.6 360L289.4 346Z" fill="#f37804" stroke="#f37804"></path><path d="M364.8 340L386.8 352L382.6 334Z" fill="#ef6c00" stroke="#ef6c00"></path><path d="M234.2 325L244.7 360L248.6 317Z" fill="#f88a10" stroke="#f88a10"></path><path d="M182.2 360L244.7 360L234.2 325Z" fill="#fea121" stroke="#fea121"></path><path d="M500.8 165L506.5 127L492.3 133Z" fill="#fc9c1d" stroke="#fc9c1d"></path><path d="M492.3 133L490.1 53L436.1 72Z" fill="#f6840c" stroke="#f6840c"></path><path d="M148.2 0L116.5 46L137.9 65Z" fill="#fb9619" stroke="#fb9619"></path><path d="M137.9 65L116.5 46L139.5 87Z" fill="#f57e08" stroke="#f57e08"></path><path d="M203.9 0L152.2 0L194.7 83Z" fill="#fb9619" stroke="#fb9619"></path><path d="M330.6 360L363.4 360L364.8 340Z" fill="#f57e08" stroke="#f57e08"></path><path d="M382.6 334L432.1 363L418.1 271Z" fill="#ef6c00" stroke="#ef6c00"></path><path d="M363.4 360L386.8 352L364.8 340Z" fill="#fc9c1d" stroke="#fc9c1d"></path><path d="M504.3 270L519.1 212L461.1 256Z" fill="#f88a10" stroke="#f88a10"></path><path d="M152.2 0L148.2 0L137.9 65Z" fill="#f6840c" stroke="#f6840c"></path><path d="M461.1 256L510.8 201L424.6 185Z" fill="#fc9c1d" stroke="#fc9c1d"></path><path d="M500.8 165L598.8 177L506.5 127Z" fill="#f17202" stroke="#f17202"></path><path d="M519.1 212L510.8 201L461.1 256Z" fill="#f99014" stroke="#f99014"></path><path d="M506.5 127L490.1 53L492.3 133Z" fill="#f17202" stroke="#f17202"></path><path d="M436.1 72L469.1 0L370.8 67Z" fill="#f17202" stroke="#f17202"></path><path d="M504.3 270L461.1 256L459.3 258Z" fill="#f37804" stroke="#f37804"></path><path d="M510.8 201L598.8 177L500.8 165Z" fill="#f99014" stroke="#f99014"></path><path d="M40.5 176L68.5 186L104.2 159Z" fill="#ffa726" stroke="#ffa726"></path><path d="M104.2 159L68.5 186L147.9 248Z" fill="#f37804" stroke="#f37804"></path><path d="M147.9 248L182.2 360L234.2 325Z" fill="#f99014" stroke="#f99014"></path><path d="M490.1 53L469.1 0L436.1 72Z" fill="#ef6c00" stroke="#ef6c00"></path><path d="M115.9 319L182.2 360L147.9 248Z" fill="#fea121" stroke="#fea121"></path><path d="M487.3 321L504.3 270L459.3 258Z" fill="#fb9619" stroke="#fb9619"></path><path d="M68.5 186L77.5 250L147.9 248Z" fill="#fc9c1d" stroke="#fc9c1d"></path><path d="M506.5 127L513.3 45L490.1 53Z" fill="#f37804" stroke="#f37804"></path><path d="M490.1 53L487.3 0L469.1 0Z" fill="#fb9619" stroke="#fb9619"></path><path d="M576.8 36L513.3 45L506.5 127Z" fill="#fc9c1d" stroke="#fc9c1d"></path><path d="M161.7 373L180.2 369L182.2 360Z" fill="#f6840c" stroke="#f6840c"></path><path d="M182.2 360L180.2 369L244.7 360Z" fill="#ffa726" stroke="#ffa726"></path><path d="M244.7 360L180.2 369L287.9 360Z" fill="#f88a10" stroke="#f88a10"></path><path d="M287.9 360L161.7 373L330.6 360Z" fill="#f57e08" stroke="#f57e08"></path><path d="M330.6 360L432.1 363L363.4 360Z" fill="#fc9c1d" stroke="#fc9c1d"></path><path d="M43.5 0L78.5 50L116.5 46Z" fill="#f88a10" stroke="#f88a10"></path><path d="M116.5 46L78.5 50L139.5 87Z" fill="#fc9c1d" stroke="#fc9c1d"></path><path d="M77.5 250L115.9 319L147.9 248Z" fill="#fea121" stroke="#fea121"></path><path d="M513.3 45L487.3 0L490.1 53Z" fill="#ef6c00" stroke="#ef6c00"></path><path d="M386.8 352L432.1 363L382.6 334Z" fill="#f99014" stroke="#f99014"></path><path d="M363.4 360L432.1 363L386.8 352Z" fill="#f57e08" stroke="#f57e08"></path><path d="M87.5 389L432.1 363L330.6 360Z" fill="#fb9619" stroke="#fb9619"></path><path d="M432.1 363L487.3 321L418.1 271Z" fill="#fc9c1d" stroke="#fc9c1d"></path><path d="M115.9 319L161.7 373L182.2 360Z" fill="#fb9619" stroke="#fb9619"></path><path d="M77.5 250L105.7 322L115.9 319Z" fill="#f6840c" stroke="#f6840c"></path><path d="M95.2 360L161.7 373L115.9 319Z" fill="#ffa726" stroke="#ffa726"></path><path d="M180.2 369L161.7 373L287.9 360Z" fill="#f17202" stroke="#f17202"></path><path d="M68.5 186L13.2 194L77.5 250Z" fill="#f6840c" stroke="#f6840c"></path><path d="M43.2 377L95.2 360L27.5 360Z" fill="#f17202" stroke="#f17202"></path><path d="M0 118L40.5 176L104.2 159Z" fill="#fc9c1d" stroke="#fc9c1d"></path><path d="M523.1 -31L465.5 -42L487.3 0Z" fill="#f17202" stroke="#f17202"></path><path d="M487.3 0L465.5 -42L469.1 0Z" fill="#ffa726" stroke="#ffa726"></path><path d="M469.1 0L465.5 -42L335.8 0Z" fill="#f88a10" stroke="#f88a10"></path><path d="M335.8 0L465.5 -42L281.4 0Z" fill="#fc9c1d" stroke="#fc9c1d"></path><path d="M281.4 0L465.5 -42L280.6 0Z" fill="#fb9619" stroke="#fb9619"></path><path d="M280.6 0L465.5 -42L237.7 0Z" fill="#fb9619" stroke="#fb9619"></path><path d="M237.7 0L465.5 -42L203.9 0Z" fill="#f88a10" stroke="#f88a10"></path><path d="M203.9 0L465.5 -42L152.2 0Z" fill="#ef6c00" stroke="#ef6c00"></path><path d="M152.2 0L465.5 -42L148.2 0Z" fill="#fea121" stroke="#fea121"></path><path d="M504.3 270L548.5 247L519.1 212Z" fill="#f57e08" stroke="#f57e08"></path><path d="M519.1 212L598.8 177L510.8 201Z" fill="#f17202" stroke="#f17202"></path><path d="M565.5 350L548.5 247L504.3 270Z" fill="#f37804" stroke="#f37804"></path><path d="M432.1 363L469.8 360L487.3 321Z" fill="#f88a10" stroke="#f88a10"></path><path d="M487.3 321L565.5 350L504.3 270Z" fill="#fea121" stroke="#fea121"></path><path d="M432.1 363L479.3 360L469.8 360Z" fill="#fb9619" stroke="#fb9619"></path><path d="M469.8 360L479.3 360L487.3 321Z" fill="#f57e08" stroke="#f57e08"></path><path d="M432.1 363L490.1 360L479.3 360Z" fill="#fb9619" stroke="#fb9619"></path><path d="M479.3 360L490.1 360L487.3 321Z" fill="#fc9c1d" stroke="#fc9c1d"></path><path d="M0 118L13.2 194L40.5 176Z" fill="#f99014" stroke="#f99014"></path><path d="M40.5 176L13.2 194L68.5 186Z" fill="#ef6c00" stroke="#ef6c00"></path><path d="M95.2 360L105.7 322L27.5 360Z" fill="#f88a10" stroke="#f88a10"></path><path d="M105.7 322L95.2 360L115.9 319Z" fill="#f99014" stroke="#f99014"></path><path d="M576.5 0L523.1 -31L513.3 45Z" fill="#f99014" stroke="#f99014"></path><path d="M513.3 45L523.1 -31L487.3 0Z" fill="#f99014" stroke="#f99014"></path><path d="M465.5 -42L43.5 0L148.2 0Z" fill="#fea121" stroke="#fea121"></path><path d="M148.2 0L43.5 0L116.5 46Z" fill="#f6840c" stroke="#f6840c"></path><path d="M0 117L0 118L104.2 159Z" fill="#f37804" stroke="#f37804"></path><path d="M0 117L104.2 159L0 106Z" fill="#f99014" stroke="#f99014"></path><path d="M0 106L104.2 159L78.5 50Z" fill="#ffa726" stroke="#ffa726"></path><path d="M0 30L0 106L78.5 50Z" fill="#fc9c1d" stroke="#fc9c1d"></path><path d="M612.8 199L598.8 177L548.5 247Z" fill="#ffa726" stroke="#ffa726"></path><path d="M548.5 247L598.8 177L519.1 212Z" fill="#f57e08" stroke="#f57e08"></path><path d="M640 85L576.8 36L506.5 127Z" fill="#ef6c00" stroke="#ef6c00"></path><path d="M-50.8 207L0 231L13.2 194Z" fill="#f88a10" stroke="#f88a10"></path><path d="M13.2 194L0 231L77.5 250Z" fill="#f99014" stroke="#f99014"></path><path d="M0 117L-5.8 106L0 118Z" fill="#f88a10" stroke="#f88a10"></path><path d="M0 118L-25.8 133L13.2 194Z" fill="#fb9619" stroke="#fb9619"></path><path d="M0 106L-5.8 106L0 117Z" fill="#ef6c00" stroke="#ef6c00"></path><path d="M0 30L-5.8 106L0 106Z" fill="#fc9c1d" stroke="#fc9c1d"></path><path d="M-50.8 207L0 238L0 231Z" fill="#ffa726" stroke="#ffa726"></path><path d="M0 231L0 238L77.5 250Z" fill="#f17202" stroke="#f17202"></path><path d="M43.2 377L87.5 389L95.2 360Z" fill="#f88a10" stroke="#f88a10"></path><path d="M95.2 360L87.5 389L161.7 373Z" fill="#f88a10" stroke="#f88a10"></path><path d="M161.7 373L87.5 389L330.6 360Z" fill="#f88a10" stroke="#f88a10"></path><path d="M432.1 363L574.8 367L490.1 360Z" fill="#fea121" stroke="#fea121"></path><path d="M637.5 215L612.8 199L548.5 247Z" fill="#ffa726" stroke="#ffa726"></path><path d="M598.8 177L640 85L506.5 127Z" fill="#fc9c1d" stroke="#fc9c1d"></path><path d="M639.8 0L576.5 0L576.8 36Z" fill="#f17202" stroke="#f17202"></path><path d="M576.8 36L576.5 0L513.3 45Z" fill="#fb9619" stroke="#fb9619"></path><path d="M43.5 0L0 30L78.5 50Z" fill="#f37804" stroke="#f37804"></path><path d="M0 30L-25.8 133L-5.8 106Z" fill="#f57e08" stroke="#f57e08"></path><path d="M-5.8 106L-25.8 133L0 118Z" fill="#f88a10" stroke="#f88a10"></path><path d="M0 30L-26.8 134L-25.8 133Z" fill="#fc9c1d" stroke="#fc9c1d"></path><path d="M-25.8 133L-26.8 134L13.2 194Z" fill="#fc9c1d" stroke="#fc9c1d"></path><path d="M490.1 360L565.5 350L487.3 321Z" fill="#ffa726" stroke="#ffa726"></path><path d="M465.5 -42L0 0L43.5 0Z" fill="#f88a10" stroke="#f88a10"></path><path d="M43.5 0L0 0L0 30Z" fill="#f6840c" stroke="#f6840c"></path><path d="M0 30L0 0L-26.8 134Z" fill="#f37804" stroke="#f37804"></path><path d="M27.5 360L105.7 322L0 323Z" fill="#fc9c1d" stroke="#fc9c1d"></path><path d="M0 323L105.7 322L77.5 250Z" fill="#f37804" stroke="#f37804"></path><path d="M0 323L77.5 250L0 238Z" fill="#f17202" stroke="#f17202"></path><path d="M-50.8 207L0 323L0 238Z" fill="#f17202" stroke="#f17202"></path><path d="M640 189L598.8 177L612.8 199Z" fill="#f6840c" stroke="#f6840c"></path><path d="M640 189L640 140L598.8 177Z" fill="#f57e08" stroke="#f57e08"></path><path d="M637.5 215L640 189L612.8 199Z" fill="#ffa726" stroke="#ffa726"></path><path d="M640 283L637.5 215L548.5 247Z" fill="#f57e08" stroke="#f57e08"></path><path d="M490.1 360L574.8 367L565.5 350Z" fill="#f57e08" stroke="#f57e08"></path><path d="M640 286L640 283L548.5 247Z" fill="#fb9619" stroke="#fb9619"></path><path d="M87.5 389L574.8 367L432.1 363Z" fill="#ef6c00" stroke="#ef6c00"></path><path d="M574.8 367L581.5 360L565.5 350Z" fill="#f6840c" stroke="#f6840c"></path><path d="M640 140L640 85L598.8 177Z" fill="#ffa726" stroke="#ffa726"></path><path d="M0 0L-50.8 207L-26.8 134Z" fill="#f88a10" stroke="#f88a10"></path><path d="M-26.8 134L-50.8 207L13.2 194Z" fill="#f88a10" stroke="#f88a10"></path><path d="M-50.8 207L0 360L0 323Z" fill="#f17202" stroke="#f17202"></path><path d="M0 323L0 360L27.5 360Z" fill="#fc9c1d" stroke="#fc9c1d"></path><path d="M27.5 360L0 360L43.2 377Z" fill="#fc9c1d" stroke="#fc9c1d"></path><path d="M640 286L548.5 247L565.5 350Z" fill="#fb9619" stroke="#fb9619"></path><path d="M637.5 215L687.8 255L640 189Z" fill="#fc9c1d" stroke="#fc9c1d"></path><path d="M604.8 360L640 286L565.5 350Z" fill="#f6840c" stroke="#f6840c"></path><path d="M574.8 367L604.8 360L581.5 360Z" fill="#fc9c1d" stroke="#fc9c1d"></path><path d="M581.5 360L604.8 360L565.5 350Z" fill="#f17202" stroke="#f17202"></path><path d="M640 85L639.8 0L576.8 36Z" fill="#fc9c1d" stroke="#fc9c1d"></path><path d="M576.5 0L640 -6L523.1 -31Z" fill="#f57e08" stroke="#f57e08"></path><path d="M640 85L640 0L639.8 0Z" fill="#f37804" stroke="#f37804"></path><path d="M639.8 0L640 -6L576.5 0Z" fill="#f6840c" stroke="#f6840c"></path><path d="M640 0L640 -6L639.8 0Z" fill="#ffa726" stroke="#ffa726"></path><path d="M604.8 360L640 343L640 286Z" fill="#f88a10" stroke="#f88a10"></path><path d="M574.8 367L640 360L604.8 360Z" fill="#fb9619" stroke="#fb9619"></path><path d="M604.8 360L640 360L640 343Z" fill="#fc9c1d" stroke="#fc9c1d"></path><path d="M640 343L687.8 255L640 286Z" fill="#ffa726" stroke="#ffa726"></path><path d="M640 286L687.8 255L640 283Z" fill="#f57e08" stroke="#f57e08"></path><path d="M640 283L687.8 255L637.5 215Z" fill="#f17202" stroke="#f17202"></path><path d="M640 189L687.8 255L640 140Z" fill="#ffa726" stroke="#ffa726"></path><path d="M640 140L687.8 255L640 85Z" fill="#f99014" stroke="#f99014"></path><path d="M640 85L687.8 255L640 0Z" fill="#f17202" stroke="#f17202"></path><path d="M640 0L687.8 255L640 -6Z" fill="#f17202" stroke="#f17202"></path><path d="M640 360L687.8 255L640 343Z" fill="#fb9619" stroke="#fb9619"></path></g></svg>